<?xml version="1.0" encoding="utf-8"?>
<!-- Generator: Adobe Illustrator 16.0.0, SVG Export Plug-In . SVG Version: 6.00 Build 0)  -->
<!DOCTYPE svg PUBLIC "-//W3C//DTD SVG 1.1//EN" "http://www.w3.org/Graphics/SVG/1.1/DTD/svg11.dtd">
<svg version="1.1" id="Capa_1" xmlns="http://www.w3.org/2000/svg" xmlns:xlink="http://www.w3.org/1999/xlink" x="0px" y="0px"
	 width="64px" height="64px" viewBox="0 0 64 64" enable-background="new 0 0 64 64" xml:space="preserve">
<path fill="#FBF2D9" d="M60.32,29H53.6l-5.1-8.5v4c0,0,0,2-2,2s-2-2-2-2v-8c0,0,0-2,2.5-2c2.08,0,3.5,2,3.5,2L60.32,29z"/>
<path fill="none" stroke="#3D3C3E" stroke-linecap="round" stroke-linejoin="round" stroke-miterlimit="10" d="M60.5,29.5l-11-14
	c0,0-1.418-2-3.5-2c-2.5,0-2.5,2-2.5,2v8c0,0,0,2,2,2s2-2,2-2v-4l6,10"/>
<g>
	<g>
		<path fill="#FBF2D9" d="M62,32v15c0,0.8-0.55,0.99-1.01,1H41c-2.94,0-3-3.84-3-4c0-2.93-2.39-4-4-4c-1.61,0-4,1.07-4,4
			c0,0.16-0.03,4-3,4H7.01C6.55,47.99,6,47.81,6,47V32H62z"/>
	</g>
</g>
<path fill="#FBF2D9" d="M21.5,16.5v8c0,0,0,2-2,2s-2-2-2-2v-4L12.4,29H5.68l9.82-12.5c0,0,1.42-2,3.5-2
	C21.5,14.5,21.5,16.5,21.5,16.5z"/>
<path fill="#69AEA6" d="M8,39c0,0,0-2,0-3c0-2,2-2,2-2c2,0,11,0,11,0s5,0,5,5l0,0c0,0,0,5-5,5c-2,0-8,0-8,0S8,44,8,39L8,39z"/>
<path fill="#E05754" d="M40,39c0,0,0-2,0-3c0-2,2-2,2-2c2,0,11,0,11,0s5,0,5,5l0,0c0,0,0,5-5,5c-2,0-8,0-8,0S40,44,40,39L40,39z"/>
<g>
	<path fill="#3D3C3E" d="M20,34c0.163,0,4,0.046,4,4c0,0.163-0.045,4-4,4h-8c-0.163,0-4-0.046-4-4c0-0.163,0.045-4,4-4H20 M20,33
		c0,0-6,0-8,0c-5,0-5,5-5,5c0,5,5,5,5,5s6,0,8,0c5,0,5-5,5-5C25,33,20,33,20,33L20,33z"/>
</g>
<g>
	<g>
		<path fill="#3D3C3E" d="M60,30v15c0,0.806-0.55,0.988-1,1H39c-2.943,0-2.999-3.839-3-4c0-2.935-2.393-4-4-4c-1.608,0-4,1.065-4,4
			c0,0.163-0.034,4-3,4H5.012C4.55,45.988,4,45.806,4,45V30H60 M60,29H4c-1,0-1,0.5-1,0.5V45c0,2,2,2,2,2h20c4,0,4-5,4-5
			c0-3,3-3,3-3s3,0,3,3c0,0,0,5,4,5h20c0,0,2,0,2-2V29.5C61,29.5,61,29,60,29L60,29z"/>
	</g>
</g>
<g>
	<path fill="#3D3C3E" d="M52,34c0.163,0,4,0.046,4,4c0,0.163-0.046,4-4,4h-8c-0.163,0-4-0.046-4-4c0-0.163,0.046-4,4-4H52 M52,33
		c0,0-6,0-8,0c-5,0-5,5-5,5c0,5,5,5,5,5s6,0,8,0c5,0,5-5,5-5C57,33,52,33,52,33L52,33z"/>
</g>
<path fill="none" stroke="#3D3C3E" stroke-linecap="round" stroke-linejoin="round" stroke-miterlimit="10" d="M3.5,29.5l11-14
	c0,0,1.418-2,3.5-2c2.5,0,2.5,2,2.5,2v8c0,0,0,2-2,2s-2-2-2-2v-4l-6,10"/>
</svg>
