<?xml version="1.0" encoding="utf-8"?>
<!-- Generator: Adobe Illustrator 16.0.0, SVG Export Plug-In . SVG Version: 6.00 Build 0)  -->
<!DOCTYPE svg PUBLIC "-//W3C//DTD SVG 1.1//EN" "http://www.w3.org/Graphics/SVG/1.1/DTD/svg11.dtd">
<svg version="1.1" id="Capa_1" xmlns="http://www.w3.org/2000/svg" xmlns:xlink="http://www.w3.org/1999/xlink" x="0px" y="0px"
	 width="64px" height="64px" viewBox="0 0 64 64" enable-background="new 0 0 64 64" xml:space="preserve">
<g>
	<path fill="#FAF1D8" d="M3,28c0,0,0-1,1-1h15c0,0,1,0,1,1v12c0,0,0,1-1,1S4,41,4,41s-1,0-1-1S3,28,3,28z"/>
</g>
<rect x="7" y="30" fill="#AEAEAE" width="9" height="3"/>
<g>
	<path fill="#FAF1D8" d="M22,10c0,0,0-2,2-2h33c0,0,2,0,2,2v30c0,0,0,2-2,2s-33,0-33,0s-2,0-2-2S22,10,22,10z"/>
</g>
<g>
	<path fill="#FAF1D8" d="M6,57c0,0,0,2,2,2h52c0,0,2,0,2-2s0-2,0-2l-6-12H11L6,55V57z"/>
</g>
<g>
	<path fill="#3D3C3E" d="M17.978,27c0.007,0.001,0.014,0.002,0.022,0.003l0,11.968c0,0.009-0.002,0.019-0.004,0.028L3.028,39.001
		C3.02,39,3.01,38.999,3,38.996l0-11.968C3,27.02,3.001,27.01,3.003,27H17.978 M18,26H3c-1,0-1,1-1,1s0,11,0,12s1,1,1,1s14,0,15,0
		s1-1,1-1V27C19,26,18,26,18,26L18,26z"/>
</g>
<g opacity="0.2">
	<path fill="#3D3C3E" d="M24,11c0,0,0-1,1-1h31c0,0,1,0,1,1v25c0,0,0,1-1,1s-31,0-31,0s-1,0-1-1S24,11,24,11z"/>
</g>
<rect x="6" y="55" fill="#3D3C3E" width="56" height="1"/>
<rect x="3" y="37" fill="#3D3C3E" width="15" height="1"/>
<rect x="5" y="29" fill="#3D3C3E" width="11" height="1"/>
<g>
	<path fill="#3D3C3E" d="M14,30v1H7v-1H14 M15,29H6v3h9V29L15,29z"/>
</g>
<g>
	<polygon fill="#AEAEAE" points="12,47 9,54 59,54 55,47 	"/>
</g>
<g>
	<path fill="#3D3C3E" d="M54.42,48l2.856,5h-46.76l2.143-5H54.42 M55,47H12l-3,7h50L55,47L55,47z"/>
</g>
<rect x="34" y="47" fill="#3D3C3E" width="1" height="6"/>
<rect x="26" y="48" fill="#3D3C3E" width="1" height="6"/>
<rect x="18" y="47" fill="#3D3C3E" width="1" height="6"/>
<rect x="49" y="48" fill="#3D3C3E" width="1" height="6"/>
<rect x="41" y="47" fill="#3D3C3E" width="1" height="6"/>
<polygon fill="#3D3C3E" points="56,50 11,50 11,51 57,51 "/>
<g>
	<path fill="#70B8E0" d="M27,16c0,0,0-3,3-3h21c0,0,3,0,3,3v16c0,0,0,3-3,3s-21,0-21,0s-3,0-3-3S27,16,27,16z"/>
</g>
<rect x="22" y="37" fill="#3D3C3E" width="35" height="1"/>
<g>
	<path fill="#3D3C3E" d="M55.992,8C56.453,8.013,57,8.197,57,9v29.988C56.988,39.45,56.806,40,56,40H23.012
		C22.55,39.988,22,39.806,22,39V9.012C22.012,8.55,22.195,8,23,8H55.992 M56,7H23c-2,0-2,2-2,2s0,28,0,30s2,2,2,2s31,0,33,0s2-2,2-2
		V9C58,7,56,7,56,7L56,7z"/>
</g>
<g>
	<path fill="#3D3C3E" d="M50,13c0.334,0,2,0.096,2,2v16c0,0.334-0.097,2-2,2H29c-0.334,0-2-0.096-2-2V15c0-0.334,0.096-2,2-2H50
		 M50,12H29c-3,0-3,3-3,3s0,13,0,16s3,3,3,3s18,0,21,0s3-3,3-3V15C53,12,50,12,50,12L50,12z"/>
</g>
<g>
	<path fill="#3D3C3E" d="M55.382,44L61,55.236V57c0,0.806-0.55,0.988-1,1H8c-0.805,0-0.988-0.55-1-1v-1.8L11.667,44H55.382 M56,43
		H11L6,55v2c0,0,0,2,2,2h52c0,0,2,0,2-2s0-2,0-2L56,43L56,43z"/>
</g>
<path fill="#3D3C3E" d="M16,43.5c0-0.276-0.224-0.5-0.5-0.5l0,0c-0.276,0-0.5,0.224-0.5,0.5v2c0,0.276,0.224,0.5,0.5,0.5l0,0
	c0.276,0,0.5-0.224,0.5-0.5V43.5z"/>
<path fill="#3D3C3E" d="M19,43.5c0-0.276-0.224-0.5-0.5-0.5l0,0c-0.276,0-0.5,0.224-0.5,0.5v2c0,0.276,0.224,0.5,0.5,0.5l0,0
	c0.276,0,0.5-0.224,0.5-0.5V43.5z"/>
<path fill="#3D3C3E" d="M22,43.5c0-0.276-0.224-0.5-0.5-0.5l0,0c-0.276,0-0.5,0.224-0.5,0.5v2c0,0.276,0.224,0.5,0.5,0.5l0,0
	c0.276,0,0.5-0.224,0.5-0.5V43.5z"/>
<path fill="#3D3C3E" d="M25,43.5c0-0.276-0.224-0.5-0.5-0.5l0,0c-0.276,0-0.5,0.224-0.5,0.5v2c0,0.276,0.224,0.5,0.5,0.5l0,0
	c0.276,0,0.5-0.224,0.5-0.5V43.5z"/>
<path fill="#3D3C3E" d="M28,43.5c0-0.276-0.224-0.5-0.5-0.5l0,0c-0.276,0-0.5,0.224-0.5,0.5v2c0,0.276,0.224,0.5,0.5,0.5l0,0
	c0.276,0,0.5-0.224,0.5-0.5V43.5z"/>
<path fill="#3D3C3E" d="M31,43.5c0-0.276-0.224-0.5-0.5-0.5l0,0c-0.276,0-0.5,0.224-0.5,0.5v2c0,0.276,0.224,0.5,0.5,0.5l0,0
	c0.276,0,0.5-0.224,0.5-0.5V43.5z"/>
<path fill="#3D3C3E" d="M34,43.5c0-0.276-0.224-0.5-0.5-0.5l0,0c-0.276,0-0.5,0.224-0.5,0.5v2c0,0.276,0.224,0.5,0.5,0.5l0,0
	c0.276,0,0.5-0.224,0.5-0.5V43.5z"/>
<path fill="#3D3C3E" d="M37,43.5c0-0.276-0.224-0.5-0.5-0.5l0,0c-0.276,0-0.5,0.224-0.5,0.5v2c0,0.276,0.224,0.5,0.5,0.5l0,0
	c0.276,0,0.5-0.224,0.5-0.5V43.5z"/>
<path fill="#3D3C3E" d="M40,43.5c0-0.276-0.224-0.5-0.5-0.5l0,0c-0.276,0-0.5,0.224-0.5,0.5v2c0,0.276,0.224,0.5,0.5,0.5l0,0
	c0.276,0,0.5-0.224,0.5-0.5V43.5z"/>
<path fill="#3D3C3E" d="M43,43.5c0-0.276-0.224-0.5-0.5-0.5l0,0c-0.276,0-0.5,0.224-0.5,0.5v2c0,0.276,0.224,0.5,0.5,0.5l0,0
	c0.276,0,0.5-0.224,0.5-0.5V43.5z"/>
<path fill="#3D3C3E" d="M46,43.5c0-0.276-0.224-0.5-0.5-0.5l0,0c-0.276,0-0.5,0.224-0.5,0.5v2c0,0.276,0.224,0.5,0.5,0.5l0,0
	c0.276,0,0.5-0.224,0.5-0.5V43.5z"/>
<path fill="#3D3C3E" d="M49,43.5c0-0.276-0.224-0.5-0.5-0.5l0,0c-0.276,0-0.5,0.224-0.5,0.5v2c0,0.276,0.224,0.5,0.5,0.5l0,0
	c0.276,0,0.5-0.224,0.5-0.5V43.5z"/>
<path fill="#3D3C3E" d="M52,43.5c0-0.276-0.224-0.5-0.5-0.5l0,0c-0.276,0-0.5,0.224-0.5,0.5v2c0,0.276,0.224,0.5,0.5,0.5l0,0
	c0.276,0,0.5-0.224,0.5-0.5V43.5z"/>
</svg>
