<?xml version="1.0" encoding="utf-8"?>
<!-- Generator: Adobe Illustrator 16.0.0, SVG Export Plug-In . SVG Version: 6.00 Build 0)  -->
<!DOCTYPE svg PUBLIC "-//W3C//DTD SVG 1.1//EN" "http://www.w3.org/Graphics/SVG/1.1/DTD/svg11.dtd">
<svg version="1.1" id="Capa_1" xmlns="http://www.w3.org/2000/svg" xmlns:xlink="http://www.w3.org/1999/xlink" x="0px" y="0px"
	 width="64px" height="64px" viewBox="0 0 64 64" enable-background="new 0 0 64 64" xml:space="preserve">
<g>
	<g>
		<path fill="#FAF1D8" d="M6,10c0,0,0-2,2-2h48c0,0,2,0,2,2v44c0,0,0,2-2,2H8c0,0-2,0-2-2S6,10,6,10z"/>
	</g>
</g>
<g>
	<path fill="#3D3C3E" d="M54.992,8C55.453,8.013,56,8.197,56,9v43.988C55.988,53.45,55.806,54,55,54H7.012
		C6.55,53.988,6,53.806,6,53V9.012C6.012,8.55,6.195,8,7,8H54.992 M55,7H7C5,7,5,9,5,9s0,42,0,44s2,2,2,2h48c2,0,2-2,2-2V9
		C57,7,55,7,55,7L55,7z"/>
</g>
<g opacity="0.35">
	<path fill="#707070" d="M13,14c0,0,0-2,2-2h34c0,0,2,0,2,2v22c0,0,0,2-2,2s-34,0-34,0s-2,0-2-2S13,14,13,14z"/>
</g>
<g>
	<path fill="#3D3C3E" d="M47.992,12C48.453,12.013,49,12.197,49,13v21.988C48.988,35.45,48.806,36,48,36H14.012
		C13.55,35.988,13,35.806,13,35V13.012C13.012,12.55,13.195,12,14,12H47.992 M48,11H14c-2,0-2,2-2,2s0,20,0,22s2,2,2,2s32,0,34,0
		s2-2,2-2V13C50,11,48,11,48,11L48,11z"/>
</g>
<g>
	<rect x="17" y="15" fill="#69ADA5" width="30" height="20"/>
</g>
<g>
	<path fill="#3D3C3E" d="M45,15v18H17V15H45 M46,14H16v20h30V14L46,14z"/>
</g>
<rect x="6" y="38" fill="#3D3C3E" width="50" height="1"/>
<rect x="6" y="50" fill="#3D3C3E" width="50" height="1"/>
<g>
	<circle fill="#70B8E0" cx="13" cy="45" r="4"/>
</g>
<g>
	<circle fill="#70B8E0" cx="51" cy="45" r="4"/>
</g>
<g>
	<path fill="#3D3C3E" d="M12,41c1.654,0,3,1.346,3,3s-1.346,3-3,3s-3-1.346-3-3S10.346,41,12,41 M12,40c-2.209,0-4,1.791-4,4
		s1.791,4,4,4s4-1.791,4-4S14.209,40,12,40L12,40z"/>
</g>
<g>
	<path fill="#3D3C3E" d="M50,41c1.654,0,3,1.346,3,3s-1.346,3-3,3s-3-1.346-3-3S48.346,41,50,41 M50,40c-2.209,0-4,1.791-4,4
		s1.791,4,4,4s4-1.791,4-4S52.209,40,50,40L50,40z"/>
</g>
<g opacity="0.35">
	<path fill="#707070" d="M19,44c0,0,0-2,2-2h22c0,0,2,0,2,2v3c0,0,0,2-2,2s-22,0-22,0s-2,0-2-2V44z"/>
</g>
<g>
	<path fill="#3D3C3E" d="M41.992,42C42.453,42.013,43,42.197,43,43v2.988C42.988,46.45,42.806,47,42,47H20.012
		C19.55,46.988,19,46.806,19,46v-2.988C19.012,42.55,19.195,42,20,42H41.992 M42,41H20c-2,0-2,2-2,2v3c0,2,2,2,2,2s20,0,22,0
		s2-2,2-2v-3C44,41,42,41,42,41L42,41z"/>
</g>
<rect x="22" y="43" fill="#DF5754" width="3" height="1"/>
<rect x="27" y="43" fill="#DF5754" width="3" height="1"/>
<rect x="32" y="43" fill="#DF5754" width="3" height="1"/>
<rect x="37" y="43" fill="#DF5754" width="3" height="1"/>
<rect x="22" y="45" fill="#DF5754" width="3" height="1"/>
<rect x="27" y="45" fill="#DF5754" width="3" height="1"/>
<rect x="32" y="45" fill="#DF5754" width="3" height="1"/>
<rect x="37" y="45" fill="#DF5754" width="3" height="1"/>
</svg>
