<?xml version="1.0" encoding="utf-8"?>
<!-- Generator: Adobe Illustrator 16.0.0, SVG Export Plug-In . SVG Version: 6.00 Build 0)  -->
<!DOCTYPE svg PUBLIC "-//W3C//DTD SVG 1.1//EN" "http://www.w3.org/Graphics/SVG/1.1/DTD/svg11.dtd">
<svg version="1.1" id="Capa_1" xmlns="http://www.w3.org/2000/svg" xmlns:xlink="http://www.w3.org/1999/xlink" x="0px" y="0px"
	 width="64px" height="64px" viewBox="0 0 64 64" enable-background="new 0 0 64 64" xml:space="preserve">
<g>
	<polygon fill="#D498FF" points="49,32 49,35 52,37 56,37 59,35 59,32 	"/>
</g>
<g>
	<rect x="47" y="29" fill="#D498FF" width="14" height="4"/>
</g>
<g>
	<polygon fill="#70B8E0" points="30,28 30,33 4,33 4,13 30,13 30,18 	"/>
</g>
<g>
	<rect x="26" y="17" fill="#AEAEAE" width="16" height="12"/>
</g>
<g>
	<rect x="8" y="32" fill="#707070" width="18" height="16"/>
</g>
<g>
	<path fill="#3D3C3E" d="M23,31v14H7V31H23 M24,30H6v16h18V30L24,30z"/>
</g>
<g>
	<path fill="#AEAEAE" d="M48,16h8c0,0,4,0,4,5s-4,5-4,5H45V16H48z"/>
</g>
<path fill="#70B8E0" d="M38.83,55.55C38.65,55.83,38.34,56,38,56H3c-0.34,0-0.65-0.17-0.83-0.45c-0.19-0.28-0.22-0.63-0.09-0.939
	l3-7C5.24,47.24,5.6,47,6,47h29c0.4,0,0.76,0.24,0.92,0.61l3,7C39.05,54.92,39.02,55.27,38.83,55.55z"/>
<g>
	<rect x="2" y="55" fill="#707070" width="37" height="5"/>
</g>
<path fill="#F5AD60" d="M14,39v2c0,0.08-0.01,0.16-0.03,0.24l-1,4C12.86,45.69,12.46,46,12,46h-1c-0.46,0-0.86-0.31-0.97-0.76l-1-4
	C9.01,41.16,9,41.08,9,41v-2c0-1.21,0.67-3,2.5-3S14,37.79,14,39z"/>
<path fill="#F5AD60" d="M21,39v2c0,0.08-0.01,0.16-0.03,0.24l-1,4C19.86,45.69,19.46,46,19,46h-1c-0.46,0-0.86-0.31-0.97-0.76l-1-4
	C16.01,41.16,16,41.08,16,41v-2c0-1.21,0.67-3,2.5-3S21,37.79,21,39z"/>
<rect x="11" y="45" fill="#3D3C3E" width="1" height="5"/>
<rect x="18" y="45" fill="#3D3C3E" width="1" height="5"/>
<g>
	<rect x="26" y="47" fill="#F5AD60" width="5" height="4"/>
</g>
<g>
	<g>
		<path fill="#F5AD60" d="M47.81,41.15l2.7,5.399l-3.58,1.79l-3.22-6.45c-0.32-0.64-0.27-1.399,0.13-2l4.2-6.28l3.37,2.201
			L47.81,41.15z"/>
	</g>
</g>
<g>
	<g>
		<path fill="#F5AD60" d="M62.29,41.89l-3.22,6.45l-3.58-1.79l2.7-5.41l-3.61-5.36l3.4-2.17l4.18,6.28
			C62.56,40.49,62.61,41.25,62.29,41.89z"/>
	</g>
</g>
<g>
	<path fill="#3D3C3E" d="M53,19c1.103,0,2,0.897,2,2s-0.897,2-2,2s-2-0.897-2-2S51.897,19,53,19 M53,18c-1.656,0-3,1.343-3,3
		s1.344,3,3,3s3-1.343,3-3S54.656,18,53,18L53,18z"/>
</g>
<g>
	<rect x="35" y="18" fill="#707070" width="11" height="6"/>
</g>
<g>
	<circle fill="#70B8E0" cx="55" cy="51" r="4"/>
</g>
<g>
	<path fill="#3D3C3E" d="M27,12v3h-2h-1v1v10v1h1h2v3H3V12H27 M28,11H2v20h26v-5h-3V16h3V11L28,11z"/>
</g>
<g>
	<path fill="#3D3C3E" d="M39,16v2h-3h-1v1v4v1h1h3v2H25V16H39 M40,15H24v12h16v-4h-4v-4h4V15L40,15z"/>
</g>
<g>
	<path fill="#3D3C3E" d="M56,17c0.122,0,3,0.045,3,4c0,3.834-2.701,3.995-3,4H46v-8h2H56 M56,16h-8h-3v10h11c0,0,4,0,4-5
		S56,16,56,16L56,16z"/>
</g>
<g>
	<path fill="#3D3C3E" d="M45,19v4h-9v-4H45 M46,18H35v6h11V18L46,18z"/>
</g>
<g>
	<rect x="50" y="25" fill="#707070" width="6" height="4"/>
</g>
<g>
	<path fill="#3D3C3E" d="M57,32v1.465L54.697,35h-3.395L49,33.465V32H57 M58,31H48v3l3,2h4l3-2V31L58,31z"/>
</g>
<g>
	<path fill="#3D3C3E" d="M59,29v2H47v-2H59 M60,28H46v4h14V28L60,28z"/>
</g>
<g>
	<path fill="none" stroke="#3D3C3E" stroke-miterlimit="10" d="M51,35.531l-3.77,5.576l2.611,5.222l-2.684,1.342l-3-6
		c-0.24-0.481-0.205-1.056,0.094-1.503l4.201-6.277"/>
</g>
<g>
	<path fill="none" stroke="#3D3C3E" stroke-miterlimit="10" d="M57.563,33.891l4.186,6.277c0.299,0.447,0.334,1.021,0.094,1.503
		l-3,6l-2.684-1.342l2.611-5.222L55,35.5"/>
</g>
<g>
	<path fill="#3D3C3E" d="M53,46c1.654,0,3,1.346,3,3s-1.346,3-3,3s-3-1.346-3-3S51.346,46,53,46 M53,45c-2.209,0-4,1.791-4,4
		s1.791,4,4,4s4-1.791,4-4S55.209,45,53,45L53,45z"/>
</g>
<g>
	<path fill="#3D3C3E" d="M33,46l3,7H1l3-7H33 M33,45H4c-0.4,0-0.762,0.238-0.919,0.606l-3,7c-0.133,0.309-0.101,0.663,0.084,0.944
		C0.35,53.831,0.664,54,1,54h35c0.336,0,0.649-0.169,0.835-0.449c0.185-0.281,0.217-0.636,0.084-0.944l-3-7
		C33.762,45.238,33.4,45,33,45L33,45z"/>
</g>
<g>
	<path fill="#3D3C3E" d="M55,26v2h-4v-2H55 M56,25h-6v4h6V25L56,25z"/>
</g>
<g>
	<path fill="#3D3C3E" d="M36,54v3H1v-3H36 M36,53H1c-0.552,0-1,0.447-1,1v3c0,0.553,0.448,1,1,1h35c0.553,0,1-0.447,1-1v-3
		C37,53.447,36.553,53,36,53L36,53z"/>
</g>
<g>
	<path fill="#3D3C3E" d="M30,48v2h-3v-2H30 M31,47h-5v4h5V47L31,47z"/>
</g>
<g>
	<path fill="#3D3C3E" d="M11.5,37c1.5,0,1.5,2,1.5,2v2l-1,4h-1l-1-4v-2C10,39,10,37,11.5,37 M11.5,36C9.666,36,9,37.794,9,39v2
		c0,0.082,0.01,0.163,0.03,0.242l1,4C10.141,45.688,10.541,46,11,46h1c0.459,0,0.859-0.313,0.97-0.758l1-4
		C13.99,41.163,14,41.082,14,41v-2C14,37.794,13.334,36,11.5,36L11.5,36z"/>
</g>
<g>
	<path fill="#3D3C3E" d="M18.5,37c1.5,0,1.5,2,1.5,2v2l-1,4h-1l-1-4v-2C17,39,17,37,18.5,37 M18.5,36c-1.834,0-2.5,1.794-2.5,3v2
		c0,0.082,0.01,0.163,0.03,0.242l1,4C17.141,45.688,17.541,46,18,46h1c0.459,0,0.859-0.313,0.97-0.758l1-4
		C20.99,41.163,21,41.082,21,41v-2C21,37.794,20.334,36,18.5,36L18.5,36z"/>
</g>
<path fill="none" stroke="#3D3C3E" stroke-miterlimit="10" d="M12.5,11.5c0,0,0-7,12-7c8,0,18,0,18,14"/>
</svg>
