<?xml version="1.0" encoding="utf-8"?>
<!-- Generator: Adobe Illustrator 16.0.0, SVG Export Plug-In . SVG Version: 6.00 Build 0)  -->
<!DOCTYPE svg PUBLIC "-//W3C//DTD SVG 1.1//EN" "http://www.w3.org/Graphics/SVG/1.1/DTD/svg11.dtd">
<svg version="1.1" id="Capa_1" xmlns="http://www.w3.org/2000/svg" xmlns:xlink="http://www.w3.org/1999/xlink" x="0px" y="0px"
	 width="64px" height="64px" viewBox="0 0 64 64" enable-background="new 0 0 64 64" xml:space="preserve">
<g>
	<g>
		<path fill="#AFAFAF" d="M63.997,34.01c0.01,0.29,0.131,7.73-3.279,11.221c-1.15,1.17-2.57,1.77-4.221,1.77c-5.969,0-13-1-13.07-1
			H20.527c-0.62,0.12-5.42,1-11.03,1c-1.65,0-3.07-0.6-4.22-1.77c-3.41-3.49-3.29-10.931-3.28-11.24
			c-0.01-0.29-0.13-7.73,3.28-11.22C6.428,21.6,7.848,21,9.498,21c5.61,0,10.41,0.88,11.03,1h22.899c0.07,0,7.102-1,13.07-1
			c1.65,0,3.07,0.6,4.221,1.77C64.128,26.26,64.007,33.7,63.997,34.01z"/>
	</g>
	<rect x="25" y="37" fill="#707070" width="14" height="2"/>
	<rect x="25" y="25" fill="#707070" width="14" height="1"/>
	<rect x="25" y="28" fill="#70B8E0" width="14" height="9"/>
	<path fill="#3D3C3E" d="M47,30.5c0-0.276-0.224-0.5-0.5-0.5h-2c-0.276,0-0.5,0.224-0.5,0.5l0,0c0,0.276,0.224,0.5,0.5,0.5h2
		C46.776,31,47,30.776,47,30.5L47,30.5z"/>
	<path fill="#3D3C3E" d="M47,32.5c0-0.276-0.224-0.5-0.5-0.5h-2c-0.276,0-0.5,0.224-0.5,0.5l0,0c0,0.276,0.224,0.5,0.5,0.5h2
		C46.776,33,47,32.776,47,32.5L47,32.5z"/>
	<path fill="#3D3C3E" d="M47,34.5c0-0.276-0.224-0.5-0.5-0.5h-2c-0.276,0-0.5,0.224-0.5,0.5l0,0c0,0.276,0.224,0.5,0.5,0.5h2
		C46.776,35,47,34.776,47,34.5L47,34.5z"/>
	<g>
		<path fill="#3D3C3E" d="M42,23v18H18V23H42 M43,22H17v20h26V22L43,22z"/>
	</g>
	<path fill="#3D3C3E" d="M22,30.5c0-0.276-0.224-0.5-0.5-0.5h-2c-0.276,0-0.5,0.224-0.5,0.5l0,0c0,0.276,0.224,0.5,0.5,0.5h2
		C21.776,31,22,30.776,22,30.5L22,30.5z"/>
	<path fill="#3D3C3E" d="M22,32.5c0-0.276-0.224-0.5-0.5-0.5h-2c-0.276,0-0.5,0.224-0.5,0.5l0,0c0,0.276,0.224,0.5,0.5,0.5h2
		C21.776,33,22,32.776,22,32.5L22,32.5z"/>
	<g>
		<path fill="#3D3C3E" d="M38,25v14H24V25H38 M39,24H23v16h16V24L39,24z"/>
	</g>
	<rect x="24" y="26" fill="#3D3C3E" width="14" height="1"/>
	<rect x="24" y="36" fill="#3D3C3E" width="14" height="1"/>
	<g>
		<circle fill="#707070" cx="53" cy="27" r="2"/>
	</g>
	<g>
		<circle fill="#707070" cx="58" cy="25" r="2"/>
	</g>
	<g>
		<circle fill="#707070" cx="53" cy="40" r="2"/>
	</g>
	<g>
		<circle fill="#707070" cx="58" cy="41" r="2"/>
	</g>
	<circle fill="#3D3C3E" cx="51.5" cy="29.5" r="0.5"/>
	<circle fill="#3D3C3E" cx="53.5" cy="29.5" r="0.5"/>
	<circle fill="#3D3C3E" cx="55.5" cy="29.5" r="0.5"/>
	<circle fill="#3D3C3E" cx="57.5" cy="29.5" r="0.5"/>
	<circle fill="#3D3C3E" cx="51.5" cy="31.5" r="0.5"/>
	<circle fill="#3D3C3E" cx="53.5" cy="31.5" r="0.5"/>
	<circle fill="#3D3C3E" cx="55.5" cy="31.5" r="0.5"/>
	<circle fill="#3D3C3E" cx="57.5" cy="31.5" r="0.5"/>
	<circle fill="#3D3C3E" cx="51.5" cy="33.5" r="0.5"/>
	<circle fill="#3D3C3E" cx="53.5" cy="33.5" r="0.5"/>
	<circle fill="#3D3C3E" cx="55.5" cy="33.5" r="0.5"/>
	<circle fill="#3D3C3E" cx="57.5" cy="33.5" r="0.5"/>
	<circle fill="#3D3C3E" cx="51.5" cy="35.5" r="0.5"/>
	<circle fill="#3D3C3E" cx="53.5" cy="35.5" r="0.5"/>
	<circle fill="#3D3C3E" cx="55.5" cy="35.5" r="0.5"/>
	<circle fill="#3D3C3E" cx="57.5" cy="35.5" r="0.5"/>
	<g>
		<path fill="#3D3C3E" d="M48,21v22H14V21H48 M49,20H13v24h36V20L49,20z"/>
	</g>
	<path fill="none" stroke="#3D3C3E" stroke-miterlimit="10" d="M18.501,43.5c0,0-5,1-11,1c-7.28,0-7-12.5-7-12.5s-0.28-12.5,7-12.5
		c6,0,11,1,11,1"/>
	<path fill="none" stroke="#3D3C3E" stroke-miterlimit="10" d="M41.5,43.5c0,0,7,1,13,1c7.281,0,7-12.5,7-12.5s0.281-12.5-7-12.5
		c-6,0-13,1-13,1"/>
	<g>
		<circle fill="#707070" cx="10.5" cy="33.5" r="5.5"/>
	</g>
	<g>
		<path fill="#3D3C3E" d="M9.5,28c2.481,0,4.5,2.019,4.5,4.5S11.981,37,9.5,37S5,34.981,5,32.5S7.019,28,9.5,28 M9.5,27
			C6.463,27,4,29.463,4,32.5C4,35.538,6.463,38,9.5,38s5.5-2.462,5.5-5.5C15,29.463,12.537,27,9.5,27L9.5,27z"/>
	</g>
	<rect x="9" y="30" fill="#3D3C3E" width="1" height="5"/>
	<rect x="7" y="32" fill="#3D3C3E" width="5" height="1"/>
	<rect x="20" y="20" fill="#3D3C3E" width="1" height="3"/>
	<rect x="39" y="20" fill="#3D3C3E" width="1" height="3"/>
	<rect x="20" y="41" fill="#3D3C3E" width="1" height="3"/>
	<rect x="39" y="41" fill="#3D3C3E" width="1" height="3"/>
</g>
<g>
	<path fill="#3D3C3E" d="M57,23c0.552,0,1,0.449,1,1s-0.448,1-1,1s-1-0.449-1-1S56.448,23,57,23 M57,22c-1.104,0-2,0.896-2,2
		s0.896,2,2,2s2-0.896,2-2S58.104,22,57,22L57,22z"/>
</g>
<g>
	<path fill="#3D3C3E" d="M52,38c0.552,0,1,0.448,1,1s-0.448,1-1,1s-1-0.448-1-1S51.448,38,52,38 M52,37c-1.104,0-2,0.896-2,2
		s0.896,2,2,2s2-0.896,2-2S53.104,37,52,37L52,37z"/>
</g>
<g>
	<path fill="#3D3C3E" d="M57,39c0.552,0,1,0.448,1,1s-0.448,1-1,1s-1-0.448-1-1S56.448,39,57,39 M57,38c-1.104,0-2,0.896-2,2
		s0.896,2,2,2s2-0.896,2-2S58.104,38,57,38L57,38z"/>
</g>
<g>
	<path fill="#3D3C3E" d="M52,25c0.552,0,1,0.449,1,1s-0.448,1-1,1s-1-0.449-1-1S51.448,25,52,25 M52,24c-1.104,0-2,0.896-2,2
		s0.896,2,2,2s2-0.896,2-2S53.104,24,52,24L52,24z"/>
</g>
</svg>
