<?xml version="1.0" encoding="utf-8"?>
<!-- Generator: Adobe Illustrator 16.0.0, SVG Export Plug-In . SVG Version: 6.00 Build 0)  -->
<!DOCTYPE svg PUBLIC "-//W3C//DTD SVG 1.1//EN" "http://www.w3.org/Graphics/SVG/1.1/DTD/svg11.dtd">
<svg version="1.1" id="Capa_1" xmlns="http://www.w3.org/2000/svg" xmlns:xlink="http://www.w3.org/1999/xlink" x="0px" y="0px"
	 width="64px" height="64px" viewBox="0 0 64 64" enable-background="new 0 0 64 64" xml:space="preserve">
<g>
	<path fill="#707070" d="M60,14H6c-3,0-3,3-3,3v33c0,3,3,3,3,3h54c3,0,3-3,3-3V17C63,14,60,14,60,14z M16,32c0-2.21,1.79-4,4-4
		s4,1.79,4,4s-1.79,4-4,4S16,34.21,16,32z M42,32c0-2.21,1.79-4,4-4s4,1.79,4,4s-1.79,4-4,4S42,34.21,42,32z"/>
</g>
<g>
	<g>
		<path fill="#FAF1D8" d="M58,18H8c-2,0-2,2-2,2v19c0,2,2,2,2,2h50c2,0,2-2,2-2V20C60,18,58,18,58,18z M46,36c-2.21,0-4-1.79-4-4
			s1.79-4,4-4s4,1.79,4,4S48.21,36,46,36z M20,36c-2.21,0-4-1.79-4-4s1.79-4,4-4s4,1.79,4,4S22.21,36,20,36z"/>
	</g>
</g>
<g>
	<g>
		<path fill="#AEAEAE" d="M5,26.063v12h54v-12H5z M19,36.063c-2.21,0-4-1.79-4-4s1.79-4,4-4s4,1.79,4,4S21.21,36.063,19,36.063z
			 M45,36.063c-2.21,0-4-1.79-4-4s1.79-4,4-4s4,1.79,4,4S47.21,36.063,45,36.063z"/>
	</g>
</g>
<path fill="#C99D67" d="M33.672,35l-0.211-0.717C33.155,33.246,33,32.142,33,31c0-1.901,0.453-3.788,1.311-5.457L34.59,25H40v10
	H33.672z"/>
<path fill="#C99D67" d="M24,35V25h5.41l0.279,0.543C30.547,27.212,31,29.099,31,31c0,1.142-0.155,2.246-0.461,3.283L30.328,35H24z"
	/>
<g>
	<polygon fill="#AEAEAE" points="52,52 52,53 14,53 14,52 17,43 49,43 	"/>
</g>
<g>
	<path fill="#3D3C3E" d="M59,14c0.334,0,2,0.096,2,2v33c0,0.334-0.097,2-2,2H5c-0.334,0-2-0.097-2-2V16c0-0.334,0.096-2,2-2H59
		 M59,13H5c-3,0-3,3-3,3v33c0,3,3,3,3,3h54c3,0,3-3,3-3V16C62,13,59,13,59,13L59,13z"/>
</g>
<g>
	<g>
		<path fill="#3D3C3E" d="M56.992,18C57.453,18.013,58,18.197,58,19v18.988C57.988,38.45,57.806,39,57,39H7.012
			C6.55,38.988,6,38.806,6,38V19.012C6.012,18.55,6.195,18,7,18H56.992 M57,17H7c-2,0-2,2-2,2v19c0,2,2,2,2,2h50c2,0,2-2,2-2V19
			C59,17,57,17,57,17L57,17z"/>
	</g>
</g>
<g>
	<g>
		<path fill="#3D3C3E" d="M58,26v10H6V26H58 M59,25H5v12h54V25L59,25z"/>
	</g>
</g>
<g>
	<g>
		<path fill="#707070" d="M13,25v12h12V25H13z M19,35c-2.21,0-4-1.79-4-4s1.79-4,4-4s4,1.79,4,4S21.21,35,19,35z"/>
	</g>
</g>
<rect x="15" y="22" fill="#3D3C3E" width="41" height="1"/>
<rect x="15" y="20" fill="#3D3C3E" width="41" height="1"/>
<rect x="34.25" y="64" fill="#1D1D1B" width="0.333" height="0"/>
<path fill="#3D3C3E" d="M29.92,26H28.8c0.77,1.5,1.2,3.2,1.2,5c0,1.04-0.14,2.05-0.42,3h1.04c0.25-0.96,0.38-1.96,0.38-3
	C31,29.21,30.61,27.52,29.92,26z"/>
<path fill="#3D3C3E" d="M34.08,26C33.39,27.52,33,29.21,33,31c0,1.04,0.13,2.04,0.38,3h1.04C34.14,33.05,34,32.04,34,31
	c0-1.8,0.43-3.5,1.2-5H34.08z"/>
<g>
	<g>
		<path fill="#707070" d="M39,25v12h12V25H39z M45,35c-2.21,0-4-1.79-4-4s1.79-4,4-4s4,1.79,4,4S47.21,35,45,35z"/>
	</g>
</g>
<g>
	<g>
		<path fill="#3D3C3E" d="M24,26v10H14V26H24 M25,25H13v12h12V25L25,25z"/>
	</g>
</g>
<g>
	<g>
		<path fill="#3D3C3E" d="M50,26v10H40V26H50 M51,25H39v12h12V25L51,25z"/>
	</g>
</g>
<rect x="25" y="34" fill="#3D3C3E" width="15" height="1"/>
<g>
	<g>
		<path fill="#3D3C3E" d="M32,45c0.551,0,1,0.448,1,1s-0.449,1-1,1s-1-0.448-1-1S31.449,45,32,45 M32,44c-1.104,0-2,0.896-2,2
			s0.896,2,2,2s2-0.896,2-2S33.104,44,32,44L32,44z"/>
	</g>
</g>
<g>
	<g>
		<path fill="#3D3C3E" d="M12,20v3H9v-3H12 M13,19H8v5h5V19L13,19z"/>
	</g>
</g>
<g>
	<g>
		<path fill="#3D3C3E" d="M19,28c1.654,0,3,1.346,3,3s-1.346,3-3,3s-3-1.346-3-3S17.346,28,19,28 M19,27c-2.209,0-4,1.791-4,4
			s1.791,4,4,4s4-1.791,4-4S21.209,27,19,27L19,27z"/>
	</g>
</g>
<g>
	<g>
		<path fill="#3D3C3E" d="M45,28c1.654,0,3,1.346,3,3s-1.346,3-3,3s-3-1.346-3-3S43.346,28,45,28 M45,27c-2.209,0-4,1.791-4,4
			s1.791,4,4,4s4-1.791,4-4S47.209,27,45,27L45,27z"/>
	</g>
</g>
<g>
	<g>
		<path fill="#3D3C3E" d="M47.279,43l2.667,8H14.054l2.667-8H47.279 M48,42H16l-3,9v1h38v-1L48,42L48,42z"/>
	</g>
</g>
</svg>
