<?xml version="1.0" encoding="utf-8"?>
<!-- Generator: Adobe Illustrator 16.0.0, SVG Export Plug-In . SVG Version: 6.00 Build 0)  -->
<!DOCTYPE svg PUBLIC "-//W3C//DTD SVG 1.1//EN" "http://www.w3.org/Graphics/SVG/1.1/DTD/svg11.dtd">
<svg version="1.1" id="Capa_1" xmlns="http://www.w3.org/2000/svg" xmlns:xlink="http://www.w3.org/1999/xlink" x="0px" y="0px"
	 width="64px" height="64px" viewBox="0 0 64 64" enable-background="new 0 0 64 64" xml:space="preserve">
<g>
	<path fill="#AEAEAE" d="M3,23c0,0,0-2,2-2h56c0,0,2,0,2,2v14.938H3V23z"/>
</g>
<g>
	<rect x="37" y="21" fill="#FAF1D8" width="3" height="6"/>
</g>
<g>
	<rect x="41" y="21" fill="#FAF1D8" width="3" height="6"/>
</g>
<rect x="39" y="20" fill="#DF5754" width="5" height="7"/>
<g>
	<path fill="#AEAEAE" d="M63,42.938c0,0,0,2-2,2H5c0,0-2,0-2-2V39h60V42.938z"/>
</g>
<g>
	<polygon fill="#707070" points="5,44 6,48 60,48 61,44 	"/>
</g>
<g>
	<rect x="13" y="20" fill="#707070" width="11" height="17"/>
</g>
<circle fill="#5FDB76" cx="8" cy="23" r="1"/>
<circle fill="#DF5754" cx="8" cy="34" r="1"/>
<g>
	<rect x="3" y="37" fill="#707070" width="60" height="3"/>
</g>
<g>
	<rect x="27" y="21" fill="#FAF1D8" width="4" height="4"/>
</g>
<g>
	<rect x="33" y="21" fill="#FAF1D8" width="3" height="6"/>
</g>
<g>
	<rect x="45" y="21" fill="#FAF1D8" width="3" height="6"/>
</g>
<g>
	<path fill="#3D3C3E" d="M29,21v2h-2v-2H29 M30,20h-4v4h4V20L30,20z"/>
</g>
<g>
	<path fill="#3D3C3E" d="M34,21v4h-1v-4H34 M35,20h-3v6h3V20L35,20z"/>
</g>
<g>
	<path fill="#3D3C3E" d="M38,21v4h-1v-4H38 M39,20h-3v6h3V20L39,20z"/>
</g>
<g>
	<path fill="#3D3C3E" d="M42,21v4h-1v-4H42 M43,20h-3v6h3V20L43,20z"/>
</g>
<g>
	<path fill="#3D3C3E" d="M46,21v4h-1v-4H46 M47,20h-3v6h3V20L47,20z"/>
</g>
<g>
	<rect x="52" y="25" fill="#707070" width="8" height="6"/>
</g>
<g>
	<path fill="#3D3C3E" d="M58,25v4h-6v-4H58 M59,24h-8v6h8V24L59,24z"/>
</g>
<path fill="#3D3C3E" d="M57,31.5c0-0.276,0.224-0.5,0.5-0.5h1c0.276,0,0.5,0.224,0.5,0.5l0,0c0,0.276-0.224,0.5-0.5,0.5h-1
	C57.224,32,57,31.776,57,31.5L57,31.5z"/>
<path fill="#3D3C3E" d="M54,31.5c0-0.276,0.224-0.5,0.5-0.5h1c0.276,0,0.5,0.224,0.5,0.5l0,0c0,0.276-0.224,0.5-0.5,0.5h-1
	C54.224,32,54,31.776,54,31.5L54,31.5z"/>
<path fill="#3D3C3E" d="M51,31.5c0-0.276,0.224-0.5,0.5-0.5h1c0.276,0,0.5,0.224,0.5,0.5l0,0c0,0.276-0.224,0.5-0.5,0.5h-1
	C51.224,32,51,31.776,51,31.5L51,31.5z"/>
<path fill="#3D3C3E" d="M48,31.5c0-0.276,0.224-0.5,0.5-0.5h1c0.276,0,0.5,0.224,0.5,0.5l0,0c0,0.276-0.224,0.5-0.5,0.5h-1
	C48.224,32,48,31.776,48,31.5L48,31.5z"/>
<path fill="#3D3C3E" d="M57,33.5c0-0.276,0.224-0.5,0.5-0.5h1c0.276,0,0.5,0.224,0.5,0.5l0,0c0,0.276-0.224,0.5-0.5,0.5h-1
	C57.224,34,57,33.776,57,33.5L57,33.5z"/>
<path fill="#3D3C3E" d="M54,33.5c0-0.276,0.224-0.5,0.5-0.5h1c0.276,0,0.5,0.224,0.5,0.5l0,0c0,0.276-0.224,0.5-0.5,0.5h-1
	C54.224,34,54,33.776,54,33.5L54,33.5z"/>
<path fill="#3D3C3E" d="M51,33.5c0-0.276,0.224-0.5,0.5-0.5h1c0.276,0,0.5,0.224,0.5,0.5l0,0c0,0.276-0.224,0.5-0.5,0.5h-1
	C51.224,34,51,33.776,51,33.5L51,33.5z"/>
<path fill="#3D3C3E" d="M48,33.5c0-0.276,0.224-0.5,0.5-0.5h1c0.276,0,0.5,0.224,0.5,0.5l0,0c0,0.276-0.224,0.5-0.5,0.5h-1
	C48.224,34,48,33.776,48,33.5L48,33.5z"/>
<path fill="#FAF1D8" d="M13,27.5c0,0.83-0.67,1.5-1.5,1.5h-5C5.67,29,5,28.33,5,27.5S5.67,26,6.5,26h5C12.33,26,13,26.67,13,27.5z"
	/>
<path fill="#FAF1D8" d="M13,31.5c0,0.83-0.67,1.5-1.5,1.5h-5C5.67,33,5,32.33,5,31.5S5.67,30,6.5,30h5C12.33,30,13,30.67,13,31.5z"
	/>
<rect x="40" y="38" fill="#3D3C3E" width="1" height="6"/>
<rect x="53" y="38" fill="#3D3C3E" width="1" height="6"/>
<g>
	<path fill="#3D3C3E" d="M59.992,21C60.453,21.013,61,21.197,61,22v13.938H3V22.012C3.012,21.55,3.195,21,4,21H59.992 M60,20H4
		c-2,0-2,2-2,2v14.938h60V22C62,20,60,20,60,20L60,20z"/>
</g>
<g>
	<path fill="#3D3C3E" d="M23,21v15h-9V21H23 M24,20H13v17h11V20L24,20z"/>
</g>
<g>
	<path fill="#3D3C3E" d="M61,37v1H3v-1H61 M62,36H2v3h60V36L62,36z"/>
</g>
<g>
	<path fill="#3D3C3E" d="M61,39v2.926c-0.012,0.462-0.194,1.012-1,1.012H4.012C3.55,42.926,3,42.743,3,41.938V39H61 M62,38H2v3.938
		c0,2,2,2,2,2h56c2,0,2-2,2-2V38L62,38z"/>
</g>
<g>
	<path fill="#3D3C3E" d="M58.719,44l-0.5,2H5.781l-0.5-2H58.719 M60,43H4l1,4h54L60,43L60,43z"/>
</g>
<g>
	<path fill="#3D3C3E" d="M10.5,26c0.276,0,0.5,0.224,0.5,0.5S10.776,27,10.5,27h-5C5.224,27,5,26.776,5,26.5S5.224,26,5.5,26H10.5
		 M10.5,25h-5C4.673,25,4,25.673,4,26.5S4.673,28,5.5,28h5c0.827,0,1.5-0.673,1.5-1.5S11.327,25,10.5,25L10.5,25z"/>
</g>
<g>
	<path fill="#3D3C3E" d="M10.5,30c0.276,0,0.5,0.224,0.5,0.5S10.776,31,10.5,31h-5C5.224,31,5,30.776,5,30.5S5.224,30,5.5,30H10.5
		 M10.5,29h-5C4.673,29,4,29.673,4,30.5S4.673,32,5.5,32h5c0.827,0,1.5-0.673,1.5-1.5S11.327,29,10.5,29L10.5,29z"/>
</g>
</svg>
