<?xml version="1.0" encoding="utf-8"?>
<!-- Generator: Adobe Illustrator 16.0.0, SVG Export Plug-In . SVG Version: 6.00 Build 0)  -->
<!DOCTYPE svg PUBLIC "-//W3C//DTD SVG 1.1//EN" "http://www.w3.org/Graphics/SVG/1.1/DTD/svg11.dtd">
<svg version="1.1" id="Capa_1" xmlns="http://www.w3.org/2000/svg" xmlns:xlink="http://www.w3.org/1999/xlink" x="0px" y="0px"
	 width="64px" height="64px" viewBox="0 0 64 64" enable-background="new 0 0 64 64" xml:space="preserve">
<g>
	<path fill="#AEAEAE" d="M18,7c0,0,0-2,2-2h29c0,0,2,0,2,2v51c0,0,0,4-4,4H22c0,0-4,0-4-4V7z"/>
</g>
<g>
	<rect x="20" y="10" fill="#707070" width="27" height="10"/>
</g>
<g>
	<path fill="#3D3C3E" d="M45,10v8H20v-8H45 M46,9H19v10h27V9L46,9z"/>
</g>
<g>
	<rect x="21" y="11" fill="#FAF1D8" width="23" height="6"/>
</g>
<g>
	<circle fill="#5FDB76" cx="21.5" cy="31.5" r="2.5"/>
</g>
<g>
	<circle fill="#5FDB76" cx="27.5" cy="31.5" r="2.5"/>
</g>
<g>
	<circle fill="#5FDB76" cx="33.5" cy="31.5" r="2.5"/>
</g>
<g>
	<circle fill="#5FDB76" cx="39.5" cy="31.5" r="2.5"/>
</g>
<g>
	<circle fill="#5FDB76" cx="45.5" cy="31.5" r="2.5"/>
</g>
<g>
	<circle fill="#C99D67" cx="21.456" cy="37.544" r="2.5"/>
</g>
<g>
	<circle fill="#707070" cx="27.456" cy="37.544" r="2.5"/>
</g>
<g>
	<circle fill="#707070" cx="33.456" cy="37.544" r="2.5"/>
</g>
<g>
	<circle fill="#707070" cx="39.456" cy="37.544" r="2.5"/>
</g>
<g>
	<circle fill="#C99D67" cx="45.456" cy="37.544" r="2.5"/>
</g>
<g>
	<circle fill="#C99D67" cx="21.456" cy="43.544" r="2.5"/>
</g>
<g>
	<circle fill="#707070" cx="27.456" cy="43.544" r="2.5"/>
</g>
<g>
	<circle fill="#707070" cx="33.456" cy="43.544" r="2.5"/>
</g>
<g>
	<circle fill="#707070" cx="39.456" cy="43.544" r="2.5"/>
</g>
<g>
	<circle fill="#C99D67" cx="45.456" cy="43.544" r="2.5"/>
</g>
<g>
	<circle fill="#C99D67" cx="21.456" cy="49.544" r="2.5"/>
</g>
<g>
	<circle fill="#707070" cx="27.456" cy="49.544" r="2.5"/>
</g>
<g>
	<circle fill="#707070" cx="33.456" cy="49.544" r="2.5"/>
</g>
<g>
	<circle fill="#707070" cx="39.456" cy="49.544" r="2.5"/>
</g>
<g>
	<circle fill="#C99D67" cx="45.456" cy="49.544" r="2.5"/>
</g>
<g>
	<circle fill="#C99D67" cx="21.456" cy="55.544" r="2.5"/>
</g>
<g>
	<circle fill="#707070" cx="27.456" cy="55.544" r="2.5"/>
</g>
<g>
	<circle fill="#C99D67" cx="33.456" cy="55.544" r="2.5"/>
</g>
<g>
	<circle fill="#F7EE7A" cx="39.456" cy="55.544" r="2.5"/>
</g>
<g>
	<circle fill="#C99D67" cx="45.456" cy="55.544" r="2.5"/>
</g>
<g>
	<circle fill="#5FDB76" cx="21" cy="23" r="2"/>
</g>
<g>
	<circle fill="#DF5754" cx="26" cy="23" r="2"/>
</g>
<g>
	<path fill="#3D3C3E" d="M21,22c0.551,0,1,0.449,1,1s-0.449,1-1,1s-1-0.449-1-1S20.449,22,21,22 M21,21c-1.104,0-2,0.896-2,2
		s0.896,2,2,2s2-0.896,2-2S22.104,21,21,21L21,21z"/>
</g>
<g>
	<path fill="#3D3C3E" d="M26,22c0.551,0,1,0.449,1,1s-0.449,1-1,1s-1-0.449-1-1S25.449,22,26,22 M26,21c-1.104,0-2,0.896-2,2
		s0.896,2,2,2s2-0.896,2-2S27.104,21,26,21L26,21z"/>
</g>
<g>
	<path fill="#3D3C3E" d="M46.992,4C47.453,4.013,48,4.197,48,5v50.994C47.994,56.496,47.823,59,45,59H20.005
		C19.503,58.994,17,58.823,17,56V5.012C17.012,4.55,17.195,4,18,4H46.992 M47,3H18c-2,0-2,2-2,2v51c0,4,4,4,4,4h25c4,0,4-4,4-4V5
		C49,3,47,3,47,3L47,3z"/>
</g>
<g>
	<path fill="#3D3C3E" d="M43,12v4H22v-4H43 M44,11H21v6h23V11L44,11z"/>
</g>
<g>
	<path fill="#3D3C3E" d="M20.5,29c0.827,0,1.5,0.673,1.5,1.5S21.327,32,20.5,32S19,31.327,19,30.5S19.673,29,20.5,29 M20.5,28
		c-1.381,0-2.5,1.119-2.5,2.5s1.119,2.5,2.5,2.5s2.5-1.119,2.5-2.5S21.881,28,20.5,28L20.5,28z"/>
</g>
<g>
	<path fill="#3D3C3E" d="M26.5,29c0.827,0,1.5,0.673,1.5,1.5S27.327,32,26.5,32S25,31.327,25,30.5S25.673,29,26.5,29 M26.5,28
		c-1.381,0-2.5,1.119-2.5,2.5s1.119,2.5,2.5,2.5s2.5-1.119,2.5-2.5S27.881,28,26.5,28L26.5,28z"/>
</g>
<g>
	<path fill="#3D3C3E" d="M32.5,29c0.827,0,1.5,0.673,1.5,1.5S33.327,32,32.5,32S31,31.327,31,30.5S31.673,29,32.5,29 M32.5,28
		c-1.381,0-2.5,1.119-2.5,2.5s1.119,2.5,2.5,2.5s2.5-1.119,2.5-2.5S33.881,28,32.5,28L32.5,28z"/>
</g>
<g>
	<path fill="#3D3C3E" d="M38.5,29c0.827,0,1.5,0.673,1.5,1.5S39.327,32,38.5,32S37,31.327,37,30.5S37.673,29,38.5,29 M38.5,28
		c-1.381,0-2.5,1.119-2.5,2.5s1.119,2.5,2.5,2.5s2.5-1.119,2.5-2.5S39.881,28,38.5,28L38.5,28z"/>
</g>
<g>
	<path fill="#3D3C3E" d="M44.5,29c0.827,0,1.5,0.673,1.5,1.5S45.327,32,44.5,32S43,31.327,43,30.5S43.673,29,44.5,29 M44.5,28
		c-1.381,0-2.5,1.119-2.5,2.5s1.119,2.5,2.5,2.5s2.5-1.119,2.5-2.5S45.881,28,44.5,28L44.5,28z"/>
</g>
<g>
	<path fill="#3D3C3E" d="M20.5,35c0.827,0,1.5,0.673,1.5,1.5S21.327,38,20.5,38S19,37.327,19,36.5S19.673,35,20.5,35 M20.5,34
		c-1.381,0-2.5,1.119-2.5,2.5s1.119,2.5,2.5,2.5s2.5-1.119,2.5-2.5S21.881,34,20.5,34L20.5,34z"/>
</g>
<g>
	<path fill="#3D3C3E" d="M26.5,35c0.827,0,1.5,0.673,1.5,1.5S27.327,38,26.5,38S25,37.327,25,36.5S25.673,35,26.5,35 M26.5,34
		c-1.381,0-2.5,1.119-2.5,2.5s1.119,2.5,2.5,2.5s2.5-1.119,2.5-2.5S27.881,34,26.5,34L26.5,34z"/>
</g>
<g>
	<path fill="#3D3C3E" d="M32.5,35c0.827,0,1.5,0.673,1.5,1.5S33.327,38,32.5,38S31,37.327,31,36.5S31.673,35,32.5,35 M32.5,34
		c-1.381,0-2.5,1.119-2.5,2.5s1.119,2.5,2.5,2.5s2.5-1.119,2.5-2.5S33.881,34,32.5,34L32.5,34z"/>
</g>
<g>
	<path fill="#3D3C3E" d="M38.5,35c0.827,0,1.5,0.673,1.5,1.5S39.327,38,38.5,38S37,37.327,37,36.5S37.673,35,38.5,35 M38.5,34
		c-1.381,0-2.5,1.119-2.5,2.5s1.119,2.5,2.5,2.5s2.5-1.119,2.5-2.5S39.881,34,38.5,34L38.5,34z"/>
</g>
<g>
	<path fill="#3D3C3E" d="M44.5,35c0.827,0,1.5,0.673,1.5,1.5S45.327,38,44.5,38S43,37.327,43,36.5S43.673,35,44.5,35 M44.5,34
		c-1.381,0-2.5,1.119-2.5,2.5s1.119,2.5,2.5,2.5s2.5-1.119,2.5-2.5S45.881,34,44.5,34L44.5,34z"/>
</g>
<g>
	<path fill="#3D3C3E" d="M20.5,41c0.827,0,1.5,0.673,1.5,1.5S21.327,44,20.5,44S19,43.327,19,42.5S19.673,41,20.5,41 M20.5,40
		c-1.381,0-2.5,1.119-2.5,2.5s1.119,2.5,2.5,2.5s2.5-1.119,2.5-2.5S21.881,40,20.5,40L20.5,40z"/>
</g>
<g>
	<path fill="#3D3C3E" d="M26.5,41c0.827,0,1.5,0.673,1.5,1.5S27.327,44,26.5,44S25,43.327,25,42.5S25.673,41,26.5,41 M26.5,40
		c-1.381,0-2.5,1.119-2.5,2.5s1.119,2.5,2.5,2.5s2.5-1.119,2.5-2.5S27.881,40,26.5,40L26.5,40z"/>
</g>
<g>
	<path fill="#3D3C3E" d="M32.5,41c0.827,0,1.5,0.673,1.5,1.5S33.327,44,32.5,44S31,43.327,31,42.5S31.673,41,32.5,41 M32.5,40
		c-1.381,0-2.5,1.119-2.5,2.5s1.119,2.5,2.5,2.5s2.5-1.119,2.5-2.5S33.881,40,32.5,40L32.5,40z"/>
</g>
<g>
	<path fill="#3D3C3E" d="M38.5,41c0.827,0,1.5,0.673,1.5,1.5S39.327,44,38.5,44S37,43.327,37,42.5S37.673,41,38.5,41 M38.5,40
		c-1.381,0-2.5,1.119-2.5,2.5s1.119,2.5,2.5,2.5s2.5-1.119,2.5-2.5S39.881,40,38.5,40L38.5,40z"/>
</g>
<g>
	<path fill="#3D3C3E" d="M44.5,41c0.827,0,1.5,0.673,1.5,1.5S45.327,44,44.5,44S43,43.327,43,42.5S43.673,41,44.5,41 M44.5,40
		c-1.381,0-2.5,1.119-2.5,2.5s1.119,2.5,2.5,2.5s2.5-1.119,2.5-2.5S45.881,40,44.5,40L44.5,40z"/>
</g>
<g>
	<path fill="#3D3C3E" d="M20.5,47c0.827,0,1.5,0.673,1.5,1.5S21.327,50,20.5,50S19,49.327,19,48.5S19.673,47,20.5,47 M20.5,46
		c-1.381,0-2.5,1.119-2.5,2.5s1.119,2.5,2.5,2.5s2.5-1.119,2.5-2.5S21.881,46,20.5,46L20.5,46z"/>
</g>
<g>
	<path fill="#3D3C3E" d="M26.5,47c0.827,0,1.5,0.673,1.5,1.5S27.327,50,26.5,50S25,49.327,25,48.5S25.673,47,26.5,47 M26.5,46
		c-1.381,0-2.5,1.119-2.5,2.5s1.119,2.5,2.5,2.5s2.5-1.119,2.5-2.5S27.881,46,26.5,46L26.5,46z"/>
</g>
<g>
	<path fill="#3D3C3E" d="M32.5,47c0.827,0,1.5,0.673,1.5,1.5S33.327,50,32.5,50S31,49.327,31,48.5S31.673,47,32.5,47 M32.5,46
		c-1.381,0-2.5,1.119-2.5,2.5s1.119,2.5,2.5,2.5s2.5-1.119,2.5-2.5S33.881,46,32.5,46L32.5,46z"/>
</g>
<g>
	<path fill="#3D3C3E" d="M38.5,47c0.827,0,1.5,0.673,1.5,1.5S39.327,50,38.5,50S37,49.327,37,48.5S37.673,47,38.5,47 M38.5,46
		c-1.381,0-2.5,1.119-2.5,2.5s1.119,2.5,2.5,2.5s2.5-1.119,2.5-2.5S39.881,46,38.5,46L38.5,46z"/>
</g>
<g>
	<path fill="#3D3C3E" d="M44.5,47c0.827,0,1.5,0.673,1.5,1.5S45.327,50,44.5,50S43,49.327,43,48.5S43.673,47,44.5,47 M44.5,46
		c-1.381,0-2.5,1.119-2.5,2.5s1.119,2.5,2.5,2.5s2.5-1.119,2.5-2.5S45.881,46,44.5,46L44.5,46z"/>
</g>
<g>
	<path fill="#3D3C3E" d="M20.5,53c0.827,0,1.5,0.673,1.5,1.5S21.327,56,20.5,56S19,55.327,19,54.5S19.673,53,20.5,53 M20.5,52
		c-1.381,0-2.5,1.119-2.5,2.5s1.119,2.5,2.5,2.5s2.5-1.119,2.5-2.5S21.881,52,20.5,52L20.5,52z"/>
</g>
<g>
	<path fill="#3D3C3E" d="M26.5,53c0.827,0,1.5,0.673,1.5,1.5S27.327,56,26.5,56S25,55.327,25,54.5S25.673,53,26.5,53 M26.5,52
		c-1.381,0-2.5,1.119-2.5,2.5s1.119,2.5,2.5,2.5s2.5-1.119,2.5-2.5S27.881,52,26.5,52L26.5,52z"/>
</g>
<g>
	<path fill="#3D3C3E" d="M32.5,53c0.827,0,1.5,0.673,1.5,1.5S33.327,56,32.5,56S31,55.327,31,54.5S31.673,53,32.5,53 M32.5,52
		c-1.381,0-2.5,1.119-2.5,2.5s1.119,2.5,2.5,2.5s2.5-1.119,2.5-2.5S33.881,52,32.5,52L32.5,52z"/>
</g>
<g>
	<path fill="#3D3C3E" d="M38.5,53c0.827,0,1.5,0.673,1.5,1.5S39.327,56,38.5,56S37,55.327,37,54.5S37.673,53,38.5,53 M38.5,52
		c-1.381,0-2.5,1.119-2.5,2.5s1.119,2.5,2.5,2.5s2.5-1.119,2.5-2.5S39.881,52,38.5,52L38.5,52z"/>
</g>
<g>
	<path fill="#3D3C3E" d="M44.5,53c0.827,0,1.5,0.673,1.5,1.5S45.327,56,44.5,56S43,55.327,43,54.5S43.673,53,44.5,53 M44.5,52
		c-1.381,0-2.5,1.119-2.5,2.5s1.119,2.5,2.5,2.5s2.5-1.119,2.5-2.5S45.881,52,44.5,52L44.5,52z"/>
</g>
<circle fill="#3D3C3E" cx="21.5" cy="26.5" r="0.5"/>
<circle fill="#3D3C3E" cx="26.5" cy="26.5" r="0.5"/>
</svg>
