<?xml version="1.0" encoding="utf-8"?>
<!-- Generator: Adobe Illustrator 16.0.0, SVG Export Plug-In . SVG Version: 6.00 Build 0)  -->
<!DOCTYPE svg PUBLIC "-//W3C//DTD SVG 1.1//EN" "http://www.w3.org/Graphics/SVG/1.1/DTD/svg11.dtd">
<svg version="1.1" id="Capa_1" xmlns="http://www.w3.org/2000/svg" xmlns:xlink="http://www.w3.org/1999/xlink" x="0px" y="0px"
	 width="64px" height="64px" viewBox="0 0 64 64" enable-background="new 0 0 64 64" xml:space="preserve">
<g>
	<path fill="#E05754" d="M4,12c0,0,0-2,2-2h54c0,0,2,0,2,2v42c0,0,0,2-2,2S6,56,6,56s-2,0-2-2S4,12,4,12z"/>
</g>
<g>
	<path fill="#FBF2D9" d="M13,20c0,0,0-2,2-2h36c0,0,2,0,2,2v24c0,0,0,2-2,2s-36,0-36,0s-2,0-2-2S13,20,13,20z"/>
</g>
<g>
	<path fill="#3D3C3E" d="M57.992,9C58.453,9.013,59,9.197,59,10v41.988C58.988,52.45,58.806,53,58,53H4.012
		C3.55,52.988,3,52.806,3,52V10.012C3.012,9.55,3.195,9,4,9H57.992 M58,8H4c-2,0-2,2-2,2s0,40,0,42s2,2,2,2s52,0,54,0s2-2,2-2V10
		C60,8,58,8,58,8L58,8z"/>
</g>
<g>
	<circle fill="#FBF2D9" cx="8" cy="50" r="5"/>
</g>
<g>
	<path fill="#3D3C3E" d="M48.992,17C49.453,17.013,50,17.197,50,18v23.988C49.988,42.45,49.806,43,49,43H13.012
		C12.55,42.988,12,42.806,12,42V18.012C12.012,17.55,12.195,17,13,17H48.992 M49,16H13c-2,0-2,2-2,2s0,22,0,24s2,2,2,2s34,0,36,0
		s2-2,2-2V18C51,16,49,16,49,16L49,16z"/>
</g>
<g>
	<circle fill="#FBF2D9" cx="56" cy="50" r="5"/>
</g>
<g>
	<path fill="#3D3C3E" d="M7,45c2.206,0,4,1.794,4,4s-1.794,4-4,4s-4-1.794-4-4S4.794,45,7,45 M7,44c-2.761,0-5,2.238-5,5
		s2.239,5,5,5s5-2.238,5-5S9.761,44,7,44L7,44z"/>
</g>
<g>
	<path fill="#3D3C3E" d="M55,45c2.206,0,4,1.794,4,4s-1.794,4-4,4s-4-1.794-4-4S52.794,45,55,45 M55,44c-2.762,0-5,2.238-5,5
		s2.238,5,5,5s5-2.238,5-5S57.762,44,55,44L55,44z"/>
</g>
<polyline fill="none" stroke="#3D3C3E" stroke-linecap="round" stroke-linejoin="round" stroke-miterlimit="10" points="11.5,36.5 
	22.5,31.5 32.5,36.5 43.5,29.5 50.5,33.5 "/>
<polyline fill="none" stroke="#3D3C3E" stroke-linecap="round" stroke-linejoin="round" stroke-miterlimit="10" points="11.5,39.5 
	22.5,34.5 32.5,39.5 43.5,32.5 50.5,36.5 "/>
<g>
	<path fill="#3D3C3E" d="M19,21c1.654,0,3,1.346,3,3s-1.346,3-3,3s-3-1.346-3-3S17.346,21,19,21 M19,20c-2.209,0-4,1.791-4,4
		s1.791,4,4,4s4-1.791,4-4S21.209,20,19,20L19,20z"/>
</g>
<g>
	<path fill="#3D3C3E" d="M21,23c1.654,0,3,1.346,3,3s-1.346,3-3,3s-3-1.346-3-3S19.346,23,21,23 M21,22c-2.209,0-4,1.791-4,4
		s1.791,4,4,4s4-1.791,4-4S23.209,22,21,22L21,22z"/>
</g>
</svg>
