<?xml version="1.0" encoding="utf-8"?>
<!-- Generator: Adobe Illustrator 16.0.0, SVG Export Plug-In . SVG Version: 6.00 Build 0)  -->
<!DOCTYPE svg PUBLIC "-//W3C//DTD SVG 1.1//EN" "http://www.w3.org/Graphics/SVG/1.1/DTD/svg11.dtd">
<svg version="1.1" id="Capa_1" xmlns="http://www.w3.org/2000/svg" xmlns:xlink="http://www.w3.org/1999/xlink" x="0px" y="0px"
	 width="64px" height="64px" viewBox="0 0 64 64" enable-background="new 0 0 64 64" xml:space="preserve">
<g>
	<path fill="#DF5754" d="M2,14c0,0,0-2,2-2h58c0,0,2,0,2,2s0,36.894,0,36.894S64,53,62,53S4,53,4,53s-2,0-2-2S2,14,2,14z"/>
</g>
<g>
	<rect x="5" y="15" fill="#FAF1D8" width="56" height="35"/>
</g>
<g opacity="0.2">
	<rect x="16" y="17" fill="#3D3C3E" width="34" height="27"/>
</g>
<g>
	<path fill="#3D3C3E" d="M48,17v25H16V17H48 M49,16H15v27h34V16L49,16z"/>
</g>
<g>
	<rect x="19" y="20" fill="#DF5754" width="28" height="21"/>
</g>
<g>
	<path fill="#3D3C3E" d="M11.978,17c0.007,0.001,0.014,0.002,0.022,0.003l0,3.968c0,0.008-0.002,0.018-0.004,0.028l-4.968,0
		C7.02,21,7.01,20.999,7,20.997l0-3.968C7,17.02,7.001,17.01,7.003,17H11.978 M12,16H7c-1,0-1,1-1,1v4c0,1,1,1,1,1h5c1,0,1-1,1-1v-4
		C13,16,12,16,12,16L12,16z"/>
</g>
<g>
	<path fill="#3D3C3E" d="M59,15v33H5V15H59 M60,14H4v35h56V14L60,14z"/>
</g>
<g>
	<path fill="#DF5754" d="M59,41.5c0-1.933-1.566-3.5-3.5-3.5l0,0c-1.934,0-3.5,1.567-3.5,3.5l0,0c0,1.933,1.566,3.5,3.5,3.5l0,0
		C57.434,45,59,43.433,59,41.5L59,41.5z"/>
</g>
<g>
	<path fill="#DF5754" d="M32.5,45c0.276,0,0.5,0.225,0.5,0.5S32.776,46,32.5,46h-2c-0.276,0-0.5-0.225-0.5-0.5s0.224-0.5,0.5-0.5
		H32.5 M32.5,44h-2c-0.829,0-1.5,0.672-1.5,1.5s0.671,1.5,1.5,1.5h2c0.828,0,1.5-0.672,1.5-1.5S33.328,44,32.5,44L32.5,44z"/>
</g>
<g>
	<path fill="#DF5754" d="M39.5,45c0.275,0,0.5,0.225,0.5,0.5S39.775,46,39.5,46h-2c-0.275,0-0.5-0.225-0.5-0.5s0.225-0.5,0.5-0.5
		H39.5 M39.5,44h-2c-0.828,0-1.5,0.672-1.5,1.5s0.672,1.5,1.5,1.5h2c0.828,0,1.5-0.672,1.5-1.5S40.328,44,39.5,44L39.5,44z"/>
</g>
<g>
	<path fill="#DF5754" d="M46.5,45c0.275,0,0.5,0.225,0.5,0.5S46.775,46,46.5,46h-2c-0.275,0-0.5-0.225-0.5-0.5s0.225-0.5,0.5-0.5
		H46.5 M46.5,44h-2c-0.828,0-1.5,0.672-1.5,1.5s0.672,1.5,1.5,1.5h2c0.828,0,1.5-0.672,1.5-1.5S47.328,44,46.5,44L46.5,44z"/>
</g>
<g>
	<path fill="#DF5754" d="M14,41.5c0-1.933-1.567-3.5-3.5-3.5l0,0C8.567,38,7,39.567,7,41.5l0,0c0,1.933,1.567,3.5,3.5,3.5l0,0
		C12.433,45,14,43.433,14,41.5L14,41.5z"/>
</g>
<g>
	<path fill="#3D3C3E" d="M54.5,38c1.379,0,2.5,1.121,2.5,2.5S55.879,43,54.5,43S52,41.879,52,40.5S53.121,38,54.5,38 M54.5,37
		c-1.934,0-3.5,1.567-3.5,3.5s1.566,3.5,3.5,3.5s3.5-1.567,3.5-3.5S56.434,37,54.5,37L54.5,37z"/>
</g>
<g>
	<path fill="#3D3C3E" d="M9.5,38c1.378,0,2.5,1.121,2.5,2.5S10.878,43,9.5,43S7,41.879,7,40.5S8.122,38,9.5,38 M9.5,37
		C7.567,37,6,38.567,6,40.5S7.567,44,9.5,44s3.5-1.567,3.5-3.5S11.433,37,9.5,37L9.5,37z"/>
</g>
<g>
	<rect x="21" y="22" fill="#5FDB76" width="24" height="17"/>
</g>
<g>
	<path fill="#3D3C3E" d="M43,22v15H21V22H43 M44,21H20v17h24V21L44,21z"/>
</g>
<g>
	<path fill="#3D3C3E" d="M60.992,12C61.453,12.013,62,12.197,62,13v36.894C62,50.153,61.928,51,61,51H3.012
		C2.55,50.988,2,50.806,2,50V13.012C2.012,12.55,2.195,12,3,12H60.992 M61,11H3c-2,0-2,2-2,2s0,35,0,37s2,2,2,2s56,0,58,0
		s2-2.106,2-2.106S63,15,63,13S61,11,61,11L61,11z"/>
</g>
<g>
	<path fill="#3D3C3E" d="M45,20v19H19V20H45 M46,19H18v21h28V19L46,19z"/>
</g>
</svg>
