<?xml version="1.0" encoding="utf-8"?>
<!-- Generator: Adobe Illustrator 16.0.0, SVG Export Plug-In . SVG Version: 6.00 Build 0)  -->
<!DOCTYPE svg PUBLIC "-//W3C//DTD SVG 1.1//EN" "http://www.w3.org/Graphics/SVG/1.1/DTD/svg11.dtd">
<svg version="1.1" id="Capa_1" xmlns="http://www.w3.org/2000/svg" xmlns:xlink="http://www.w3.org/1999/xlink" x="0px" y="0px"
	 width="64px" height="64px" viewBox="0 0 64 64" enable-background="new 0 0 64 64" xml:space="preserve">
<path fill="#707070" d="M61.5,30.5l-11-14c0,0-1.418-2-3.5-2c-2.5,0-2.5,2-2.5,2v8c0,0,0,2,2,2s2-2,2-2v-4l6,10H61.5z"/>
<path fill="#707070" d="M4.5,30.5l11-14c0,0,1.418-2,3.5-2c2.5,0,2.5,2,2.5,2v8c0,0,0,2-2,2s-2-2-2-2v-4l-6,10H4.5z"/>
<g>
	<g>
		<path fill="#707070" d="M62,30.5V44c0,8-8,8-8,8h-8c-10,0-10-7-10-7c0-3-3-3-3-3s-3,0-3,3c0,0,0,7-10,7h-8c0,0-8,0-8-8V30.5
			c0,0,0-0.5,1-0.5h56C62,30,62,30.5,62,30.5z"/>
	</g>
</g>
<rect x="4" y="30" opacity="0.5" fill="#3D3C3E" width="58" height="4"/>
<path fill="none" stroke="#3D3C3E" stroke-linecap="round" stroke-linejoin="round" stroke-miterlimit="10" d="M60.5,29.5l-11-14
	c0,0-1.418-2-3.5-2c-2.5,0-2.5,2-2.5,2v8c0,0,0,2,2,2s2-2,2-2v-4l6,10H60.5z"/>
<path fill="none" stroke="#3D3C3E" stroke-linecap="round" stroke-linejoin="round" stroke-miterlimit="10" d="M3.5,29.5l11-14
	c0,0,1.418-2,3.5-2c2.5,0,2.5,2,2.5,2v8c0,0,0,2-2,2s-2-2-2-2v-4l-6,10H3.5z"/>
<rect x="3" y="32" fill="#3D3C3E" width="58" height="1"/>
<rect x="9" y="36" opacity="0.15" fill="#FFFFFF" width="14" height="9"/>
<rect x="41" y="36" opacity="0.15" fill="#FFFFFF" width="14" height="9"/>
<g>
	<g>
		<path fill="#3D3C3E" d="M60,30v13c0,6.883-6.717,6.998-7,7h-8c-8.82,0-8.997-5.761-9-6c0-2.935-2.393-4-4-4c-1.608,0-4,1.065-4,4
			c0,0.245-0.103,6-9,6h-7.998C10.717,49.998,4,49.883,4,43V30H60 M60,29H4c-1,0-1,0.5-1,0.5V43c0,8,8,8,8,8h8c10,0,10-7,10-7
			c0-3,3-3,3-3s3,0,3,3c0,0,0,7,10,7h8c0,0,8,0,8-8V29.5C61,29.5,61,29,60,29L60,29z"/>
	</g>
</g>
<rect x="6" y="32" fill="#3D3C3E" width="1" height="17"/>
<rect x="57" y="32" fill="#3D3C3E" width="1" height="17"/>
</svg>
