<?xml version="1.0" encoding="utf-8"?>
<!-- Generator: Adobe Illustrator 16.0.0, SVG Export Plug-In . SVG Version: 6.00 Build 0)  -->
<!DOCTYPE svg PUBLIC "-//W3C//DTD SVG 1.1//EN" "http://www.w3.org/Graphics/SVG/1.1/DTD/svg11.dtd">
<svg version="1.1" id="Capa_1" xmlns="http://www.w3.org/2000/svg" xmlns:xlink="http://www.w3.org/1999/xlink" x="0px" y="0px"
	 width="64px" height="64px" viewBox="0 0 64 64" enable-background="new 0 0 64 64" xml:space="preserve">
<g>
	<path fill="#707070" d="M2,19l53-1l1-3l4,3h4l-3,8l-39,4v19c0,0,0,1-2,2s-10,1-10-3s2-16,2-16L2,27V19z"/>
</g>
<polygon fill="#3D3C3E" points="46.5,22.212 60.792,21.5 59.709,24.5 46.5,26 "/>
<path fill="#3D3C3E" d="M1,18c0,0.25,0,7,0,7l17-1l0.062-6.322L1,18z"/>
<polygon fill="#AEAEAE" points="5.5,19.592 5.5,19.592 8.5,16.592 10.5,16.592 10.5,18.592 10.5,19.592 "/>
<path fill="none" stroke="#3D3C3E" stroke-miterlimit="10" d="M3.104,26.5H12.5c0,0,2,0,2,2s0,22,0,22"/>
<path fill="#AEAEAE" d="M27.972,29.028L24.5,32.5c-1,1,1,2,1,2v2l-4,1v-7.923L27.972,29.028z"/>
<line fill="none" stroke="#3D3C3E" stroke-miterlimit="10" x1="1.5" y1="24.5" x2="60.5" y2="21.5"/>
<rect x="17" y="18" fill="#3D3C3E" width="1" height="6"/>
<polyline fill="none" stroke="#3D3C3E" stroke-linejoin="round" stroke-miterlimit="10" points="4.5,18.5 4.5,18.5 7.5,15.5 
	9.5,15.5 9.5,18.5 "/>
<rect x="46" y="18" fill="#3D3C3E" width="1" height="8"/>
<line fill="none" stroke="#3D3C3E" stroke-width="2" stroke-linecap="round" stroke-miterlimit="10" x1="18.062" y1="20.96" x2="26.379" y2="20.653"/>
<line fill="none" stroke="#3D3C3E" stroke-linecap="round" stroke-linejoin="round" stroke-miterlimit="10" x1="17.5" y1="33.5" x2="20.5" y2="33.5"/>
<line fill="none" stroke="#3D3C3E" stroke-linecap="round" stroke-linejoin="round" stroke-miterlimit="10" x1="17.5" y1="35.5" x2="20.5" y2="35.5"/>
<line fill="none" stroke="#3D3C3E" stroke-linecap="round" stroke-linejoin="round" stroke-miterlimit="10" x1="17.5" y1="37.5" x2="20.5" y2="37.5"/>
<line fill="none" stroke="#3D3C3E" stroke-linecap="round" stroke-linejoin="round" stroke-miterlimit="10" x1="17.5" y1="39.5" x2="20.5" y2="39.5"/>
<line fill="none" stroke="#3D3C3E" stroke-linecap="round" stroke-linejoin="round" stroke-miterlimit="10" x1="17.5" y1="41.5" x2="20.5" y2="41.5"/>
<line fill="none" stroke="#3D3C3E" stroke-linecap="round" stroke-linejoin="round" stroke-miterlimit="10" x1="17.5" y1="43.5" x2="20.5" y2="43.5"/>
<line fill="none" stroke="#3D3C3E" stroke-linecap="round" stroke-linejoin="round" stroke-miterlimit="10" x1="17.5" y1="45.5" x2="20.5" y2="45.5"/>
<g>
	<path fill="#3D3C3E" d="M55.51,15.632L58.4,17.8l0.267,0.2H59h2.557l-2.275,6.068l-38.383,3.937L20,28.097V29v18.918
		c-0.043,0.111-0.292,0.61-1.447,1.188c-0.434,0.217-1.568,0.45-3.034,0.45C13.469,49.556,10,49.018,10,47
		c0-3.872,1.966-15.716,1.986-15.835l0.122-0.729l-0.661-0.331L2,25.382v-6.4L54.019,18l0.707-0.014l0.223-0.67L55.51,15.632 M55,14
		l-1,3L1,18v8l10,5c0,0-2,12-2,16c0,2.667,3.556,3.556,6.519,3.556C17,50.556,18.333,50.333,19,50c2-1,2-2,2-2V29l39-4l3-8h-4L55,14
		L55,14z"/>
</g>
<path fill="none" stroke="#3D3C3E" stroke-miterlimit="10" d="M20.5,36.5l4-1v-2c0,0-2-1-1-2l3.472-3.472"/>
<circle fill="#3D3C3E" cx="12" cy="46" r="1"/>
</svg>
