<?xml version="1.0" encoding="utf-8"?>
<!-- Generator: Adobe Illustrator 16.0.0, SVG Export Plug-In . SVG Version: 6.00 Build 0)  -->
<!DOCTYPE svg PUBLIC "-//W3C//DTD SVG 1.1//EN" "http://www.w3.org/Graphics/SVG/1.1/DTD/svg11.dtd">
<svg version="1.1" id="Capa_1" xmlns="http://www.w3.org/2000/svg" xmlns:xlink="http://www.w3.org/1999/xlink" x="0px" y="0px"
	 width="64px" height="64px" viewBox="0 0 64 64" enable-background="new 0 0 64 64" xml:space="preserve">
<g>
	
		<rect x="9.14" y="44.067" transform="matrix(0.7071 -0.7072 0.7072 0.7071 -33.7627 23.6305)" fill="#707070" width="5.001" height="17"/>
</g>
<g>
	
		<rect x="10.847" y="43.945" transform="matrix(0.707 -0.7072 0.7072 0.707 -32.0569 23.5111)" fill="#707070" width="3.001" height="13"/>
</g>
<g>
	<path fill="#3D3C3E" d="M8.812,46.202l7.778,7.779l-0.708,0.707L8.104,46.91L8.812,46.202 M8.812,44.788L6.69,46.91l9.192,9.192
		l2.122-2.121L8.812,44.788L8.812,44.788z"/>
</g>
<g>
	<path fill="#707070" d="M7.398,50.445l-4.243,4.243c0,0-1.415,1.414,0,2.828c1.414,1.414,3.535,3.535,3.535,3.535
		s1.415,1.414,2.829,0l4.243-4.242L7.398,50.445z"/>
</g>
<g>
	<path fill="#3D3C3E" d="M5.983,46.202L16.59,56.81l-2.122,2.121L3.862,48.324L5.983,46.202 M5.983,44.788l-3.536,3.536
		l12.021,12.021l3.536-3.535L5.983,44.788L5.983,44.788z"/>
</g>
<g>
	<path fill="#3D3C3E" d="M5.983,51.859l4.95,4.95l-3.536,3.535c-0.336,0.336-0.576,0.336-0.655,0.336
		c-0.333,0-0.667-0.249-0.76-0.336L2.448,56.81c-0.569-0.569-0.31-1.088,0-1.414L5.983,51.859 M5.983,50.445l-4.243,4.243
		c0,0-1.414,1.414,0,2.828c1.415,1.414,3.536,3.535,3.536,3.535s0.628,0.629,1.467,0.629c0.419,0,0.89-0.157,1.362-0.629
		l4.243-4.242L5.983,50.445L5.983,50.445z"/>
</g>
<g>
	<polygon fill="#AEAEAE" points="8.812,44.788 19.418,55.396 23.661,51.152 25.075,46.91 17.297,39.132 13.055,40.546 	"/>
</g>
<g>
	<path fill="#3D3C3E" d="M15.613,40.276l6.904,6.904l-1.144,3.432l-3.369,3.369l-9.192-9.193l3.368-3.368L15.613,40.276
		 M15.883,39.132l-4.243,1.414l-4.242,4.242l10.606,10.607l4.243-4.243l1.414-4.242L15.883,39.132L15.883,39.132z"/>
</g>
<g>
	
		<rect x="20.843" y="31.864" transform="matrix(0.7071 -0.7071 0.7071 0.7071 -18.5583 29.9248)" fill="#AEAEAE" width="12" height="11"/>
</g>
<g>
	<path fill="#3D3C3E" d="M25.783,30.646l6.364,6.364l-7.071,7.071l-6.364-6.364L25.783,30.646 M25.783,29.232l-8.485,8.485
		l7.778,7.778l8.485-8.485L25.783,29.232L25.783,29.232z"/>
</g>
<rect x="19.307" y="34.743" transform="matrix(0.7071 -0.7071 0.7071 0.7071 -18.0937 26.8033)" fill="#3D3C3E" width="8.001" height="1"/>
<rect x="23.55" y="38.985" transform="matrix(0.7071 -0.7071 0.7071 0.7071 -19.8508 31.0438)" fill="#3D3C3E" width="7.999" height="1"/>
<rect x="21.429" y="36.864" transform="matrix(0.7071 -0.7071 0.7071 0.7071 -18.9726 28.9265)" fill="#3D3C3E" width="8" height="1"/>
<g>
	
		<rect x="14.943" y="41.763" transform="matrix(0.707 -0.7072 0.7072 0.707 -28.4593 25.8279)" fill="#707070" width="4.001" height="11"/>
</g>
<g>
	<path fill="#3D3C3E" d="M13.055,43.374l6.364,6.364l-1.414,1.414l-6.364-6.363L13.055,43.374 M13.055,41.96l-2.829,2.829
		l7.778,7.777l2.828-2.828L13.055,41.96L13.055,41.96z"/>
</g>
<g>
	
		<rect x="19.894" y="36.814" transform="matrix(0.7071 -0.7071 0.7071 0.7071 -23.5081 27.8744)" fill="#707070" width="4" height="11"/>
</g>
<g>
	<path fill="#3D3C3E" d="M18.004,38.425l6.364,6.364l-1.415,1.414l-6.364-6.364L18.004,38.425 M18.004,37.011l-2.829,2.828
		l7.778,7.778l2.829-2.828L18.004,37.011L18.004,37.011z"/>
</g>
<rect x="13.469" y="45.203" transform="matrix(0.7071 -0.7071 0.7071 0.7071 -28.4327 23.7635)" fill="#DF5754" width="2" height="2"/>
<g>
	<path fill="#5FDB76" d="M27.904,31.354L56.896,2.362c0,0,2.121-2.122,4.596,0.354c2.475,2.475,0.354,4.596,0.354,4.596
		L32.854,36.304L27.904,31.354z"/>
</g>
<g>
	<path fill="#3D3C3E" d="M57.575,2.516L57.575,2.516c0.589,0,1.193,0.305,1.795,0.907c1.611,1.611,0.672,2.849,0.354,3.182
		L31.439,34.89l-3.536-3.536L56.181,3.077C56.187,3.071,56.776,2.516,57.575,2.516 M57.574,1.516c-1.246,0-2.093,0.846-2.093,0.846
		L26.49,31.354l4.95,4.95L60.431,7.312c0,0,2.121-2.122-0.354-4.596C59.165,1.804,58.302,1.516,57.574,1.516L57.574,1.516z"/>
</g>
</svg>
