<?xml version="1.0" encoding="utf-8"?>
<!-- Generator: Adobe Illustrator 16.0.0, SVG Export Plug-In . SVG Version: 6.00 Build 0)  -->
<!DOCTYPE svg PUBLIC "-//W3C//DTD SVG 1.1//EN" "http://www.w3.org/Graphics/SVG/1.1/DTD/svg11.dtd">
<svg version="1.1" id="Capa_1" xmlns="http://www.w3.org/2000/svg" xmlns:xlink="http://www.w3.org/1999/xlink" x="0px" y="0px"
	 width="64px" height="64px" viewBox="0 0 64 64" enable-background="new 0 0 64 64" xml:space="preserve">
<g>
	<path fill="#FAF1D8" d="M12,56v-2h42v2c0,2,0,3,0,3s0,2-2,2H14c0,0-2,0-2-2S12,56,12,56z"/>
</g>
<g opacity="0.3">
	<path fill="#3D3C3E" d="M12,56v-2h42v2c0,2,0,3,0,3s0,2-2,2H14c0,0-2,0-2-2S12,56,12,56z"/>
</g>
<g>
	<path fill="#FAF1D8" d="M11,6c0,0,0-2,2-2h40c0,0,2,0,2,2s0,47,0,47s0,2-2,2H13c0,0-2,0-2-2S11,6,11,6z"/>
</g>
<g opacity="0.3">
	<path fill="#3D3C3E" d="M14,8c0,0,0-1,1-1h36c0,0,1,0,1,1v25c0,0,0,1-1,1s-36,0-36,0s-1,0-1-1S14,8,14,8z"/>
</g>
<g>
	<path fill="#3D3C3E" d="M51.992,4C52.453,4.013,53,4.197,53,5v46.988C52.988,52.45,52.806,53,52,53H12.012
		C11.55,52.988,11,52.806,11,52V5.012C11.012,4.55,11.195,4,12,4H51.992 M52,3H12c-2,0-2,2-2,2s0,45,0,47s2,2,2,2h40c2,0,2-2,2-2
		s0-45,0-47S52,3,52,3L52,3z"/>
</g>
<g>
	<path fill="#3D3C3E" d="M49.979,7C49.985,7.001,49.992,7.002,50,7.003l0.001,24.968C50,31.98,49.999,31.99,49.996,32l-35.968,0
		C14.02,32,14.01,31.999,14,31.997l0-24.968C14,7.02,14.001,7.01,14.003,7H49.979 M50,6H14c-1,0-1,1-1,1s0,24,0,25s1,1,1,1
		s35,0,36,0s1-1,1-1V7C51,6,50,6,50,6L50,6z"/>
</g>
<g>
	<path fill="#70B8E0" d="M16,14c0,0,0-5,5-5h24c0,0,5,0,5,5v13c0,0,0,5-5,5c-3,0-24,0-24,0s-5,0-5-5C16,24,16,14,16,14z"/>
</g>
<g opacity="0.3">
	<polygon fill="#3D3C3E" points="31,39 31,44 42,44 42,46 51,46 51,37 42,37 42,39 	"/>
</g>
<rect x="33" y="41" fill="#3D3C3E" width="16" height="1"/>
<g>
	<rect x="44" y="39" fill="#3D3C3E" width="5" height="3"/>
</g>
<g>
	<path fill="#3D3C3E" d="M44,9c0.163,0,4,0.045,4,4v13c0,0.163-0.046,4-4,4H20c-0.163,0-4-0.045-4-4V13c0-0.163,0.045-4,4-4H44
		 M44,8H20c-5,0-5,5-5,5s0,10,0,13c0,5,5,5,5,5s21,0,24,0c5,0,5-5,5-5V13C49,8,44,8,44,8L44,8z"/>
</g>
<g>
	<path fill="#3D3C3E" d="M50,38v7h-7v-1v-1h-1H32v-3h10h1v-1v-1H50 M51,37h-9v2H31v5h11v2h9V37L51,37z"/>
</g>
<g>
	<path fill="#3D3C3E" d="M52,54v1v2.988C51.988,58.45,51.806,59,51,59H13.012C12.55,58.988,12,58.806,12,58v-3v-1H52 M53,53H11v2
		c0,0,0,1,0,3s2,2,2,2h38c2,0,2-2,2-2s0-1,0-3V53L53,53z"/>
</g>
<g>
	<path fill="#3D3C3E" d="M19,45v5l0,0h-5c0,0,0,0,0,0l0,0v-5l0,0H19L19,45L19,45 M19,44c-1,0-5,0-5,0s-1,0-1,1s0,5,0,5s0,1,1,1h5
		c0,0,1,0,1-1s0-5,0-5S20,44,19,44L19,44z"/>
</g>
<circle fill="#FF6A8C" cx="16.5" cy="47.5" r="1.5"/>
</svg>
