<?xml version="1.0" encoding="utf-8"?>
<!-- Generator: Adobe Illustrator 16.0.0, SVG Export Plug-In . SVG Version: 6.00 Build 0)  -->
<!DOCTYPE svg PUBLIC "-//W3C//DTD SVG 1.1//EN" "http://www.w3.org/Graphics/SVG/1.1/DTD/svg11.dtd">
<svg version="1.1" id="Capa_1" xmlns="http://www.w3.org/2000/svg" xmlns:xlink="http://www.w3.org/1999/xlink" x="0px" y="0px"
	 width="64px" height="64px" viewBox="0 0 64 64" enable-background="new 0 0 64 64" xml:space="preserve">
<g>
	<path fill="#D498FF" d="M2,18c0,0,0-2,2-2h57c0,0,2,0,2,2v32c0,0,0,2-2,2H4c0,0-2,0-2-2V18z"/>
</g>
<g>
	<path fill="#FAF1D8" d="M3,18c0,0,0-1,1-1h55c0,0,1,0,1,1v30c0,0,0,1-1,1H4c0,0-1,0-1-1V18z"/>
</g>
<rect x="31" y="23" fill="#3D3C3E" width="1" height="20"/>
<g>
	<rect x="8" y="22" fill="#69ADA5" width="19" height="13"/>
</g>
<g>
	<rect x="38" y="22" fill="#69ADA5" width="19" height="13"/>
</g>
<g>
	<path fill="#D498FF" d="M3,37h12l3,5h11v7H4c0,0-1,0-1-1V37z"/>
</g>
<g>
	<path fill="#D498FF" d="M60,37H48l-3,5H34v7h25c0,0,1,0,1-1V37z"/>
</g>
<g>
	<path fill="#3D3C3E" d="M14.434,38l2.709,4.515L17.434,43H18h10v5L4.028,48.001C4.02,48,4.01,47.999,4,47.996V38H14.434 M15,37H3
		v11c0,1,1,1,1,1h25v-7H18L15,37L15,37z"/>
</g>
<g>
	<path fill="#3D3C3E" d="M59,38v10l0,0H35v-5h10h0.566l0.291-0.485L48.566,38H59 M60,37H48l-3,5H34v7h25c0,0,1,0,1-1V37L60,37z"/>
</g>
<g>
	<rect x="7" y="40" fill="#DF5754" width="4" height="7"/>
</g>
<rect x="6" y="42" fill="#3D3C3E" width="4" height="1"/>
<g>
	<rect x="51" y="40" fill="#DF5754" width="4" height="7"/>
</g>
<rect x="50" y="42" fill="#3D3C3E" width="4" height="1"/>
<polygon fill="#3D3C3E" points="56,39 55,41 57,41 "/>
<polygon fill="#3D3C3E" points="56,46 55,44 57,44 "/>
<polygon fill="#3D3C3E" points="12,39 11,41 13,41 "/>
<polygon fill="#3D3C3E" points="12,46 11,44 13,44 "/>
<path fill="#3D3C3E" d="M38,39.5c0-0.276-0.224-0.5-0.5-0.5l0,0c-0.276,0-0.5,0.224-0.5,0.5v1c0,0.276,0.224,0.5,0.5,0.5l0,0
	c0.276,0,0.5-0.224,0.5-0.5V39.5z"/>
<path fill="#3D3C3E" d="M41,39.5c0-0.276-0.224-0.5-0.5-0.5l0,0c-0.276,0-0.5,0.224-0.5,0.5v1c0,0.276,0.224,0.5,0.5,0.5l0,0
	c0.276,0,0.5-0.224,0.5-0.5V39.5z"/>
<path fill="#3D3C3E" d="M44,39.5c0-0.276-0.224-0.5-0.5-0.5l0,0c-0.276,0-0.5,0.224-0.5,0.5v1c0,0.276,0.224,0.5,0.5,0.5l0,0
	c0.276,0,0.5-0.224,0.5-0.5V39.5z"/>
<g>
	<path fill="#3D3C3E" d="M59.992,16C60.453,16.013,61,16.197,61,17v31.988C60.988,49.45,60.806,50,60,50H3.012
		C2.55,49.988,2,49.806,2,49V17.012C2.012,16.55,2.195,16,3,16H59.992 M60,15H3c-2,0-2,2-2,2v32c0,2,2,2,2,2h57c2,0,2-2,2-2V17
		C62,15,60,15,60,15L60,15z"/>
</g>
<g>
	<path fill="#3D3C3E" d="M58.979,18c0.007,0.001,0.014,0.002,0.021,0.003l0.001,29.968C59,47.98,58.999,47.99,58.996,48
		L4.028,48.001C4.02,48,4.01,47.999,4,47.996l0-29.968C4,18.02,4.001,18.01,4.003,18H58.979 M59,17H4c-1,0-1,1-1,1v30c0,1,1,1,1,1
		h55c1,0,1-1,1-1V18C60,17,59,17,59,17L59,17z"/>
</g>
<g>
	<path fill="#3D3C3E" d="M9,40v5H7v-5H9 M10,39H6v7h4V39L10,39z"/>
</g>
<g>
	<path fill="#3D3C3E" d="M53,40v5h-2v-5H53 M54,39h-4v7h4V39L54,39z"/>
</g>
<g>
	<path fill="#3D3C3E" d="M25,22v11H8V22H25 M26,21H7v13h19V21L26,21z"/>
</g>
<g>
	<path fill="#3D3C3E" d="M55,22v11H38V22H55 M56,21H37v13h19V21L56,21z"/>
</g>
<polygon fill="#3D3C3E" points="29,37 29,44 28,44 28,38 12,38 12,37 "/>
<polygon fill="#3D3C3E" points="51,37 51,38 35,38 35,44 34,44 34,37 "/>
<circle fill="#3D3C3E" cx="21.5" cy="39.5" r="0.5"/>
<circle fill="#3D3C3E" cx="24.5" cy="39.5" r="0.5"/>
<g>
	<rect x="30" y="15" fill="#D498FF" width="3" height="8"/>
</g>
<g>
	<rect x="30" y="43" fill="#D498FF" width="3" height="8"/>
</g>
<g>
	<path fill="#3D3C3E" d="M32,16v6h-1v-6H32 M33,15h-3v8h3V15L33,15z"/>
</g>
<g>
	<path fill="#3D3C3E" d="M32,44v6h-1v-6H32 M33,43h-3v8h3V43L33,43z"/>
</g>
</svg>
