<?xml version="1.0" encoding="utf-8"?>
<!-- Generator: Adobe Illustrator 16.0.0, SVG Export Plug-In . SVG Version: 6.00 Build 0)  -->
<!DOCTYPE svg PUBLIC "-//W3C//DTD SVG 1.1//EN" "http://www.w3.org/Graphics/SVG/1.1/DTD/svg11.dtd">
<svg version="1.1" id="Capa_1" xmlns="http://www.w3.org/2000/svg" xmlns:xlink="http://www.w3.org/1999/xlink" x="0px" y="0px"
	 width="64px" height="64px" viewBox="0 0 64 64" enable-background="new 0 0 64 64" xml:space="preserve">
<g>
	<path fill="#AEAEAE" d="M56.066,34.459L40.511,50.015c0,0-1.132,1.132-2.829,2.829l-9.899,9.898c-2.829,2.829-5.657,0-5.657,0
		L2.327,42.943c-2.829-2.828,0-5.656,0-5.656L30.611,9.002c0,0,2.829-2.828,5.657,0l19.799,19.799
		C56.066,28.801,58.896,31.63,56.066,34.459z"/>
</g>
<g>
	<path fill="#707070" d="M39.803,18.195c0,0,0.707-0.707,1.414,0l5.658,5.656c0,0,0.707,0.707,0,1.414S36.268,35.873,36.268,35.873
		s-0.707,0.707-1.414,0l-5.657-5.658c0,0-0.707-0.707,0-1.414L39.803,18.195z"/>
</g>
<g>
	<path fill="#707070" d="M47.582,25.973c0,0,0.707-0.707,1.414,0l4.949,4.95c0,0,0.707,0.707,0,1.414S43.339,42.943,43.339,42.943
		s-0.707,0.707-1.414,0l-4.95-4.949c0,0-0.707-0.707,0-1.414L47.582,25.973z"/>
</g>
<g>
	<path fill="#707070" d="M32.732,11.124c0,0,0.707-0.707,1.414,0l4.949,4.95c0,0,0.707,0.707,0,1.414S28.49,28.094,28.49,28.094
		s-0.707,0.707-1.414,0l-4.95-4.949c0,0-0.707-0.707,0-1.414L32.732,11.124z"/>
</g>
<g>
	<path fill="#3D3C3E" d="M40.51,17.488L40.51,17.488l5.657,5.657L35.581,33.732c-0.007,0.005-0.015,0.011-0.022,0.017l-5.635-5.635
		c-0.005-0.006-0.011-0.015-0.017-0.023L40.51,17.488 M40.536,16.467c-0.419,0-0.733,0.314-0.733,0.314L29.197,27.387
		c-0.707,0.707,0,1.414,0,1.414l5.657,5.657c0.236,0.236,0.472,0.314,0.682,0.314c0.418,0,0.732-0.313,0.732-0.313
		s9.9-9.9,10.607-10.607s-0.001-1.414-0.001-1.414l-5.657-5.656C40.981,16.545,40.745,16.467,40.536,16.467L40.536,16.467z"/>
</g>
<g>
	<path fill="#3D3C3E" d="M48.289,25.266L48.289,25.266l4.93,4.93c0.005,0.006,0.012,0.014,0.017,0.023L42.652,40.803
		c-0.007,0.006-0.015,0.012-0.022,0.018l-4.929-4.927c-0.005-0.007-0.012-0.015-0.017-0.022L48.289,25.266 M48.315,24.244
		c-0.419,0-0.733,0.314-0.733,0.314L36.975,35.166c-0.707,0.707,0,1.414,0,1.414l4.95,4.949c0.235,0.235,0.472,0.314,0.681,0.314
		c0.419,0,0.733-0.314,0.733-0.314s9.899-9.899,10.606-10.606s0-1.414,0-1.414l-4.949-4.95
		C48.761,24.323,48.524,24.244,48.315,24.244L48.315,24.244z"/>
</g>
<g>
	<path fill="#3D3C3E" d="M33.439,10.417L33.439,10.417l4.93,4.93c0.005,0.006,0.012,0.014,0.017,0.023L27.803,25.953
		c-0.006,0.005-0.015,0.012-0.022,0.017l-4.928-4.926c-0.005-0.006-0.011-0.014-0.017-0.023L33.439,10.417 M33.466,9.396
		c-0.419,0-0.733,0.314-0.733,0.314L22.126,20.316c-0.707,0.707,0,1.414,0,1.414l4.95,4.949c0.236,0.236,0.471,0.314,0.681,0.314
		c0.419,0,0.733-0.314,0.733-0.314s9.899-9.898,10.606-10.605s0-1.414,0-1.414l-4.949-4.95C33.91,9.474,33.676,9.396,33.466,9.396
		L33.466,9.396z"/>
</g>
<path fill="#3D3C3E" d="M39.097,21.73c0,0,1.414-1.414,2.828,0s0,2.828,0,2.828l-4.95,4.95c0,0-1.414,1.414-2.828,0s0-2.828,0-2.828
	L39.097,21.73z"/>
<g>
	<polygon fill="#707070" points="41.924,16.074 48.996,23.145 51.117,21.023 53.945,13.952 50.41,10.417 44.753,13.245 	"/>
</g>
<g>
	<polygon fill="#707070" points="63,5.242 60.172,2.414 50.41,11.831 53.238,14.659 	"/>
</g>
<path fill="#3D3C3E" d="M46.521,15.721c0.195-0.195,0.195-0.512,0-0.707l-2.122-2.122c-0.195-0.195-0.512-0.195-0.707,0l0,0
	c-0.195,0.195-0.195,0.512,0,0.707l2.122,2.122C46.01,15.916,46.326,15.916,46.521,15.721L46.521,15.721z"/>
<path fill="#3D3C3E" d="M50.764,19.963c0.195-0.195,0.195-0.512,0-0.707l-2.121-2.121c-0.195-0.195-0.512-0.195-0.707,0l0,0
	c-0.195,0.195-0.195,0.512,0,0.707l2.121,2.121C50.252,20.158,50.568,20.158,50.764,19.963L50.764,19.963z"/>
<path fill="#3D3C3E" d="M51.471,17.842c0.195-0.196,0.195-0.512,0-0.707l-1.414-1.414c-0.195-0.195-0.512-0.196-0.707,0l0,0
	c-0.195,0.195-0.195,0.512,0,0.707l1.414,1.414C50.959,18.037,51.275,18.037,51.471,17.842L51.471,17.842z"/>
<path fill="#3D3C3E" d="M52.178,15.72c0.195-0.195,0.195-0.512,0-0.707l-0.707-0.707c-0.195-0.195-0.512-0.195-0.707,0l0,0
	c-0.195,0.196-0.195,0.512,0,0.707l0.707,0.707C51.666,15.915,51.982,15.916,52.178,15.72L52.178,15.72z"/>
<path fill="#3D3C3E" d="M47.936,14.307c0.195-0.196,0.195-0.512,0-0.707l-1.415-1.415c-0.195-0.195-0.511-0.196-0.707,0l0,0
	c-0.195,0.195-0.195,0.512,0,0.707l1.415,1.415C47.424,14.502,47.74,14.502,47.936,14.307L47.936,14.307z"/>
<path fill="#3D3C3E" d="M49.35,12.892c0.195-0.195,0.195-0.512,0-0.707l-0.707-0.708c-0.195-0.195-0.512-0.195-0.707,0l0,0
	c-0.196,0.196-0.195,0.512,0,0.707l0.707,0.708C48.838,13.087,49.154,13.088,49.35,12.892L49.35,12.892z"/>
<g>
	<path fill="#3D3C3E" d="M33.545,7.331L33.545,7.331c0.707,0,1.367,0.315,2.016,0.964l19.799,19.799
		c0.217,0.217,2.063,2.182,0,4.244L39.804,47.894l-2.829,2.829l-9.899,9.898c-0.649,0.649-1.309,0.965-2.017,0.965
		c-1.226,0-2.22-0.959-2.227-0.965L3.034,40.822c-1.996-1.996-0.347-3.887,0-4.242L31.318,8.295
		C31.328,8.286,32.316,7.331,33.545,7.331 M33.544,6.331c-1.676,0-2.933,1.257-2.933,1.257L2.327,35.873c0,0-2.829,2.828,0,5.656
		l19.799,19.799c0,0,1.257,1.258,2.934,1.258c0.838,0,1.781-0.314,2.724-1.258l9.899-9.898c1.697-1.697,2.829-2.829,2.829-2.829
		l15.556-15.556c2.829-2.829,0-5.658,0-5.658L36.268,7.588C35.325,6.645,34.383,6.331,33.544,6.331L33.544,6.331z"/>
</g>
<g>
	<path fill="#3D3C3E" d="M50.876,10.883l1.896,1.896l-2.507,6.269l-1.269,1.269l-5.657-5.657l1.269-1.269L50.876,10.883
		 M51.117,9.71l-7.071,2.828l-2.121,2.121l7.071,7.071l2.121-2.121l2.828-7.071L51.117,9.71L51.117,9.71z"/>
</g>
<g>
	<path fill="#3D3C3E" d="M60.159,2.402l1.414,1.414l-8.322,8.028l-1.414-1.414L60.159,2.402 M60.172,1l-9.762,9.417l2.828,2.828
		L63,3.828L60.172,1L60.172,1z"/>
</g>
</svg>
