<?xml version="1.0" encoding="utf-8"?>
<!-- Generator: Adobe Illustrator 16.0.0, SVG Export Plug-In . SVG Version: 6.00 Build 0)  -->
<!DOCTYPE svg PUBLIC "-//W3C//DTD SVG 1.1//EN" "http://www.w3.org/Graphics/SVG/1.1/DTD/svg11.dtd">
<svg version="1.1" id="Capa_1" xmlns="http://www.w3.org/2000/svg" xmlns:xlink="http://www.w3.org/1999/xlink" x="0px" y="0px"
	 width="64px" height="64px" viewBox="0 0 64 64" enable-background="new 0 0 64 64" xml:space="preserve">
<g>
	<path fill="#FF6A8C" d="M40.192,16.736l4.242,4.243L57.163,8.251c0,0,0.707-0.707,0-1.414l-2.828-2.829c0,0-0.707-0.707-1.414,0
		L40.192,16.736z"/>
</g>
<g>
	
		<rect x="15.707" y="27.464" transform="matrix(-0.7071 0.7071 -0.7071 -0.7071 74.9616 27.8781)" fill="#FF6A8C" width="31.999" height="4"/>
</g>
<g>
	
		<rect x="15.564" y="41.606" transform="matrix(-0.7071 0.7071 -0.7071 -0.7071 60.8196 62.0206)" fill="#FF6A8C" width="4.001" height="4"/>
</g>
<g>
	<path fill="#70B8E0" d="M13.322,42.192c0,0,0.708-0.708,1.415-0.001l4.242,4.243c0,0,0.707,0.707,0,1.415l-1.414,1.414
		c0,0-0.707,0.707-1.414,0l-4.243-4.243c0,0-0.707-0.707,0-1.414L13.322,42.192z"/>
</g>
<g>
	<path fill="#C99D67" d="M11.555,45.374l-5.657,5.657c-0.318,0.318-0.473,0.756-0.432,1.195l0.708,7.777
		c0.036,0.418,0.24,0.792,0.565,1.047c0.318,0.247,0.729,0.36,1.139,0.304l4.949-0.706c0.318-0.051,0.623-0.199,0.849-0.425
		c0.212-0.212,0.347-0.474,0.411-0.765l2.121-10.605c0.1-0.494-0.057-1.004-0.41-1.357l-2.122-2.122
		C13.089,44.787,12.142,44.787,11.555,45.374z M13.11,49.051l-1.761,8.775l-2.333,0.34l-0.502-5.509l4.102-4.101L13.11,49.051z"/>
</g>
<g>
	<path fill="#FF6A8C" d="M16.858,41.484c-0.781-0.78-0.781-2.047,0-2.828l0,0c0.781-0.781,2.047-0.78,2.828,0l2.828,2.829
		c0.781,0.78,0.781,2.047,0,2.828l0,0c-0.781,0.78-2.047,0.78-2.828,0L16.858,41.484z"/>
</g>
<rect x="51.36" y="4.898" transform="matrix(0.7071 -0.7071 0.7071 0.7071 9.6049 38.9836)" fill="#3D3C3E" width="1" height="6"/>
<g>
	<g>
		<path fill="#3D3C3E" d="M11.201,45.935c0.128,0,0.256,0.049,0.354,0.146l2.122,2.122c0.117,0.117,0.169,0.287,0.136,0.451
			l-2.121,10.606c-0.021,0.099-0.068,0.188-0.137,0.256c-0.075,0.075-0.173,0.126-0.282,0.142l-4.949,0.707
			c-0.024,0.003-0.048,0.005-0.071,0.005c-0.113,0-0.222-0.037-0.311-0.108c-0.108-0.084-0.175-0.211-0.188-0.347l-0.707-7.778
			c-0.013-0.147,0.039-0.293,0.145-0.398l5.657-5.657C10.945,45.983,11.073,45.935,11.201,45.935 M6.702,59.301l4.078-0.583l2-9.997
			l-1.579-1.579l-5.138,5.138L6.702,59.301 M11.201,44.935c-0.4,0-0.777,0.156-1.061,0.439l-5.657,5.657
			c-0.314,0.313-0.472,0.748-0.434,1.191l0.707,7.783c0.042,0.419,0.25,0.797,0.572,1.046c0.252,0.202,0.584,0.318,0.923,0.318
			c0.07,0,0.142-0.005,0.213-0.015l4.949-0.707c0.323-0.047,0.616-0.193,0.848-0.425c0.207-0.207,0.349-0.47,0.409-0.76
			l2.123-10.613c0.1-0.491-0.053-0.999-0.409-1.354l-2.122-2.122C11.979,45.091,11.602,44.935,11.201,44.935L11.201,44.935z
			 M7.102,52.655l4.1-4.1l0.494,0.494l-1.756,8.778l-2.336,0.334L7.102,52.655L7.102,52.655z"/>
	</g>
</g>
<g>
	<path fill="#3D3C3E" d="M12.615,42.899L12.615,42.899l4.224,4.223c0.005,0.007,0.011,0.015,0.017,0.022l-1.391,1.393
		c-0.006,0.006-0.015,0.012-0.022,0.018l-4.222-4.221c-0.005-0.007-0.011-0.015-0.017-0.022L12.615,42.899 M12.642,41.878
		c-0.419,0-0.733,0.314-0.733,0.314l-1.414,1.414c-0.707,0.707,0,1.414,0,1.414l4.243,4.243c0.236,0.235,0.471,0.314,0.681,0.314
		c0.419,0,0.733-0.314,0.733-0.314l1.414-1.414c0.707-0.707,0-1.414,0-1.414l-4.243-4.243
		C13.086,41.957,12.851,41.878,12.642,41.878L12.642,41.878z"/>
</g>
<g>
	<path fill="#3D3C3E" d="M52.214,4.715L52.214,4.715l2.828,2.829L43.021,19.565l-2.828-2.829L52.214,4.715 M52.188,3.694
		c-0.209,0-0.445,0.079-0.681,0.314L38.778,16.736l4.242,4.243L55.749,8.251c0,0,0.707-0.707,0-1.414l-2.828-2.829
		C52.921,4.008,52.606,3.694,52.188,3.694L52.188,3.694z"/>
</g>
<g>
	<path fill="#3D3C3E" d="M40.192,18.15l1.414,1.415L20.394,40.778l-1.414-1.415L40.192,18.15 M40.192,16.736L17.565,39.363
		l2.828,2.829l22.627-22.627L40.192,16.736L40.192,16.736z"/>
</g>
<g>
	<path fill="#3D3C3E" d="M16.151,42.191l1.414,1.415l-1.414,1.415l-1.415-1.415L16.151,42.191 M16.151,40.777l-2.829,2.829
		l2.829,2.829l2.828-2.829L16.151,40.777L16.151,40.777z"/>
</g>
<g>
	<path fill="#3D3C3E" d="M16.858,39.071c0.268,0,0.519,0.104,0.708,0.292l2.829,2.83c0.188,0.188,0.292,0.438,0.292,0.706
		s-0.104,0.518-0.292,0.706c-0.189,0.189-0.44,0.293-0.708,0.293s-0.519-0.104-0.707-0.292l-2.829-2.83
		c-0.188-0.188-0.292-0.438-0.292-0.706c0-0.267,0.104-0.518,0.293-0.707C16.34,39.175,16.591,39.071,16.858,39.071 M16.858,38.071
		c-0.512,0-1.023,0.194-1.414,0.585c-0.781,0.781-0.781,2.048,0,2.828l2.828,2.829c0.391,0.39,0.902,0.585,1.414,0.585
		s1.023-0.195,1.414-0.585c0.781-0.78,0.781-2.048,0-2.828l-2.828-2.829C17.882,38.266,17.37,38.071,16.858,38.071L16.858,38.071z"
		/>
</g>
<g>
	<circle fill="#F7EE7A" cx="42" cy="41" r="4"/>
</g>
<g>
	<path fill="#3D3C3E" d="M41,37c1.654,0,3,1.346,3,3s-1.346,3-3,3s-3-1.346-3-3S39.346,37,41,37 M41,36c-2.209,0-4,1.791-4,4
		s1.791,4,4,4s4-1.791,4-4S43.209,36,41,36L41,36z"/>
</g>
<g>
	<circle fill="#F7EE7A" cx="53" cy="46" r="4"/>
</g>
<g>
	<path fill="#3D3C3E" d="M52,42c1.654,0,3,1.346,3,3s-1.346,3-3,3s-3-1.346-3-3S50.346,42,52,42 M52,41c-2.209,0-4,1.791-4,4
		s1.791,4,4,4s4-1.791,4-4S54.209,41,52,41L52,41z"/>
</g>
<g>
	<circle fill="#F7EE7A" cx="43" cy="53" r="4"/>
</g>
<g>
	<path fill="#3D3C3E" d="M42,49c1.654,0,3,1.346,3,3s-1.346,3-3,3s-3-1.346-3-3S40.346,49,42,49 M42,48c-2.209,0-4,1.791-4,4
		s1.791,4,4,4s4-1.791,4-4S44.209,48,42,48L42,48z"/>
</g>
</svg>
