<?xml version="1.0" encoding="utf-8"?>
<!-- Generator: Adobe Illustrator 16.0.0, SVG Export Plug-In . SVG Version: 6.00 Build 0)  -->
<!DOCTYPE svg PUBLIC "-//W3C//DTD SVG 1.1//EN" "http://www.w3.org/Graphics/SVG/1.1/DTD/svg11.dtd">
<svg version="1.1" id="Capa_1" xmlns="http://www.w3.org/2000/svg" xmlns:xlink="http://www.w3.org/1999/xlink" x="0px" y="0px"
	 width="64px" height="64px" viewBox="0 0 64 64" enable-background="new 0 0 64 64" xml:space="preserve">
<path fill="#FAF1D8" d="M63.763,32H2.172l1.85-10.18c0.08-0.47,0.5-0.82,0.98-0.82h55c0.449,0,0.85,0.3,0.959,0.74L63.763,32z"/>
<path fill="#AEAEAE" d="M63.962,33.29l-4,10c-0.129,0.42-0.52,0.71-0.959,0.71h-52c-0.44,0-0.83-0.29-0.96-0.71l-4-10
	c-0.04-0.149-0.05-0.31-0.02-0.47L2.172,32h61.59l0.199,0.74C64.013,32.92,64.013,33.109,63.962,33.29z"/>
<rect x="41" y="21" fill="#707070" width="11" height="20"/>
<g>
	<polygon fill="#3D3C3E" points="60.998,30 0.998,30 0.998,31 60.998,31 60.998,30 	"/>
</g>
<g>
	<path fill="#3D3C3E" d="M40,20v7v0H10c0,0,0,0,0,0l0,0v-7H40 M41,19H9v8c0,0,0,1,1,1s30,0,30,0s1,0,1-1V19L41,19z"/>
</g>
<g>
	<path fill="#3D3C3E" d="M52,20v21H41V20H52 M53,19H40v23h13V19L53,19z"/>
</g>
<g>
	<path fill="#3D3C3E" d="M28.998,31v6h-20v-6H28.998 M29.998,30h-22v8h22V30L29.998,30z"/>
</g>
<g>
	<path fill="#3D3C3E" d="M17.998,33v2h-5v-2H17.998 M17.998,32h-5c-0.552,0-1,0.448-1,1v2c0,0.553,0.448,1,1,1h5
		c0.552,0,1-0.447,1-1v-2C18.998,32.448,18.55,32,17.998,32L17.998,32z"/>
</g>
<g>
	<path fill="#3D3C3E" d="M25.998,33v2h-5v-2H25.998 M25.998,32h-5c-0.552,0-1,0.448-1,1v2c0,0.553,0.448,1,1,1h5
		c0.552,0,1-0.447,1-1v-2C26.998,32.448,26.55,32,25.998,32L25.998,32z"/>
</g>
<path fill="#3D3C3E" d="M28.998,25.5c0-0.276-0.224-0.5-0.5-0.5h-5c-0.276,0-0.5,0.224-0.5,0.5l0,0c0,0.276,0.224,0.5,0.5,0.5h5
	C28.774,26,28.998,25.776,28.998,25.5L28.998,25.5z"/>
<path fill="#3D3C3E" d="M10.998,34.5c0-0.276-0.224-0.5-0.5-0.5l0,0c-0.276,0-0.5,0.224-0.5,0.5l0,0c0,0.276,0.224,0.5,0.5,0.5l0,0
	C10.774,35,10.998,34.776,10.998,34.5L10.998,34.5z"/>
<g>
	<path fill="#3D3C3E" d="M44.385,35l0.618,1.236V39h-2v-4H44.385 M45.003,34h-3v6h4v-4L45.003,34L45.003,34z"/>
</g>
<g>
	<path fill="#3D3C3E" d="M49.385,35l0.618,1.236V39h-2v-4H49.385 M50.003,34h-3v6h4v-4L50.003,34L50.003,34z"/>
</g>
<rect x="40.003" y="39" fill="#3D3C3E" width="13" height="1"/>
<g>
	<path fill="#3D3C3E" d="M57.998,20l3,11l-4,10h-52l-4-10l2-11H57.998 M57.998,19h-55c-0.483,0-0.897,0.346-0.984,0.821l-2,11
		c-0.034,0.185-0.015,0.375,0.055,0.55l4,10C4.221,41.751,4.589,42,4.998,42h52c0.409,0,0.776-0.249,0.929-0.629l4-10
		c0.08-0.202,0.094-0.425,0.036-0.635l-3-11C58.844,19.302,58.449,19,57.998,19L57.998,19z"/>
</g>
<path fill="#DF5754" d="M17,22.5c0-0.276-0.224-0.5-0.5-0.5h-4c-0.276,0-0.5,0.224-0.5,0.5l0,0c0,0.276,0.224,0.5,0.5,0.5h4
	C16.776,23,17,22.776,17,22.5L17,22.5z"/>
<path fill="#DF5754" d="M21,24.5c0-0.276-0.224-0.5-0.5-0.5h-8c-0.276,0-0.5,0.224-0.5,0.5l0,0c0,0.276,0.224,0.5,0.5,0.5h8
	C20.776,25,21,24.776,21,24.5L21,24.5z"/>
<path fill="#DF5754" d="M46,32.5c0-0.276-0.224-0.5-0.5-0.5h-3c-0.276,0-0.5,0.224-0.5,0.5l0,0c0,0.276,0.224,0.5,0.5,0.5h3
	C45.776,33,46,32.776,46,32.5L46,32.5z"/>
<path fill="#DF5754" d="M51,32.5c0-0.276-0.224-0.5-0.5-0.5h-3c-0.276,0-0.5,0.224-0.5,0.5l0,0c0,0.276,0.224,0.5,0.5,0.5h3
	C50.776,33,51,32.776,51,32.5L51,32.5z"/>
<rect x="41" y="23" fill="#3D3C3E" width="11" height="1"/>
</svg>
