<?xml version="1.0" encoding="utf-8"?>
<!-- Generator: Adobe Illustrator 16.0.0, SVG Export Plug-In . SVG Version: 6.00 Build 0)  -->
<!DOCTYPE svg PUBLIC "-//W3C//DTD SVG 1.1//EN" "http://www.w3.org/Graphics/SVG/1.1/DTD/svg11.dtd">
<svg version="1.1" id="Capa_1" xmlns="http://www.w3.org/2000/svg" xmlns:xlink="http://www.w3.org/1999/xlink" x="0px" y="0px"
	 width="64px" height="64px" viewBox="0 0 64 64" enable-background="new 0 0 64 64" xml:space="preserve">
<g>
	<g>
		<path fill="#AEAEAE" d="M3,19c0,0,0-2,2-2h56c0,0,2,0,2,2v27c0,0,0,2-2,2H5c0,0-2,0-2-2V19z"/>
	</g>
	<g>
		<path fill="#707070" d="M6,23c0,0,0-2,2-2h50c0,0,2,0,2,2v20c0,0,0,2-2,2S8,45,8,45s-2,0-2-2S6,23,6,23z"/>
	</g>
	<g>
		<path fill="#AEAEAE" d="M25,43c0,0,0,1,1,1h14c0,0,1,0,1-1v-1c0,0,0-1-1-1s-14,0-14,0s-1,0-1,1V43z"/>
	</g>
	<path fill="#3D3C3E" d="M22,32v3c0,0.55-0.45,1-1,1h-3v3c0,0.55-0.45,1-1,1h-3c-0.55,0-1-0.45-1-1v-3h-3c-0.55,0-1-0.45-1-1v-3
		c0-0.55,0.45-1,1-1h3v-3c0-0.55,0.45-1,1-1h3c0.55,0,1,0.45,1,1v3h3C21.55,31,22,31.45,22,32z"/>
	<g>
		<path fill="#AEAEAE" d="M25,20v2c0,0,0,1,1,1h14c0,0,1,0,1-1s0-2,0-2H25z"/>
	</g>
	<g>
		<path fill="#AEAEAE" d="M25,39c0,0,0,1,1,1h14c0,0,1,0,1-1v-4c0,0,0-1-1-1s-14,0-14,0s-1,0-1,1V39z"/>
	</g>
	<g>
		<path fill="#3D3C3E" d="M39,35v4l0,0H25c0,0,0,0,0,0l0,0v-4l0,0H39L39,35L39,35 M39,34c-1,0-14,0-14,0s-1,0-1,1v4c0,0,0,1,1,1h14
			c0,0,1,0,1-1v-4C40,35,40,34,39,34L39,34z"/>
	</g>
	<g>
		<path fill="#AEAEAE" d="M25,27c0,0,0,1,1,1h14c0,0,1,0,1-1v-2c0,0,0-1-1-1s-14,0-14,0s-1,0-1,1V27z"/>
	</g>
	<g>
		<path fill="#AEAEAE" d="M25,32c0,0,0,1,1,1h14c0,0,1,0,1-1v-2c0,0,0-1-1-1s-14,0-14,0s-1,0-1,1V32z"/>
	</g>
	<g>
		<path fill="#3D3C3E" d="M39,42v1l0,0H25c0,0,0,0,0,0l0,0v-1l0,0H39L39,42L39,42 M39,41c-1,0-14,0-14,0s-1,0-1,1v1c0,0,0,1,1,1h14
			c0,0,1,0,1-1v-1C40,42,40,41,39,41L39,41z"/>
	</g>
	<g>
		<path fill="#3D3C3E" d="M39,21v1v0H25c0,0,0,0,0,0l0,0v-1H39 M40,20H24v2c0,0,0,1,1,1h14c0,0,1,0,1-1S40,20,40,20L40,20z"/>
	</g>
	<g>
		<path fill="#3D3C3E" d="M39,25v2v0H25c0,0,0,0,0,0l0,0v-2c0,0,0,0,0,0H39L39,25L39,25 M39,24c-1,0-14,0-14,0s-1,0-1,1v2
			c0,0,0,1,1,1h14c0,0,1,0,1-1v-2C40,25,40,24,39,24L39,24z"/>
	</g>
	<g>
		<path fill="#3D3C3E" d="M39,30v2v0H25c0,0,0,0,0,0l0,0v-2c0,0,0,0,0,0H39L39,30L39,30 M39,29c-1,0-14,0-14,0s-1,0-1,1v2
			c0,0,0,1,1,1h14c0,0,1,0,1-1v-2C40,30,40,29,39,29L39,29z"/>
	</g>
	<g>
		<path fill="#AEAEAE" d="M49,39c0,0,0,1,1,1h5c0,0,1,0,1-1v-5c0,0,0-1-1-1h-5c0,0-1,0-1,1V39z"/>
	</g>
	<path fill="#3D3C3E" d="M27,36c0,0-1,0-1,1s1,1,1,1h3c0,0,1,0,1-1s-1-1-1-1H27z"/>
	<path fill="#3D3C3E" d="M34,36c0,0-1,0-1,1s1,1,1,1h3c0,0,1,0,1-1s-1-1-1-1H34z"/>
	<path fill="#AEAEAE" d="M48,34v5c0,1-1,1-1,1h-5c-1,0-1-1-1-1v-5c0-1,1-1,1-1h5C48,33,48,34,48,34z"/>
	<g>
		<circle fill="#DF5754" cx="45.5" cy="37.5" r="2.5"/>
	</g>
	<g>
		<circle fill="#DF5754" cx="53.5" cy="37.5" r="2.5"/>
	</g>
	<g>
		<path fill="#3D3C3E" d="M59.992,17C60.453,17.013,61,17.197,61,18v26.988C60.988,45.45,60.806,46,60,46H4.012
			C3.55,45.988,3,45.806,3,45V18.012C3.012,17.55,3.195,17,4,17H59.992 M60,16H4c-2,0-2,2-2,2v27c0,2,2,2,2,2h56c2,0,2-2,2-2V18
			C62,16,60,16,60,16L60,16z"/>
	</g>
	<g>
		<path fill="#3D3C3E" d="M44.5,35c0.827,0,1.5,0.673,1.5,1.5S45.327,38,44.5,38S43,37.327,43,36.5S43.673,35,44.5,35 M44.5,34
			c-1.381,0-2.5,1.119-2.5,2.5s1.119,2.5,2.5,2.5s2.5-1.119,2.5-2.5S45.881,34,44.5,34L44.5,34z"/>
	</g>
	<g>
		<path fill="#3D3C3E" d="M52.5,35c0.827,0,1.5,0.673,1.5,1.5S53.327,38,52.5,38S51,37.327,51,36.5S51.673,35,52.5,35 M52.5,34
			c-1.381,0-2.5,1.119-2.5,2.5s1.119,2.5,2.5,2.5s2.5-1.119,2.5-2.5S53.881,34,52.5,34L52.5,34z"/>
	</g>
	<path fill="#DF5754" d="M55,24.5c0-0.276-0.224-0.5-0.5-0.5h-12c-0.276,0-0.5,0.224-0.5,0.5l0,0c0,0.276,0.224,0.5,0.5,0.5h12
		C54.776,25,55,24.776,55,24.5L55,24.5z"/>
	<path fill="#DF5754" d="M45,41.5c0-0.276,0.224-0.5,0.5-0.5h2c0.276,0,0.5,0.224,0.5,0.5l0,0c0,0.276-0.224,0.5-0.5,0.5h-2
		C45.224,42,45,41.776,45,41.5L45,41.5z"/>
	<path fill="#DF5754" d="M53,41.5c0-0.276,0.224-0.5,0.5-0.5h2c0.276,0,0.5,0.224,0.5,0.5l0,0c0,0.276-0.224,0.5-0.5,0.5h-2
		C53.224,42,53,41.776,53,41.5L53,41.5z"/>
	<g>
		<path fill="#AEAEAE" d="M16,27v4h4v3h-4v4h-3v-4H9v-3h4v-4H16 M16,26h-3c-0.552,0-1,0.448-1,1v3H9c-0.552,0-1,0.448-1,1v3
			c0,0.553,0.448,1,1,1h3v3c0,0.553,0.448,1,1,1h3c0.552,0,1-0.447,1-1v-3h3c0.552,0,1-0.447,1-1v-3c0-0.552-0.448-1-1-1h-3v-3
			C17,26.448,16.552,26,16,26L16,26z"/>
	</g>
	<g>
		<path fill="#3D3C3E" d="M56.992,21C57.453,21.013,58,21.197,58,22v19.988C57.988,42.45,57.806,43,57,43H7.012
			C6.55,42.988,6,42.806,6,42V22.012C6.012,21.55,6.195,21,7,21H56.992 M57,20H7c-2,0-2,2-2,2s0,18,0,20s2,2,2,2s48,0,50,0s2-2,2-2
			V22C59,20,57,20,57,20L57,20z"/>
	</g>
</g>
</svg>
