<?xml version="1.0" encoding="utf-8"?>
<!-- Generator: Adobe Illustrator 16.0.0, SVG Export Plug-In . SVG Version: 6.00 Build 0)  -->
<!DOCTYPE svg PUBLIC "-//W3C//DTD SVG 1.1//EN" "http://www.w3.org/Graphics/SVG/1.1/DTD/svg11.dtd">
<svg version="1.1" id="Capa_1" xmlns="http://www.w3.org/2000/svg" xmlns:xlink="http://www.w3.org/1999/xlink" x="0px" y="0px"
	 width="64px" height="64px" viewBox="0 0 64 64" enable-background="new 0 0 64 64" xml:space="preserve">
<g>
	<path fill="#FAF1D8" d="M3,20c0,0,0-2,2-2h56c0,0,2,0,2,2c0,5,0,9,0,31c0,0,0,2-2,2S5,53,5,53s-2,0-2-2S3,20,3,20z"/>
</g>
<g>
	<path fill="#C99D67" d="M5,21c0,0,0-1,1-1h54c0,0,1,0,1,1v8c0,0,0,1-1,1S6,30,6,30s-1,0-1-1S5,21,5,21z"/>
</g>
<g>
	<path fill="#3D3C3E" d="M58.979,20c0.007,0.001,0.014,0.002,0.021,0.003l0.001,7.968C59,27.98,58.999,27.99,58.996,28L5.028,28
		C5.02,28,5.01,27.999,5,27.997l0-7.968C5,20.02,5.001,20.01,5.003,20H58.979 M59,19H5c-1,0-1,1-1,1s0,7,0,8s1,1,1,1s53,0,54,0
		s1-1,1-1v-8C60,19,59,19,59,19L59,19z"/>
</g>
<g>
	<rect x="6" y="21" fill="#5FDB76" width="39" height="6"/>
</g>
<g>
	<path fill="#3D3C3E" d="M44,22v4H7v-4H44 M45,21H6v6h39V21L45,21z"/>
</g>
<g>
	<rect x="6" y="32" fill="#AEAEAE" width="4" height="3"/>
</g>
<g>
	<rect x="6" y="36" fill="#AEAEAE" width="4" height="3"/>
</g>
<g>
	<rect x="6" y="40" fill="#AEAEAE" width="4" height="3"/>
</g>
<g>
	<rect x="11" y="40" fill="#AEAEAE" width="4" height="3"/>
</g>
<g>
	<rect x="11" y="36" fill="#AEAEAE" width="4" height="3"/>
</g>
<g>
	<rect x="11" y="32" fill="#AEAEAE" width="4" height="3"/>
</g>
<g>
	<rect x="16" y="40" fill="#AEAEAE" width="4" height="3"/>
</g>
<g>
	<rect x="16" y="36" fill="#AEAEAE" width="4" height="3"/>
</g>
<g>
	<rect x="45" y="32" fill="#707070" width="4" height="3"/>
</g>
<g>
	<rect x="45" y="36" fill="#707070" width="4" height="3"/>
</g>
<g>
	<rect x="45" y="40" fill="#707070" width="4" height="3"/>
</g>
<g>
	<rect x="40" y="32" fill="#707070" width="4" height="3"/>
</g>
<g>
	<rect x="40" y="36" fill="#707070" width="4" height="3"/>
</g>
<g>
	<rect x="40" y="40" fill="#707070" width="4" height="3"/>
</g>
<g>
	<rect x="50" y="40" fill="#707070" width="4" height="3"/>
</g>
<g>
	<rect x="50" y="36" fill="#707070" width="4" height="3"/>
</g>
<g>
	<rect x="50" y="32" fill="#707070" width="4" height="3"/>
</g>
<g>
	<rect x="55" y="40" fill="#707070" width="4" height="3"/>
</g>
<g>
	<rect x="45" y="44" fill="#707070" width="4" height="3"/>
</g>
<g>
	<rect x="40" y="44" fill="#707070" width="4" height="3"/>
</g>
<g>
	<rect x="50" y="44" fill="#707070" width="4" height="3"/>
</g>
<g>
	<rect x="55" y="44" fill="#707070" width="4" height="3"/>
</g>
<g>
	<rect x="55" y="36" fill="#707070" width="4" height="3"/>
</g>
<g>
	<rect x="55" y="32" fill="#DF5754" width="4" height="3"/>
</g>
<g>
	<path fill="#3D3C3E" d="M47,32v1h-2v-1H47 M48,31h-4v3h4V31L48,31z"/>
</g>
<g>
	<path fill="#3D3C3E" d="M47,36v1h-2v-1H47 M48,35h-4v3h4V35L48,35z"/>
</g>
<g>
	<path fill="#3D3C3E" d="M47,40v1h-2v-1H47 M48,39h-4v3h4V39L48,39z"/>
</g>
<g>
	<path fill="#3D3C3E" d="M42,32v1h-2v-1H42 M43,31h-4v3h4V31L43,31z"/>
</g>
<g>
	<path fill="#3D3C3E" d="M42,36v1h-2v-1H42 M43,35h-4v3h4V35L43,35z"/>
</g>
<g>
	<path fill="#3D3C3E" d="M42,40v1h-2v-1H42 M43,39h-4v3h4V39L43,39z"/>
</g>
<g>
	<path fill="#3D3C3E" d="M52,40v1h-2v-1H52 M53,39h-4v3h4V39L53,39z"/>
</g>
<g>
	<path fill="#3D3C3E" d="M52,36v1h-2v-1H52 M53,35h-4v3h4V35L53,35z"/>
</g>
<g>
	<path fill="#3D3C3E" d="M52,32v1h-2v-1H52 M53,31h-4v3h4V31L53,31z"/>
</g>
<g>
	<path fill="#3D3C3E" d="M57,40v1h-2v-1H57 M58,39h-4v3h4V39L58,39z"/>
</g>
<g>
	<path fill="#3D3C3E" d="M47,44v1h-2v-1H47 M48,43h-4v3h4V43L48,43z"/>
</g>
<g>
	<path fill="#3D3C3E" d="M42,44v1h-2v-1H42 M43,43h-4v3h4V43L43,43z"/>
</g>
<g>
	<path fill="#3D3C3E" d="M52,44v1h-2v-1H52 M53,43h-4v3h4V43L53,43z"/>
</g>
<g>
	<path fill="#3D3C3E" d="M57,44v1h-2v-1H57 M58,43h-4v3h4V43L58,43z"/>
</g>
<g>
	<path fill="#3D3C3E" d="M57,36v1h-2v-1H57 M58,35h-4v3h4V35L58,35z"/>
</g>
<g>
	<path fill="#3D3C3E" d="M57,32v1h-2v-1H57 M58,31h-4v3h4V31L58,31z"/>
</g>
<g>
	<rect x="21" y="40" fill="#AEAEAE" width="4" height="3"/>
</g>
<g>
	<rect x="21" y="36" fill="#AEAEAE" width="4" height="3"/>
</g>
<g>
	<rect x="26" y="36" fill="#AEAEAE" width="4" height="3"/>
</g>
<g>
	<rect x="26" y="32" fill="#AEAEAE" width="4" height="3"/>
</g>
<g>
	<rect x="26" y="40" fill="#AEAEAE" width="9" height="3"/>
</g>
<g>
	<rect x="31" y="36" fill="#AEAEAE" width="4" height="3"/>
</g>
<g>
	<rect x="31" y="32" fill="#C99D67" width="4" height="3"/>
</g>
<g>
	<path fill="#3D3C3E" d="M8,32v1H6v-1H8 M9,31H5v3h4V31L9,31z"/>
</g>
<g>
	<path fill="#3D3C3E" d="M8,36v1H6v-1H8 M9,35H5v3h4V35L9,35z"/>
</g>
<g>
	<path fill="#3D3C3E" d="M8,40v1H6v-1H8 M9,39H5v3h4V39L9,39z"/>
</g>
<g>
	<path fill="#3D3C3E" d="M13,40v1h-2v-1H13 M14,39h-4v3h4V39L14,39z"/>
</g>
<g>
	<path fill="#3D3C3E" d="M13,36v1h-2v-1H13 M14,35h-4v3h4V35L14,35z"/>
</g>
<g>
	<path fill="#3D3C3E" d="M13,32v1h-2v-1H13 M14,31h-4v3h4V31L14,31z"/>
</g>
<g>
	<path fill="#3D3C3E" d="M18,40v1h-2v-1H18 M19,39h-4v3h4V39L19,39z"/>
</g>
<g>
	<path fill="#3D3C3E" d="M18,36v1h-2v-1H18 M19,35h-4v3h4V35L19,35z"/>
</g>
<g>
	<path fill="#3D3C3E" d="M23,40v1h-2v-1H23 M24,39h-4v3h4V39L24,39z"/>
</g>
<g>
	<path fill="#3D3C3E" d="M23,36v1h-2v-1H23 M24,35h-4v3h4V35L24,35z"/>
</g>
<g>
	<path fill="#3D3C3E" d="M28,36v1h-2v-1H28 M29,35h-4v3h4V35L29,35z"/>
</g>
<g>
	<path fill="#3D3C3E" d="M28,32v1h-2v-1H28 M29,31h-4v3h4V31L29,31z"/>
</g>
<g>
	<path fill="#3D3C3E" d="M33,40v1h-7v-1H33 M34,39h-9v3h9V39L34,39z"/>
</g>
<g>
	<path fill="#3D3C3E" d="M33,36v1h-2v-1H33 M34,35h-4v3h4V35L34,35z"/>
</g>
<g>
	<path fill="#3D3C3E" d="M33,32v1h-2v-1H33 M34,31h-4v3h4V31L34,31z"/>
</g>
<g>
	<path fill="#3D3C3E" d="M59.992,18C60.453,18.013,61,18.197,61,19v30.988C60.988,50.45,60.806,51,60,51H4.012
		C3.55,50.988,3,50.806,3,50V19.012C3.012,18.55,3.195,18,4,18H59.992 M60,17H4c-2,0-2,2-2,2s0,29,0,31s2,2,2,2s54,0,56,0s2-2,2-2
		s0-29,0-31S60,17,60,17L60,17z"/>
</g>
<path fill="#3D3C3E" d="M58,25.5c0-0.276-0.224-0.5-0.5-0.5h-11c-0.276,0-0.5,0.224-0.5,0.5l0,0c0,0.276,0.224,0.5,0.5,0.5h11
	C57.776,26,58,25.776,58,25.5L58,25.5z"/>
<path fill="#3D3C3E" d="M57,23.5c0-0.276-0.224-0.5-0.5-0.5h-9c-0.276,0-0.5,0.224-0.5,0.5l0,0c0,0.276,0.224,0.5,0.5,0.5h9
	C56.776,24,57,23.776,57,23.5L57,23.5z"/>
<rect x="3" y="48" fill="#3D3C3E" width="58" height="1"/>
</svg>
