<?xml version="1.0" encoding="utf-8"?>
<!-- Generator: Adobe Illustrator 16.0.0, SVG Export Plug-In . SVG Version: 6.00 Build 0)  -->
<!DOCTYPE svg PUBLIC "-//W3C//DTD SVG 1.1//EN" "http://www.w3.org/Graphics/SVG/1.1/DTD/svg11.dtd">
<svg version="1.1" id="Capa_1" xmlns="http://www.w3.org/2000/svg" xmlns:xlink="http://www.w3.org/1999/xlink" x="0px" y="0px"
	 width="64px" height="64px" viewBox="0 0 64 64" enable-background="new 0 0 64 64" xml:space="preserve">
<g>
	<path fill="#FAF1D8" d="M60,42c0,1,0,3,0,3H8c0,0,0-2,0-3s1-6,1-6l1-21c0,0,0-3,4-3h40c4,0,4,3,4,3l1,21C59,36,60,41,60,42z"/>
</g>
<rect x="31" y="30" fill="#F5AD60" width="1" height="12"/>
<rect x="32" y="30" fill="#F8EF7A" width="1" height="12"/>
<rect x="33" y="30" fill="#5FDB76" width="1" height="12"/>
<rect x="34" y="30" fill="#70B8E0" width="1" height="12"/>
<rect x="30" y="30" fill="#DF5754" width="1" height="12"/>
<rect x="29" y="30" fill="#FF6A8C" width="1" height="12"/>
<g>
	<circle fill="#AEAEAE" cx="33" cy="23" r="9"/>
</g>
<g>
	<circle fill="#707070" cx="32" cy="22" r="6"/>
</g>
<circle opacity="0.2" fill="#FAF1D8" cx="34" cy="20" r="3"/>
<g>
	<path fill="#707070" d="M60,44v1c0,0,0,9-1,11s-3,2-3,2H12c0,0-2,0-3-2S8,45,8,45v-1H60z"/>
</g>
<g>
	<path fill="#3D3C3E" d="M57,43c0,3.389-0.243,9.25-0.895,10.553C55.407,54.95,54.046,54.999,54,55H10
		c-0.014,0-1.39-0.017-2.105-1.447C7.243,52.25,7,46.389,7,43H57 M58,42H6v1c0,0,0,9,1,11s3,2,3,2h44c0,0,2,0,3-2s1-11,1-11V42
		L58,42z"/>
</g>
<g>
	<path fill="#3D3C3E" d="M32,17c2.757,0,5,2.243,5,5s-2.243,5-5,5s-5-2.243-5-5S29.243,17,32,17 M32,16c-3.314,0-6,2.686-6,6
		s2.686,6,6,6c3.313,0,6-2.686,6-6S35.313,16,32,16L32,16z"/>
</g>
<g>
	<path fill="#AEAEAE" d="M44,14c0,0,0-1,1-1h8c0,0,1,0,1,1v8c0,0,0,1-1,1s-8,0-8,0s-1,0-1-1S44,14,44,14z"/>
</g>
<g>
	<circle fill="#707070" cx="47.5" cy="28.5" r="3.5"/>
</g>
<g>
	<path fill="#3D3C3E" d="M46.5,25c1.379,0,2.5,1.122,2.5,2.5S47.879,30,46.5,30S44,28.878,44,27.5S45.121,25,46.5,25 M46.5,24
		c-1.933,0-3.5,1.567-3.5,3.5s1.567,3.5,3.5,3.5s3.5-1.567,3.5-3.5S48.433,24,46.5,24L46.5,24z"/>
</g>
<g>
	<path fill="#707070" d="M10,19c0,0,0-1,1-1s9,0,9,0s1,0,1,1v2c0,0,0,1-1,1s-9,0-9,0s-1,0-1-1S10,19,10,19z"/>
</g>
<g>
	<path fill="#3D3C3E" d="M19.978,19c0.007,0.001,0.014,0.002,0.022,0.003l0,1.968c0,0.008-0.002,0.018-0.004,0.028l-8.968,0
		C11.02,21,11.01,20.999,11,20.997l0-1.968c0-0.008,0.002-0.018,0.004-0.028H19.978 M20,18c0,0-8,0-9,0s-1,1-1,1s0,1,0,2s1,1,1,1
		s8,0,9,0s1-1,1-1v-2C21,18,20,18,20,18L20,18z"/>
</g>
<g>
	<circle fill="#DF5754" cx="17" cy="29" r="4"/>
</g>
<g>
	<polygon fill="#707070" points="24,11 24,12 42,12 42,11 40,9 26,9 	"/>
</g>
<g>
	<polygon fill="#3D3C3E" points="49,48 49,49 46,52 18,52 15,49 15,48 	"/>
</g>
<rect x="7" y="34" fill="#3D3C3E" width="50" height="1"/>
<g>
	<circle fill="#707070" cx="49" cy="18" r="4"/>
</g>
<circle opacity="0.2" fill="#FAF1D8" cx="50" cy="17" r="2"/>
<g>
	<path fill="#3D3C3E" d="M49,15c1.654,0,3,1.346,3,3s-1.346,3-3,3s-3-1.346-3-3S47.346,15,49,15 M49,14c-2.209,0-4,1.791-4,4
		s1.791,4,4,4s4-1.791,4-4S51.209,14,49,14L49,14z"/>
</g>
<g>
	<rect x="10" y="44" fill="#AEAEAE" width="44" height="5"/>
</g>
<g>
	<path fill="#3D3C3E" d="M53,45v3H11v-3H53 M54,44H10v5h44V44L54,44z"/>
</g>
<g>
	<path fill="#3D3C3E" d="M52,11c2.8,0,2.99,1.678,3.001,2.047l1,21l0.004,0.074l0.015,0.074C56.398,36.092,57,39.344,57,40v2H7v-2
		c0-0.656,0.602-3.908,0.98-5.804l0.015-0.074l0.004-0.074L9,13c0-0.082,0.034-2,3-2H52 M52,10H12c-4,0-4,3-4,3L7,34c0,0-1,5-1,6
		s0,3,0,3h52c0,0,0-2,0-3s-1-6-1-6l-1-21C56,13,56,10,52,10L52,10z"/>
</g>
<g>
	<path fill="#3D3C3E" d="M16,25c1.654,0,3,1.346,3,3s-1.346,3-3,3s-3-1.346-3-3S14.346,25,16,25 M16,24c-2.209,0-4,1.791-4,4
		s1.791,4,4,4s4-1.791,4-4S18.209,24,16,24L16,24z"/>
</g>
<g>
	<path fill="#3D3C3E" d="M32,14c4.411,0,8,3.589,8,8s-3.589,8-8,8s-8-3.589-8-8S27.589,14,32,14 M32,13c-4.971,0-9,4.029-9,9
		s4.029,9,9,9s9-4.029,9-9S36.971,13,32,13L32,13z"/>
</g>
<g>
	<path fill="#3D3C3E" d="M38.586,9l1,1H24.414l1-1H38.586 M39,8H25l-2,2v1h18v-1L39,8L39,8z"/>
</g>
<g>
	<path fill="#3D3C3E" d="M52.979,14c0.007,0.001,0.014,0.002,0.021,0.003l0.001,7.968C53,21.98,52.999,21.99,52.996,22l-7.968,0
		C45.02,22,45.01,21.999,45,21.997l-0.001-7.968C45,14.02,45.001,14.01,45.004,14H52.979 M53,13h-8c-1,0-1,1-1,1s0,7,0,8s1,1,1,1
		s7,0,8,0s1-1,1-1v-8C54,13,53,13,53,13L53,13z"/>
</g>
<path fill="#FFFFFF" d="M47,46.5c0-0.276-0.224-0.5-0.5-0.5h-29c-0.276,0-0.5,0.224-0.5,0.5l0,0c0,0.276,0.224,0.5,0.5,0.5h29
	C46.776,47,47,46.776,47,46.5L47,46.5z"/>
</svg>
