<?xml version="1.0" encoding="utf-8"?>
<!-- Generator: Adobe Illustrator 16.0.0, SVG Export Plug-In . SVG Version: 6.00 Build 0)  -->
<!DOCTYPE svg PUBLIC "-//W3C//DTD SVG 1.1//EN" "http://www.w3.org/Graphics/SVG/1.1/DTD/svg11.dtd">
<svg version="1.1" id="Capa_1" xmlns="http://www.w3.org/2000/svg" xmlns:xlink="http://www.w3.org/1999/xlink" x="0px" y="0px"
	 width="64px" height="64px" viewBox="0 0 64 64" enable-background="new 0 0 64 64" xml:space="preserve">
<g>
	<path fill="#AEAEAE" d="M5,22c0,0,0-2,2-2h53c0,0,2,0,2,2v29c0,0,0,2-2,2H7c0,0-2,0-2-2S5,22,5,22z"/>
</g>
<g>
	<path fill="#707070" d="M54,20h6c0,0,2,0,2,2v29c0,0,0,2-2,2s-6,0-6,0V20z"/>
</g>
<g>
	<path fill="#3D3C3E" d="M53,25v26H17V26.012C17.012,25.55,17.195,25,18,25H53 M54,24H18c-2,0-2,2-2,2v26h38V24L54,24z"/>
</g>
<g>
	<polygon fill="#707070" points="26,20 26,21 54,21 54,20 52,18 28,18 	"/>
</g>
<g>
	<path fill="#707070" d="M19,35v10c0,0,0,2,2,2h28c0,0,2,0,2-2s0-10,0-10H19z"/>
</g>
<g>
	<rect x="31" y="15" fill="#AEAEAE" width="4" height="4"/>
</g>
<g>
	<rect x="36" y="15" fill="#AEAEAE" width="4" height="4"/>
</g>
<g>
	<rect x="41" y="15" fill="#AEAEAE" width="4" height="4"/>
</g>
<g>
	<rect x="47" y="15" fill="#DF5754" width="4" height="4"/>
</g>
<path fill="#3D3C3E" d="M32,31.5c0-0.276,0.224-0.5,0.5-0.5h1c0.276,0,0.5,0.224,0.5,0.5l0,0c0,0.276-0.224,0.5-0.5,0.5h-1
	C32.224,32,32,31.776,32,31.5L32,31.5z"/>
<path fill="#3D3C3E" d="M28,31.5c0-0.276,0.224-0.5,0.5-0.5h1c0.276,0,0.5,0.224,0.5,0.5l0,0c0,0.276-0.224,0.5-0.5,0.5h-1
	C28.224,32,28,31.776,28,31.5L28,31.5z"/>
<path fill="#3D3C3E" d="M36,31.5c0-0.276,0.224-0.5,0.5-0.5h1c0.276,0,0.5,0.224,0.5,0.5l0,0c0,0.276-0.224,0.5-0.5,0.5h-1
	C36.224,32,36,31.776,36,31.5L36,31.5z"/>
<path fill="#3D3C3E" d="M40,31.5c0-0.276,0.224-0.5,0.5-0.5h1c0.276,0,0.5,0.224,0.5,0.5l0,0c0,0.276-0.224,0.5-0.5,0.5h-1
	C40.224,32,40,31.776,40,31.5L40,31.5z"/>
<g opacity="0.5">
	<path fill="#3D3C3E" d="M32,39.5c0-1.933-1.567-3.5-3.5-3.5l0,0c-1.933,0-3.5,1.567-3.5,3.5l0,0c0,1.933,1.567,3.5,3.5,3.5l0,0
		C30.433,43,32,41.433,32,39.5L32,39.5z"/>
</g>
<g opacity="0.5">
	<path fill="#3D3C3E" d="M47,39.5c0-1.933-1.566-3.5-3.5-3.5l0,0c-1.934,0-3.5,1.567-3.5,3.5l0,0c0,1.933,1.566,3.5,3.5,3.5l0,0
		C45.434,43,47,41.433,47,39.5L47,39.5z"/>
</g>
<rect x="53" y="26" fill="#3D3C3E" width="8" height="1"/>
<rect x="50" y="21" fill="#3D3C3E" width="1" height="2"/>
<rect x="48" y="21" fill="#3D3C3E" width="1" height="2"/>
<rect x="46" y="21" fill="#3D3C3E" width="1" height="2"/>
<g>
	<rect x="33" y="38" fill="#AEAEAE" width="6" height="4"/>
</g>
<rect x="19" y="33" fill="#3D3C3E" width="32" height="1"/>
<rect x="8" y="20" fill="#3D3C3E" width="1" height="31"/>
<g>
	<path fill="#3D3C3E" d="M58.992,20C59.453,20.013,60,20.197,60,21v28.988C59.988,50.45,59.806,51,59,51H6.012
		C5.55,50.988,5,50.806,5,50V21.012C5.012,20.55,5.195,20,6,20H58.992 M59,19H6c-2,0-2,2-2,2s0,27,0,29s2,2,2,2h53c2,0,2-2,2-2V21
		C61,19,59,19,59,19L59,19z"/>
</g>
<g>
	<path fill="#3D3C3E" d="M58.992,20C59.453,20.013,60,20.197,60,21v28.988C59.988,50.45,59.806,51,59,51h-5V20H58.992 M59,19h-6v33
		c0,0,4,0,6,0s2-2,2-2V21C61,19,59,19,59,19L59,19z"/>
</g>
<g>
	<path fill="#3D3C3E" d="M50,36v9c0,0.806-0.55,0.988-1,1H21c-0.805,0-0.988-0.55-1-1v-9H50 M51,35H19v10c0,0,0,2,2,2h28
		c0,0,2,0,2-2S51,35,51,35L51,35z"/>
</g>
<g>
	<path fill="#3D3C3E" d="M27.5,36c1.378,0,2.5,1.121,2.5,2.5S28.878,41,27.5,41S25,39.879,25,38.5S26.122,36,27.5,36 M27.5,35
		c-1.933,0-3.5,1.567-3.5,3.5s1.567,3.5,3.5,3.5s3.5-1.567,3.5-3.5S29.433,35,27.5,35L27.5,35z"/>
</g>
<g>
	<path fill="#3D3C3E" d="M42.5,36c1.379,0,2.5,1.121,2.5,2.5S43.879,41,42.5,41S40,39.879,40,38.5S41.121,36,42.5,36 M42.5,35
		c-1.934,0-3.5,1.567-3.5,3.5s1.566,3.5,3.5,3.5s3.5-1.567,3.5-3.5S44.434,35,42.5,35L42.5,35z"/>
</g>
<g>
	<path fill="#3D3C3E" d="M37,38v2h-4v-2H37 M38,37h-6v4h6V37L38,37z"/>
</g>
<g>
	<path fill="#3D3C3E" d="M50.586,18l1,1H26.414l1-1H50.586 M51,17H27l-2,2v1h28v-1L51,17L51,17z"/>
</g>
<g>
	<path fill="#3D3C3E" d="M33,15v2h-2v-2H33 M34,14h-4v4h4V14L34,14z"/>
</g>
<g>
	<path fill="#3D3C3E" d="M38,15v2h-2v-2H38 M39,14h-4v4h4V14L39,14z"/>
</g>
<g>
	<path fill="#3D3C3E" d="M43,15v2h-2v-2H43 M44,14h-4v4h4V14L44,14z"/>
</g>
<g>
	<path fill="#3D3C3E" d="M49,15v2h-2v-2H49 M50,14h-4v4h4V14L50,14z"/>
</g>
</svg>
