<?xml version="1.0" encoding="utf-8"?>
<!-- Generator: Adobe Illustrator 16.0.0, SVG Export Plug-In . SVG Version: 6.00 Build 0)  -->
<!DOCTYPE svg PUBLIC "-//W3C//DTD SVG 1.1//EN" "http://www.w3.org/Graphics/SVG/1.1/DTD/svg11.dtd">
<svg version="1.1" id="Capa_1" xmlns="http://www.w3.org/2000/svg" xmlns:xlink="http://www.w3.org/1999/xlink" x="0px" y="0px"
	 width="64px" height="64px" viewBox="0 0 64 64" enable-background="new 0 0 64 64" xml:space="preserve">
<g>
	<path fill="#707070" d="M2,20c0,0,0-2,2-2h58c0,0,2,0,2,2v26c0,0,0,2-2,2H4c0,0-2,0-2-2V20z"/>
</g>
<rect x="40" y="28" fill="#AEAEAE" width="10" height="14"/>
<rect x="51" y="28" fill="#AEAEAE" width="10" height="14"/>
<g>
	<rect x="4" y="17" fill="#3D3C3E" width="29" height="30"/>
</g>
<rect x="6" y="20" fill="#DF5754" width="25" height="25"/>
<g>
	<path fill="#AEAEAE" d="M8,43c0,0,0,2,2,2h19c0,0,2,0,2-2s0-19,0-19s0-2-2-2s-19,0-19,0s-2,0-2,2S8,43,8,43z"/>
</g>
<g>
	<path fill="#3D3C3E" d="M28,22c0.805,0,0.988,0.55,1,1v19c0,0.806-0.55,0.988-1,1H9c-0.805,0-0.988-0.55-1-1V23
		c0-0.805,0.55-0.988,1-1H28 M28,21c-2,0-19,0-19,0s-2,0-2,2s0,19,0,19s0,2,2,2h19c0,0,2,0,2-2s0-19,0-19S30,21,28,21L28,21z"/>
</g>
<g>
	<path fill="#707070" d="M11,29c0,0,0-4,4-4h9c0,0,4,0,4,4s0,9,0,9s0,4-4,4s-9,0-9,0s-4,0-4-4V29z"/>
</g>
<g>
	<path fill="#3D3C3E" d="M22.996,25C23.502,25.006,26,25.18,26,28v8.994C25.994,37.496,25.823,40,23,40h-8.995
		C13.503,39.994,11,39.823,11,37v-8.995C11.006,27.503,11.177,25,14,25H22.996 M23,24h-9c-4,0-4,4-4,4v9c0,4,4,4,4,4s5,0,9,0
		s4-4,4-4s0-5,0-9S23,24,23,24L23,24z"/>
</g>
<line fill="none" stroke="#3D3C3E" stroke-miterlimit="10" x1="25.625" y1="39.625" x2="29" y2="43"/>
<line fill="none" stroke="#3D3C3E" stroke-miterlimit="10" x1="8" y1="22" x2="11.316" y2="25.316"/>
<line fill="none" stroke="#3D3C3E" stroke-miterlimit="10" x1="11.458" y1="39.542" x2="8" y2="43"/>
<line fill="none" stroke="#3D3C3E" stroke-miterlimit="10" x1="29" y1="22" x2="25.583" y2="25.417"/>
<path fill="#3D3C3E" d="M19,29.5c0,0.276-0.224,0.5-0.5,0.5l0,0c-0.276,0-0.5-0.224-0.5-0.5v-3c0-0.276,0.224-0.5,0.5-0.5l0,0
	c0.276,0,0.5,0.224,0.5,0.5V29.5z"/>
<path fill="#3D3C3E" d="M19,38.5c0,0.276-0.224,0.5-0.5,0.5l0,0c-0.276,0-0.5-0.224-0.5-0.5v-3c0-0.276,0.224-0.5,0.5-0.5l0,0
	c0.276,0,0.5,0.224,0.5,0.5V38.5z"/>
<path fill="#3D3C3E" d="M16,32.5c0-0.276-0.224-0.5-0.5-0.5h-3c-0.276,0-0.5,0.224-0.5,0.5l0,0c0,0.276,0.224,0.5,0.5,0.5h3
	C15.776,33,16,32.776,16,32.5L16,32.5z"/>
<path fill="#3D3C3E" d="M25,32.5c0-0.276-0.224-0.5-0.5-0.5h-3c-0.276,0-0.5,0.224-0.5,0.5l0,0c0,0.276,0.224,0.5,0.5,0.5h3
	C24.776,33,25,32.776,25,32.5L25,32.5z"/>
<g>
	<path fill="#3D3C3E" d="M62,28v13H33V28H62 M63,27H32v15h31V27L63,27z"/>
</g>
<g>
	<circle fill="#707070" cx="46" cy="37" r="4"/>
</g>
<g>
	<circle fill="#707070" cx="57" cy="37" r="4"/>
</g>
<g>
	<rect x="41" y="28" fill="#DF5754" width="10" height="4"/>
</g>
<g>
	<rect x="52" y="28" fill="#DF5754" width="10" height="4"/>
</g>
<g>
	<path fill="#3D3C3E" d="M49,28v2h-8v-2H49 M50,27H40v4h10V27L50,27z"/>
</g>
<g>
	<path fill="#3D3C3E" d="M60,28v2h-8v-2H60 M61,27H51v4h10V27L61,27z"/>
</g>
<g>
	<path fill="#3D3C3E" d="M60.992,18C61.453,18.013,62,18.197,62,19v25.988C61.988,45.45,61.806,46,61,46H3.012
		C2.55,45.988,2,45.806,2,45V19.012C2.012,18.55,2.195,18,3,18H60.992 M61,17H3c-2,0-2,2-2,2v26c0,2,2,2,2,2h58c2,0,2-2,2-2V19
		C63,17,61,17,61,17L61,17z"/>
</g>
<g>
	<path fill="#3D3C3E" d="M45,33c1.654,0,3,1.346,3,3s-1.346,3-3,3s-3-1.346-3-3S43.346,33,45,33 M45,32c-2.209,0-4,1.791-4,4
		s1.791,4,4,4s4-1.791,4-4S47.209,32,45,32L45,32z"/>
</g>
<g>
	<path fill="#3D3C3E" d="M56,33c1.654,0,3,1.346,3,3s-1.346,3-3,3s-3-1.346-3-3S54.346,33,56,33 M56,32c-2.209,0-4,1.791-4,4
		s1.791,4,4,4s4-1.791,4-4S58.209,32,56,32L56,32z"/>
</g>
<rect x="34" y="28" fill="#3D3C3E" width="1" height="13"/>
<rect x="36" y="28" fill="#3D3C3E" width="1" height="13"/>
<rect x="38" y="28" fill="#3D3C3E" width="1" height="13"/>
</svg>
