<?xml version="1.0" encoding="utf-8"?>
<!-- Generator: Adobe Illustrator 16.0.0, SVG Export Plug-In . SVG Version: 6.00 Build 0)  -->
<!DOCTYPE svg PUBLIC "-//W3C//DTD SVG 1.1//EN" "http://www.w3.org/Graphics/SVG/1.1/DTD/svg11.dtd">
<svg version="1.1" id="Capa_1" xmlns="http://www.w3.org/2000/svg" xmlns:xlink="http://www.w3.org/1999/xlink" x="0px" y="0px"
	 width="64px" height="64px" viewBox="0 0 64 64" enable-background="new 0 0 64 64" xml:space="preserve">
<g>
	<path fill="#707070" d="M64,29.28V41.5c0,1.98-1.64,2.5-2.5,2.5h-57C2.52,44,2,42.36,2,41.5V29.28l9.31-8.8L11.82,20H53.8
		l0.561,0.51L64,29.28z"/>
</g>
<rect x="21" y="36" fill="#AEAEAE" width="14" height="5"/>
<rect x="39" y="39" fill="#AEAEAE" width="11" height="3"/>
<g>
	<rect x="2" y="35" fill="#3D3C3E" width="60" height="1"/>
</g>
<g>
	<path fill="#3D3C3E" d="M48,36v4h-9v-4H48L48,36z M49,35H38v6h11V35L49,35z"/>
</g>
<g>
	<path fill="#3D3C3E" d="M33,36v3H21v-3H33L33,36z M34,35H20v5h14V35L34,35z"/>
</g>
<g>
	<rect x="6" y="37" fill="#3D3C3E" width="7" height="4"/>
</g>
<g>
	<rect x="32" y="21" fill="#DF5754" width="17" height="11"/>
</g>
<g>
	<path fill="#3D3C3E" d="M32,21v11h17V21H32z M48,31H33v-9h15V31z"/>
</g>
<g>
	<rect x="38" y="38" fill="#3D3C3E" width="11" height="1"/>
</g>
<g>
	<rect x="23" y="36" fill="#3D3C3E" width="3" height="3"/>
</g>
<g>
	<rect x="28" y="36" fill="#3D3C3E" width="3" height="3"/>
</g>
<g>
	<rect x="2" y="33" fill="#DF5754" width="60" height="1"/>
</g>
<g>
	<rect x="33" y="24" fill="#3D3C3E" width="15" height="2"/>
</g>
<g>
	<path fill="#AEAEAE" d="M12,38v2H7v-2H12L12,38z M13,37H6v4h7V37L13,37z"/>
</g>
<g>
	<path fill="#3D3C3E" d="M53.36,19.51L52.8,19H10.82l-0.51,0.48L1,28.28V40.5C1,41.36,1.52,43,3.5,43h57c0.86,0,2.5-0.52,2.5-2.5
		V28.28L53.36,19.51z M12,20h40v1H12V20z M52,22l8.1,9H3.9l8.1-9H52z M2,28.72l9-8.52v1.42L2.56,31H2V28.72z M62,40.5
		c0,1.41-1.25,1.5-1.5,1.5h-57C2.09,42,2,40.75,2,40.5V32h60V40.5z M62,31h-0.56L53,21.62v-1.08l9,8.18V31z"/>
</g>
<path fill="#AEAEAE" d="M27,24.5c0-0.276-0.224-0.5-0.5-0.5h-13c-0.276,0-0.5,0.224-0.5,0.5l0,0c0,0.276,0.224,0.5,0.5,0.5h13
	C26.776,25,27,24.776,27,24.5L27,24.5z"/>
</svg>
