<?xml version="1.0" encoding="utf-8"?>
<!-- Generator: Adobe Illustrator 16.0.0, SVG Export Plug-In . SVG Version: 6.00 Build 0)  -->
<!DOCTYPE svg PUBLIC "-//W3C//DTD SVG 1.1//EN" "http://www.w3.org/Graphics/SVG/1.1/DTD/svg11.dtd">
<svg version="1.1" id="Capa_1" xmlns="http://www.w3.org/2000/svg" xmlns:xlink="http://www.w3.org/1999/xlink" x="0px" y="0px"
	 width="64px" height="64px" viewBox="0 0 64 64" enable-background="new 0 0 64 64" xml:space="preserve">
<g>
	<rect x="49.013" y="28.013" fill="#707070" width="3" height="10"/>
</g>
<g>
	<rect x="12" y="33" fill="#707070" width="3" height="4"/>
</g>
<g>
	<rect x="12" y="39" fill="#707070" width="3" height="4"/>
</g>
<g>
	<path fill="#3D3C3E" d="M14,33v2h-1v-2H14 M15,32h-3v4h3V32L15,32z"/>
</g>
<g>
	<path fill="#3D3C3E" d="M14,39v2h-1v-2H14 M15,38h-3v4h3V38L15,38z"/>
</g>
<g>
	<path fill="#AEAEAE" d="M47,50c0,0,0,6-5,6s-8,0-8,0s-3,0-8,0s-5-6-5-6H47z"/>
</g>
<g>
	<path fill="#707070" d="M44,55c0,0,0,6-5,6s-5,0-5,0s0,0-5,0s-5-6-5-6H44z"/>
</g>
<g>
	<path fill="#AEAEAE" d="M47,16c0,0,0-6-5-6s-8,0-8,0s-3,0-8,0s-5,6-5,6H47z"/>
</g>
<g>
	<path fill="#707070" d="M44,11c0,0,0-6-5-6s-5,0-5,0s0,0-5,0s-5,6-5,6H44z"/>
</g>
<g>
	<path fill="#3D3C3E" d="M43.912,50c-0.228,1.462-1.035,4-3.912,4h-8h-8c-2.858,0-3.674-2.538-3.907-4H43.912 M45,49H19c0,0,0,6,5,6
		s8,0,8,0s3,0,8,0S45,49,45,49L45,49z"/>
</g>
<g>
	<path fill="#3D3C3E" d="M40.912,55c-0.228,1.462-1.035,4-3.912,4h-5h-5c-2.858,0-3.674-2.538-3.907-4H40.912 M42,54H22c0,0,0,6,5,6
		s5,0,5,0s0,0,5,0S42,54,42,54L42,54z"/>
</g>
<g>
	<path fill="#3D3C3E" d="M40,11c2.858,0,3.674,2.538,3.907,4H20.088c0.227-1.462,1.035-4,3.912-4h8H40 M40,10c-5,0-8,0-8,0s-3,0-8,0
		s-5,6-5,6h26C45,16,45,10,40,10L40,10z"/>
</g>
<g>
	<path fill="#3D3C3E" d="M37,6c2.858,0,3.674,2.538,3.907,4H23.088C23.315,8.538,24.123,6,27,6h5H37 M37,5c-5,0-5,0-5,0s0,0-5,0
		s-5,6-5,6h20C42,11,42,5,37,5L37,5z"/>
</g>
<g>
	<path fill="#707070" d="M51,22c0,0,0,17,0,23l-6,6H21l-6-6c0-6,0-23,0-23l6-6h24L51,22z"/>
</g>
<g>
	<polygon fill="#3D3C3E" points="21.657,46 18,42.343 18,22.657 21.657,19 42.343,19 46,22.657 46,42.343 42.343,46 	"/>
</g>
<g>
	<path fill="#3D3C3E" d="M41.929,20L45,23.071v18.858L41.929,45H22.071L19,41.929V23.071L22.071,20H41.929 M42.343,19H21.657
		L18,22.657v19.686L21.657,46h20.686L46,42.343V22.657L42.343,19L42.343,19z"/>
</g>
<g>
	<path fill="#DF5754" d="M41.101,24L43,25.899v13.201L41.101,41H22.899L21,39.101V25.899L22.899,24H41.101 M41.515,23H22.485
		L20,25.485v14.029L22.485,42h19.029L44,39.515V25.485L41.515,23L41.515,23z"/>
</g>
<g>
	<path fill="#3D3C3E" d="M43.586,16L49,21.414v22.172L43.586,49H20.414L15,43.586V21.414L20.414,16H43.586 M44,15H20l-6,6
		c0,0,0,17,0,23l6,6h24l6-6c0-6,0-23,0-23L44,15L44,15z"/>
</g>
<g>
	<path fill="#FAF1D8" d="M24,37c-0.45-0.012-1-0.194-1-1v-7c0.012-0.45,0.195-1,1-1h16c0.45,0.012,1,0.195,1,1v7
		c-0.012,0.45-0.194,1-1,1H24z"/>
</g>
<circle fill="#707070" cx="24" cy="13" r="1"/>
<circle fill="#707070" cx="40" cy="13" r="1"/>
<circle fill="#707070" cx="24" cy="52" r="1"/>
<circle fill="#707070" cx="40" cy="52" r="1"/>
<circle fill="#AEAEAE" cx="36" cy="8" r="1"/>
<circle fill="#AEAEAE" cx="27" cy="8" r="1"/>
<circle fill="#AEAEAE" cx="36.688" cy="57" r="1"/>
<circle fill="#AEAEAE" cx="27" cy="57" r="1"/>
<rect x="34" y="27" fill="#3D3C3E" width="1" height="4"/>
<rect x="34" y="31" fill="#3D3C3E" width="7" height="1"/>
<g>
	<path fill="#3D3C3E" d="M51.013,28.013v8h-1v-8H51.013 M52.013,27.013h-3v10h3V27.013L52.013,27.013z"/>
</g>
</svg>
