<?xml version="1.0" encoding="utf-8"?>
<!-- Generator: Adobe Illustrator 16.0.0, SVG Export Plug-In . SVG Version: 6.00 Build 0)  -->
<!DOCTYPE svg PUBLIC "-//W3C//DTD SVG 1.1//EN" "http://www.w3.org/Graphics/SVG/1.1/DTD/svg11.dtd">
<svg version="1.1" id="Capa_1" xmlns="http://www.w3.org/2000/svg" xmlns:xlink="http://www.w3.org/1999/xlink" x="0px" y="0px"
	 width="64px" height="64px" viewBox="0 0 64 64" enable-background="new 0 0 64 64" xml:space="preserve">
<circle fill="#AEAEAE" cx="34" cy="34" r="28"/>
<path fill="#707070" d="M43.58,30H22.42c1.3-4.61,5.55-8,10.58-8C38.03,22,42.28,25.39,43.58,30z"/>
<path fill="#70B8E0" d="M35,45.876l0.785-0.173c4.938-1.086,8.832-4.979,9.918-9.918L45.876,35h12.066l-0.141,1.124
	C56.38,47.466,47.466,56.38,36.124,57.802L35,57.942V45.876z"/>
<path fill="#F7EE7A" d="M29.875,57.802C18.535,56.38,9.621,47.466,8.198,36.124L8.057,35h12.067l0.173,0.785
	c1.086,4.938,4.979,8.832,9.918,9.918L31,45.876v12.066L29.875,57.802z"/>
<path fill="#DF5754" d="M45.876,31l-0.173-0.785c-1.086-4.939-4.979-8.832-9.918-9.918L35,20.124V8.057l1.124,0.141
	C47.466,9.621,56.38,18.535,57.802,29.875L57.942,31H45.876z"/>
<path fill="#5FDB76" d="M8.057,31l0.141-1.125C9.621,18.535,18.535,9.621,29.875,8.198L31,8.057v12.067l-0.785,0.173
	c-4.938,1.086-8.832,4.98-9.918,9.918L20.124,31H8.057z"/>
<rect x="26" y="34" fill="#70B8E0" width="4" height="3"/>
<rect x="31" y="34" fill="#70B8E0" width="4" height="3"/>
<rect x="36" y="34" fill="#70B8E0" width="4" height="3"/>
<path fill="#3D3C3E" d="M32,4C16.54,4,4,16.54,4,32s12.54,28,28,28s28-12.54,28-28S47.46,4,32,4z M32,59C17.11,59,5,46.89,5,32
	C5,17.11,17.11,5,32,5c14.89,0,27,12.11,27,27C59,46.89,46.89,59,32,59z"/>
<path fill="#3D3C3E" d="M46,32c0-0.68-0.05-1.35-0.14-2h11.05c-0.03-0.33-0.061-0.67-0.101-1C55.46,17.6,46.42,8.54,35,7.19
	c-0.33-0.05-0.66-0.08-1-0.1v11.05C33.35,18.05,32.68,18,32,18s-1.35,0.05-2,0.14V7.09c-0.34,0.02-0.67,0.05-1,0.1
	C17.58,8.54,8.54,17.6,7.19,29c-0.04,0.33-0.07,0.67-0.1,1h11.05C18.05,30.65,18,31.32,18,32s0.05,1.35,0.14,2H7.09
	c0.03,0.33,0.06,0.67,0.1,1C8.54,46.4,17.58,55.46,29,56.81c0.33,0.051,0.66,0.08,1,0.101V45.86c0.65,0.09,1.32,0.14,2,0.14
	s1.35-0.05,2-0.14v11.05c0.34-0.021,0.67-0.05,1-0.101C46.42,55.46,55.46,46.4,56.81,35c0.04-0.33,0.07-0.67,0.101-1H45.86
	C45.95,33.35,46,32.68,46,32z M35,8.19C45.84,9.55,54.45,18.16,55.81,29H45.68C44.51,23.68,40.32,19.49,35,18.32V8.19z M8.19,29
	C9.55,18.16,18.16,9.55,29,8.19v10.13c-5.32,1.17-9.51,5.36-10.68,10.68H8.19z M29,55.81C18.16,54.45,9.55,45.84,8.19,35h10.13
	c1.17,5.32,5.36,9.51,10.68,10.68V55.81z M32,45c-7.17,0-13-5.83-13-13s5.83-13,13-13s13,5.83,13,13S39.17,45,32,45z M55.81,35
	C54.45,45.84,45.84,54.45,35,55.81V45.68c5.32-1.17,9.51-5.359,10.68-10.68H55.81z"/>
<path fill="#3D3C3E" d="M32,20c-6.63,0-12,5.37-12,12s5.37,12,12,12s12-5.37,12-12S38.63,20,32,20z M32,21c5.03,0,9.28,3.39,10.58,8
	H21.42C22.72,24.39,26.97,21,32,21z M21.18,30h21.64c0.06,0.33,0.109,0.67,0.13,1h-21.9C21.07,30.67,21.12,30.33,21.18,30z M32,43
	c-6.07,0-11-4.93-11-11h22C43,38.07,38.07,43,32,43z"/>
<path fill="#3D3C3E" d="M33,34v1h-2v-1H33L33,34z M34,33h-4v3h4V33L34,33z"/>
<path fill="#3D3C3E" d="M28,34v1h-2v-1H28L28,34z M29,33h-4v3h4V33L29,33z"/>
<path fill="#3D3C3E" d="M38,34v1h-2v-1H38L38,34z M39,33h-4v3h4V33L39,33z"/>
<circle fill="#DF5754" cx="32" cy="38" r="1"/>
<circle fill="#F7EE7A" cx="27" cy="38" r="1"/>
<circle fill="#F7EE7A" cx="37" cy="38" r="1"/>
<rect x="30" y="40" fill="#DF5754" width="4" height="1"/>
</svg>
