<?xml version="1.0" encoding="utf-8"?>
<!-- Generator: Adobe Illustrator 16.0.0, SVG Export Plug-In . SVG Version: 6.00 Build 0)  -->
<!DOCTYPE svg PUBLIC "-//W3C//DTD SVG 1.1//EN" "http://www.w3.org/Graphics/SVG/1.1/DTD/svg11.dtd">
<svg version="1.1" id="Capa_1" xmlns="http://www.w3.org/2000/svg" xmlns:xlink="http://www.w3.org/1999/xlink" x="0px" y="0px"
	 width="64px" height="64px" viewBox="0 0 64 64" enable-background="new 0 0 64 64" xml:space="preserve">
<g>
	<circle fill="#707070" cx="23" cy="32" r="21"/>
</g>
<path fill="none" stroke="#AEAEAE" stroke-linecap="round" stroke-miterlimit="10" d="M22,13.5c-9.665,0-17.5,7.835-17.5,17.5
	c0,9.664,7.835,17.5,17.5,17.5c9.664,0,17.5-7.836,17.5-17.5"/>
<path fill="none" stroke="#AEAEAE" stroke-linecap="round" stroke-miterlimit="10" d="M35.5,31c0-7.456-6.045-13.5-13.5-13.5"/>
<path fill="none" stroke="#AEAEAE" stroke-linecap="round" stroke-miterlimit="10" d="M8.5,31c0,7.455,6.044,13.5,13.5,13.5"/>
<g>
	<path fill="#3D3C3E" d="M22,11c11.028,0,20,8.972,20,20c0,11.028-8.972,20-20,20C10.972,51,2,42.028,2,31C2,19.972,10.972,11,22,11
		 M22,10C10.402,10,1,19.402,1,31c0,11.597,9.402,21,21,21c11.597,0,21-9.403,21-21C43,19.402,33.597,10,22,10L22,10z"/>
</g>
<g>
	<path fill="#DF5754" d="M62,26v12c0,2-2,2-2,2s-32,0-39,0s-7-8-7-8s0-8,7-8s39,0,39,0S62,24,62,26z"/>
</g>
<g>
	<path fill="#AEAEAE" d="M20,37c-4.81,0-4.995-5.394-5-6.008C15.005,30.394,15.19,25,20,25l32,0v11.993
		c-0.016,0.003,0.014,0.005,0,0.007H20z"/>
</g>
<circle fill="#FAF1D8" cx="22" cy="30" r="5"/>
<g>
	<path fill="#3D3C3E" d="M58.992,24C59.453,24.013,60,24.197,60,25v11.988C59.988,37.45,59.806,38,59,38h-7V24H58.992 M59,23h-8v16
		h8c2,0,2-2,2-2V25C61,23,59,23,59,23L59,23z"/>
</g>
<g>
	<path fill="#DF5754" d="M21,26v5c0,0,0,2,2,2s2-2,2-2v-5H21z"/>
</g>
<line fill="none" stroke="#3D3C3E" stroke-miterlimit="10" x1="35.5" y1="38.5" x2="26.5" y2="44.5"/>
<g>
	<rect x="23" y="42" fill="#AEAEAE" width="7" height="5"/>
</g>
<g>
	<path fill="#3D3C3E" d="M29,43v3h-5v-3H29 M30,42h-7v5h7V42L30,42z"/>
</g>
<g>
	<path fill="#3D3C3E" d="M58.992,24C59.453,24.013,60,24.197,60,25v12c0,0.806-0.55,0.988-1,1H20c-5.903,0-5.999-6.716-6-6.998
		C14.001,30.716,14.097,24,20,24H58.992 M59,23c0,0-32,0-39,0s-7,8-7,8s0,8,7,8s39,0,39,0s2,0,2-2V25C61,23,59,23,59,23L59,23z"/>
</g>
<g>
	<path fill="#3D3C3E" d="M20,26L20,26l31,0v10H20c-3.766,0-3.993-4.179-4-5C16.007,30.166,16.236,26,20,26 M20,25
		c-4.81,0-4.995,5.394-5,5.992C15.005,31.606,15.19,37,20,37h32c0.014-0.002-0.016-0.004,0-0.007V25L20,25L20,25z"/>
</g>
<g>
	<path fill="#3D3C3E" d="M23,26v3.988C22.988,30.45,22.805,31,22,31s-0.988-0.55-1-1v-4H23 M24,25h-4v5c0,0,0,2,2,2s2-2,2-2V25
		L24,25z"/>
</g>
<rect x="54" y="24" fill="#3D3C3E" width="1" height="14"/>
<rect x="57" y="24" fill="#3D3C3E" width="1" height="14"/>
<g>
	<polygon fill="#707070" points="24,26 24,29 35,33 35,38 53,38 53,26 	"/>
</g>
<g>
	<path fill="#3D3C3E" d="M24,26l27,0v10H35v-4v-0.7l-0.658-0.24L24,27.3V26 M23,25v3l11,4v5h18V25L23,25L23,25z"/>
</g>
<rect x="43" y="27" fill="#3D3C3E" width="5" height="7"/>
<rect x="44" y="28" fill="#AEAEAE" width="3" height="2"/>
<rect x="44" y="31" fill="#AEAEAE" width="3" height="2"/>
<polygon fill="#AEAEAE" points="49,27 49,35 43,35 43,34 48,34 48,27 "/>
</svg>
