<?xml version="1.0" encoding="utf-8"?>
<!-- Generator: Adobe Illustrator 16.0.0, SVG Export Plug-In . SVG Version: 6.00 Build 0)  -->
<!DOCTYPE svg PUBLIC "-//W3C//DTD SVG 1.1//EN" "http://www.w3.org/Graphics/SVG/1.1/DTD/svg11.dtd">
<svg version="1.1" id="Capa_1" xmlns="http://www.w3.org/2000/svg" xmlns:xlink="http://www.w3.org/1999/xlink" x="0px" y="0px"
	 width="64px" height="64px" viewBox="0 0 64 64" enable-background="new 0 0 64 64" xml:space="preserve">
<g>
	<path fill="#E05754" d="M50,4H18c-5,0-5,5-5,5v8c0,0,0,33,0,39s6,6,6,6h30c0,0,6,0,6-6s0-39,0-39V9C55,9,55,4,50,4z M45,15H23
		c0,0-4,0-4-4c0,0,0-4,4-4h22c0,0,4,0,4,4S45,15,45,15z"/>
</g>
<g>
	<path fill="#F8EF7A" d="M14,32c0,0,0-2,2-2h32c0,0,2,0,2,2v20c0,0,0,3-3,3s-30,0-30,0s-3,0-3-3V32z"/>
</g>
<g>
	<path fill="#E05754" d="M17,35c0,0,0-2,2-2h26c0,0,2,0,2,2v11c0,0,0,3-3,3s-24,0-24,0s-3,0-3-3V35z"/>
</g>
<g>
	<rect x="11" y="16" fill="#AFAFAF" width="42" height="11"/>
</g>
<g>
	<path fill="#69AEA6" d="M18,36c0,0,0-2,2-2h24c0,0,2,0,2,2v9c0,0,0,3-3,3s-22,0-22,0s-3,0-3-3V36z"/>
</g>
<path fill="#3D3C3E" d="M25,18.5c0-0.276-0.224-0.5-0.5-0.5h-13c-0.276,0-0.5,0.224-0.5,0.5l0,0c0,0.276,0.224,0.5,0.5,0.5h13
	C24.776,19,25,18.776,25,18.5L25,18.5z"/>
<path fill="#3D3C3E" d="M25,20.5c0-0.276-0.224-0.5-0.5-0.5h-13c-0.276,0-0.5,0.224-0.5,0.5l0,0c0,0.276,0.224,0.5,0.5,0.5h13
	C24.776,21,25,20.776,25,20.5L25,20.5z"/>
<path fill="#3D3C3E" d="M25,22.5c0-0.276-0.224-0.5-0.5-0.5h-13c-0.276,0-0.5,0.224-0.5,0.5l0,0c0,0.276,0.224,0.5,0.5,0.5h13
	C24.776,23,25,22.776,25,22.5L25,22.5z"/>
<path fill="#3D3C3E" d="M25,24.5c0-0.276-0.224-0.5-0.5-0.5h-13c-0.276,0-0.5,0.224-0.5,0.5l0,0c0,0.276,0.224,0.5,0.5,0.5h13
	C24.776,25,25,24.776,25,24.5L25,24.5z"/>
<g>
	<path fill="#3D3C3E" d="M48,4c3.853,0,3.996,3.595,4,4v8v39c0,4.824-4.491,4.996-5,5H17c-0.204,0-5-0.057-5-5V16V8
		c0-0.163,0.045-4,4-4H48 M48,3H16c-5,0-5,5-5,5v8c0,0,0,33,0,39s6,6,6,6h30c0,0,6,0,6-6s0-39,0-39V8C53,8,53,3,48,3L48,3z"/>
</g>
<g>
	<path fill="#3D3C3E" d="M42.996,7C43.502,7.006,46,7.18,46,10c0,2.823-2.504,2.994-3,3H21.005C20.503,12.994,18,12.823,18,10.005
		C18.006,9.503,18.177,7,21,7H42.996 M43,6H21c-4,0-4,4-4,4c0,4,4,4,4,4h22c0,0,4,0,4-4S43,6,43,6L43,6z"/>
</g>
<g>
	<path fill="#3D3C3E" d="M52,17v9H12v-9H52 M53,16H11v11h42V16L53,16z"/>
</g>
<g>
	<path fill="#3D3C3E" d="M47.992,31C48.453,31.013,49,31.197,49,32v20c0,0.334-0.097,2-2,2H17c-0.334,0-2-0.097-2-2V32.012
		C15.012,31.55,15.195,31,16,31H47.992 M48,30H16c-2,0-2,2-2,2v20c0,3,3,3,3,3s27,0,30,0s3-3,3-3V32C50,30,48,30,48,30L48,30z"/>
</g>
<g>
	<path fill="#3D3C3E" d="M43.992,35C44.453,35.013,45,35.197,45,36v9c0,0.334-0.097,2-2,2H21c-0.334,0-2-0.097-2-2v-8.988
		C19.012,35.55,19.195,35,20,35H43.992 M44,34H20c-2,0-2,2-2,2v9c0,3,3,3,3,3s19,0,22,0s3-3,3-3v-9C46,34,44,34,44,34L44,34z"/>
</g>
<path fill="#E05754" d="M24,38c0-0.553-0.448-1-1-1l0,0c-0.552,0-1,0.447-1,1l0,0c0,0.553,0.448,1,1,1l0,0
	C23.552,39,24,38.553,24,38L24,38z"/>
<path fill="#E05754" d="M27,38c0-0.553-0.448-1-1-1l0,0c-0.552,0-1,0.447-1,1l0,0c0,0.553,0.448,1,1,1l0,0
	C26.552,39,27,38.553,27,38L27,38z"/>
<path fill="#E05754" d="M30,38c0-0.553-0.448-1-1-1l0,0c-0.552,0-1,0.447-1,1l0,0c0,0.553,0.448,1,1,1l0,0
	C29.552,39,30,38.553,30,38L30,38z"/>
<path fill="#E05754" d="M33,38c0-0.553-0.448-1-1-1l0,0c-0.552,0-1,0.447-1,1l0,0c0,0.553,0.448,1,1,1l0,0
	C32.552,39,33,38.553,33,38L33,38z"/>
<path fill="#E05754" d="M36,38c0-0.553-0.447-1-1-1l0,0c-0.553,0-1,0.447-1,1l0,0c0,0.553,0.447,1,1,1l0,0
	C35.553,39,36,38.553,36,38L36,38z"/>
<path fill="#E05754" d="M39,38c0-0.553-0.447-1-1-1l0,0c-0.553,0-1,0.447-1,1l0,0c0,0.553,0.447,1,1,1l0,0
	C38.553,39,39,38.553,39,38L39,38z"/>
<path fill="#E05754" d="M42,38c0-0.553-0.447-1-1-1l0,0c-0.553,0-1,0.447-1,1l0,0c0,0.553,0.447,1,1,1l0,0
	C41.553,39,42,38.553,42,38L42,38z"/>
<path fill="#F8EF7A" d="M24,41c0-0.553-0.448-1-1-1l0,0c-0.552,0-1,0.447-1,1l0,0c0,0.553,0.448,1,1,1l0,0
	C23.552,42,24,41.553,24,41L24,41z"/>
<path fill="#F6AE60" d="M27,41c0-0.553-0.448-1-1-1l0,0c-0.552,0-1,0.447-1,1l0,0c0,0.553,0.448,1,1,1l0,0
	C26.552,42,27,41.553,27,41L27,41z"/>
<path fill="#F6AE60" d="M30,41c0-0.553-0.448-1-1-1l0,0c-0.552,0-1,0.447-1,1l0,0c0,0.553,0.448,1,1,1l0,0
	C29.552,42,30,41.553,30,41L30,41z"/>
<path fill="#F8EF7A" d="M33,41c0-0.553-0.448-1-1-1l0,0c-0.552,0-1,0.447-1,1l0,0c0,0.553,0.448,1,1,1l0,0
	C32.552,42,33,41.553,33,41L33,41z"/>
<path fill="#F6AE60" d="M36,41c0-0.553-0.447-1-1-1l0,0c-0.553,0-1,0.447-1,1l0,0c0,0.553,0.447,1,1,1l0,0
	C35.553,42,36,41.553,36,41L36,41z"/>
<path fill="#F6AE60" d="M39,41c0-0.553-0.447-1-1-1l0,0c-0.553,0-1,0.447-1,1l0,0c0,0.553,0.447,1,1,1l0,0
	C38.553,42,39,41.553,39,41L39,41z"/>
<path fill="#F6AE60" d="M42.031,41.031c0-0.553-0.447-1-1-1l0,0c-0.553,0-1,0.447-1,1l0,0c0,0.553,0.447,1,1,1l0,0
	C41.584,42.031,42.031,41.584,42.031,41.031L42.031,41.031z"/>
<path fill="#F8EF7A" d="M24.031,44.031c0-0.553-0.448-1-1-1l0,0c-0.552,0-1,0.447-1,1l0,0c0,0.553,0.448,1,1,1l0,0
	C23.583,45.031,24.031,44.584,24.031,44.031L24.031,44.031z"/>
<path fill="#F6AE60" d="M27.031,44.031c0-0.553-0.448-1-1-1l0,0c-0.552,0-1,0.447-1,1l0,0c0,0.553,0.448,1,1,1l0,0
	C26.583,45.031,27.031,44.584,27.031,44.031L27.031,44.031z"/>
<path fill="#F6AE60" d="M30.031,44.031c0-0.553-0.448-1-1-1l0,0c-0.552,0-1,0.447-1,1l0,0c0,0.553,0.448,1,1,1l0,0
	C29.583,45.031,30.031,44.584,30.031,44.031L30.031,44.031z"/>
<path fill="#F6AE60" d="M33.031,44.031c0-0.553-0.448-1-1-1l0,0c-0.552,0-1,0.447-1,1l0,0c0,0.553,0.448,1,1,1l0,0
	C32.583,45.031,33.031,44.584,33.031,44.031L33.031,44.031z"/>
<path fill="#E05754" d="M36.031,44.031c0-0.553-0.447-1-1-1l0,0c-0.553,0-1,0.447-1,1l0,0c0,0.553,0.447,1,1,1l0,0
	C35.584,45.031,36.031,44.584,36.031,44.031L36.031,44.031z"/>
<path fill="#E05754" d="M39.031,44.031c0-0.553-0.447-1-1-1l0,0c-0.553,0-1,0.447-1,1l0,0c0,0.553,0.447,1,1,1l0,0
	C38.584,45.031,39.031,44.584,39.031,44.031L39.031,44.031z"/>
<path fill="#E05754" d="M42.031,44.031c0-0.553-0.447-1-1-1l0,0c-0.553,0-1,0.447-1,1l0,0c0,0.553,0.447,1,1,1l0,0
	C41.584,45.031,42.031,44.584,42.031,44.031L42.031,44.031z"/>
<path fill="#3D3C3E" d="M38,23.5c0,0.276-0.224,0.5-0.5,0.5l0,0c-0.276,0-0.5-0.224-0.5-0.5v-4c0-0.276,0.224-0.5,0.5-0.5l0,0
	c0.276,0,0.5,0.224,0.5,0.5V23.5z"/>
<path fill="#3D3C3E" d="M40,21.5c0-0.276-0.224-0.5-0.5-0.5h-2c-0.276,0-0.5,0.224-0.5,0.5l0,0c0,0.276,0.224,0.5,0.5,0.5h2
	C39.776,22,40,21.776,40,21.5L40,21.5z"/>
<path fill="#3D3C3E" d="M40,23.5c0,0.276-0.224,0.5-0.5,0.5l0,0c-0.276,0-0.5-0.224-0.5-0.5v-4c0-0.276,0.224-0.5,0.5-0.5l0,0
	c0.276,0,0.5,0.224,0.5,0.5V23.5z"/>
<path fill="#3D3C3E" d="M42,23.5c0,0.276-0.224,0.5-0.5,0.5l0,0c-0.276,0-0.5-0.224-0.5-0.5v-4c0-0.276,0.224-0.5,0.5-0.5l0,0
	c0.276,0,0.5,0.224,0.5,0.5V23.5z"/>
<path fill="#3D3C3E" d="M45,21.5c0,0.276-0.224,0.5-0.5,0.5l0,0c-0.276,0-0.5-0.224-0.5-0.5v-2c0-0.276,0.224-0.5,0.5-0.5l0,0
	c0.276,0,0.5,0.224,0.5,0.5V21.5z"/>
<path fill="#3D3C3E" d="M45,23.5c0-0.276-0.224-0.5-0.5-0.5l0,0c-0.276,0-0.5,0.224-0.5,0.5l0,0c0,0.276,0.224,0.5,0.5,0.5l0,0
	C44.776,24,45,23.776,45,23.5L45,23.5z"/>
</svg>
