<?xml version="1.0" encoding="utf-8"?>
<!-- Generator: Adobe Illustrator 16.0.0, SVG Export Plug-In . SVG Version: 6.00 Build 0)  -->
<!DOCTYPE svg PUBLIC "-//W3C//DTD SVG 1.1//EN" "http://www.w3.org/Graphics/SVG/1.1/DTD/svg11.dtd">
<svg version="1.1" id="Capa_1" xmlns="http://www.w3.org/2000/svg" xmlns:xlink="http://www.w3.org/1999/xlink" x="0px" y="0px"
	 width="64px" height="64px" viewBox="0 0 64 64" enable-background="new 0 0 64 64" xml:space="preserve">
<g>
	<path fill="#707070" d="M3,20c0,0,0-2,2-2h56c0,0,2,0,2,2v31c0,0,0,2-2,2S5,53,5,53s-2,0-2-2S3,20,3,20z"/>
</g>
<rect x="21" y="32" fill="#AEAEAE" width="24" height="3"/>
<path fill="#AEAEAE" d="M22,16v-1c0,0,0-2,2-2h18c0,0,2,0,2,2v1H22z"/>
<g>
	<circle fill="#AEAEAE" cx="12" cy="42" r="9"/>
</g>
<g>
	<circle fill="#AEAEAE" cx="54" cy="42" r="9"/>
</g>
<g>
	<g>
		<path fill="#3D3C3E" d="M40.992,13C41.453,13.013,42,13.197,42,14v3H22v-2.988C22.012,13.55,22.195,13,23,13H40.992 M41,12H23
			c-2,0-2,2-2,2v4h22v-4C43,12,41,12,41,12L41,12z"/>
	</g>
</g>
<rect x="22" y="14" fill="#3D3C3E" width="20" height="1"/>
<rect x="19" y="17" fill="#3D3C3E" width="1" height="35"/>
<rect x="44" y="17" fill="#3D3C3E" width="1" height="35"/>
<g>
	<circle fill="#AEAEAE" cx="9" cy="25" r="4"/>
</g>
<path fill="#3D3C3E" d="M17,20H8v1h8.98c0,0,0.01,0,0.02,0v6H8v1h9c1,0,1-1,1-1v-6C18,20,17,20,17,20z"/>
<g>
	<circle fill="#AEAEAE" cx="57" cy="25" r="4"/>
</g>
<g>
	<g>
		<path fill="#3D3C3E" d="M8,21c1.654,0,3,1.346,3,3s-1.346,3-3,3s-3-1.346-3-3S6.346,21,8,21 M8,20c-2.209,0-4,1.791-4,4
			s1.791,4,4,4s4-1.791,4-4S10.209,20,8,20L8,20z"/>
	</g>
</g>
<g>
	<g>
		<path fill="#3D3C3E" d="M56,21c1.654,0,3,1.346,3,3s-1.346,3-3,3s-3-1.346-3-3S54.346,21,56,21 M56,20c-2.209,0-4,1.791-4,4
			s1.791,4,4,4s4-1.791,4-4S58.209,20,56,20L56,20z"/>
	</g>
</g>
<path fill="#3D3C3E" d="M46,21v6c0,0,0,1,1,1h9v-1h-9v-6c0.01,0,0.02,0,0.02,0H56v-1h-9C47,20,46,20,46,21z"/>
<g>
	<circle fill="#707070" cx="11" cy="41" r="5"/>
</g>
<g>
	<circle fill="#707070" cx="53" cy="41" r="5"/>
</g>
<circle fill="#FF6A8C" cx="6" cy="30" r="1"/>
<circle fill="#FF6A8C" cx="9" cy="30" r="1"/>
<circle fill="#FF6A8C" cx="12" cy="30" r="1"/>
<circle fill="#FF6A8C" cx="15" cy="30" r="1"/>
<circle fill="#FF6A8C" cx="49" cy="30" r="1"/>
<circle fill="#FF6A8C" cx="52" cy="30" r="1"/>
<circle fill="#FF6A8C" cx="55" cy="30" r="1"/>
<circle fill="#FF6A8C" cx="58" cy="30" r="1"/>
<circle fill="#3D3C3E" cx="8" cy="24" r="1"/>
<circle fill="#3D3C3E" cx="56" cy="24" r="1"/>
<g>
	<rect x="22" y="21" fill="#AEAEAE" width="22" height="8"/>
</g>
<rect x="19" y="30" fill="#3D3C3E" width="26" height="1"/>
<rect x="19" y="34" fill="#3D3C3E" width="26" height="1"/>
<g>
	<rect x="22" y="38" fill="#AEAEAE" width="10" height="4"/>
</g>
<g>
	<rect x="34" y="38" fill="#AEAEAE" width="10" height="4"/>
</g>
<g>
	<path fill="#3D3C3E" d="M30,38v2h-8v-2H30 M31,37H21v4h10V37L31,37z"/>
</g>
<g>
	<path fill="#3D3C3E" d="M42,38v2h-8v-2H42 M43,37H33v4h10V37L43,37z"/>
</g>
<g>
	<rect x="21" y="42" fill="#AEAEAE" width="5" height="7"/>
</g>
<rect x="30" y="42" fill="#3D3C3E" width="1" height="7"/>
<rect x="29" y="47" fill="#3D3C3E" width="3" height="1"/>
<rect x="33" y="42" fill="#3D3C3E" width="1" height="7"/>
<rect x="32" y="44" fill="#3D3C3E" width="3" height="1"/>
<rect x="36" y="42" fill="#3D3C3E" width="1" height="7"/>
<rect x="35" y="46" fill="#3D3C3E" width="3" height="1"/>
<rect x="39" y="42" fill="#3D3C3E" width="1" height="7"/>
<rect x="38" y="44" fill="#3D3C3E" width="3" height="1"/>
<path fill="#3D3C3E" d="M25,21.5c0,0.276-0.224,0.5-0.5,0.5l0,0c-0.276,0-0.5-0.224-0.5-0.5v-1c0-0.276,0.224-0.5,0.5-0.5l0,0
	c0.276,0,0.5,0.224,0.5,0.5V21.5z"/>
<path fill="#3D3C3E" d="M31,21.5c0,0.276-0.224,0.5-0.5,0.5l0,0c-0.276,0-0.5-0.224-0.5-0.5v-1c0-0.276,0.224-0.5,0.5-0.5l0,0
	c0.276,0,0.5,0.224,0.5,0.5V21.5z"/>
<path fill="#3D3C3E" d="M28,20.5c0-0.276-0.224-0.5-0.5-0.5l0,0c-0.276,0-0.5,0.224-0.5,0.5v2c0,0.276,0.224,0.5,0.5,0.5l0,0
	c0.276,0,0.5-0.224,0.5-0.5V20.5z"/>
<path fill="#3D3C3E" d="M34,20.5c0-0.276-0.224-0.5-0.5-0.5l0,0c-0.276,0-0.5,0.224-0.5,0.5v2c0,0.276,0.224,0.5,0.5,0.5l0,0
	c0.276,0,0.5-0.224,0.5-0.5V20.5z"/>
<path fill="#3D3C3E" d="M37,21.5c0,0.276-0.224,0.5-0.5,0.5l0,0c-0.276,0-0.5-0.224-0.5-0.5v-1c0-0.276,0.224-0.5,0.5-0.5l0,0
	c0.276,0,0.5,0.224,0.5,0.5V21.5z"/>
<path fill="#3D3C3E" d="M40,20.5c0-0.276-0.224-0.5-0.5-0.5l0,0c-0.276,0-0.5,0.224-0.5,0.5v2c0,0.276,0.224,0.5,0.5,0.5l0,0
	c0.276,0,0.5-0.224,0.5-0.5V20.5z"/>
<g>
	<g>
		<path fill="#3D3C3E" d="M59.992,18C60.453,18.013,61,18.197,61,19v30.988C60.988,50.45,60.806,51,60,51H4.012
			C3.55,50.988,3,50.806,3,50V19.012C3.012,18.55,3.195,18,4,18H59.992 M60,17H4c-2,0-2,2-2,2s0,29,0,31s2,2,2,2s54,0,56,0s2-2,2-2
			V19C62,17,60,17,60,17L60,17z"/>
	</g>
</g>
<g>
	<g>
		<path fill="#3D3C3E" d="M11,33c4.411,0,8,3.589,8,8s-3.589,8-8,8s-8-3.589-8-8S6.589,33,11,33 M11,32c-4.971,0-9,4.029-9,9
			s4.029,9,9,9s9-4.029,9-9S15.971,32,11,32L11,32z"/>
	</g>
</g>
<g>
	<g>
		<path fill="#3D3C3E" d="M53,33c4.411,0,8,3.589,8,8s-3.589,8-8,8s-8-3.589-8-8S48.589,33,53,33 M53,32c-4.971,0-9,4.029-9,9
			s4.029,9,9,9s9-4.029,9-9S57.971,32,53,32L53,32z"/>
	</g>
</g>
<g>
	<g>
		<path fill="#3D3C3E" d="M42,21v6H22v-6H42 M43,20H21v8h22V20L43,20z"/>
	</g>
</g>
<g>
	<g>
		<path fill="#3D3C3E" d="M11,37c2.206,0,4,1.794,4,4s-1.794,4-4,4s-4-1.794-4-4S8.794,37,11,37 M11,36c-2.761,0-5,2.238-5,5
			s2.239,5,5,5s5-2.238,5-5S13.761,36,11,36L11,36z"/>
	</g>
</g>
<g>
	<g>
		<path fill="#3D3C3E" d="M53,37c2.206,0,4,1.794,4,4s-1.794,4-4,4s-4-1.794-4-4S50.794,37,53,37 M53,36c-2.762,0-5,2.238-5,5
			s2.238,5,5,5s5-2.238,5-5S55.762,36,53,36L53,36z"/>
	</g>
</g>
<rect x="27" y="31" fill="#FF6A8C" width="1" height="3"/>
<rect x="30" y="31" fill="#5FDB76" width="1" height="3"/>
<rect x="33" y="31" fill="#FF6A8C" width="1" height="3"/>
<rect x="36" y="31" fill="#5FDB76" width="1" height="3"/>
<g>
	<path fill="#3D3C3E" d="M25,43v2h-3v-2H25 M26,42h-5v4h5V42L26,42z"/>
</g>
<g>
	<path fill="#3D3C3E" d="M25,46v2h-3v-2H25 M26,45h-5v4h5V45L26,45z"/>
</g>
</svg>
