<?xml version="1.0" encoding="utf-8"?>
<!-- Generator: Adobe Illustrator 16.0.0, SVG Export Plug-In . SVG Version: 6.00 Build 0)  -->
<!DOCTYPE svg PUBLIC "-//W3C//DTD SVG 1.1//EN" "http://www.w3.org/Graphics/SVG/1.1/DTD/svg11.dtd">
<svg version="1.1" id="Capa_1" xmlns="http://www.w3.org/2000/svg" xmlns:xlink="http://www.w3.org/1999/xlink" x="0px" y="0px"
	 width="64px" height="64px" viewBox="0 0 64 64" enable-background="new 0 0 64 64" xml:space="preserve">
<g>
	<rect x="49.013" y="28.013" fill="#707070" width="3" height="10"/>
</g>
<g>
	<rect x="12" y="33" fill="#707070" width="3" height="4"/>
</g>
<g>
	<rect x="12" y="39" fill="#707070" width="3" height="4"/>
</g>
<g>
	<path fill="#3D3C3E" d="M14,33v2h-1v-2H14 M15,32h-3v4h3V32L15,32z"/>
</g>
<g>
	<path fill="#3D3C3E" d="M14,39v2h-1v-2H14 M15,38h-3v4h3V38L15,38z"/>
</g>
<g>
	<path fill="#707070" d="M47,50c0,0,0,6-5,6s-8,0-8,0s-3,0-8,0s-5-6-5-6H47z"/>
</g>
<g>
	<path fill="#707070" d="M44,55c0,0,0,6-5,6s-5,0-5,0s0,0-5,0s-5-6-5-6H44z"/>
</g>
<g>
	<path fill="#707070" d="M47,16c0,0,0-6-5-6s-8,0-8,0s-3,0-8,0s-5,6-5,6H47z"/>
</g>
<g>
	<path fill="#707070" d="M44,11c0,0,0-6-5-6s-5,0-5,0s0,0-5,0s-5,6-5,6H44z"/>
</g>
<g>
	<path fill="#3D3C3E" d="M43.912,50c-0.228,1.462-1.035,4-3.912,4h-8h-8c-2.858,0-3.674-2.538-3.907-4H43.912 M45,49H19c0,0,0,6,5,6
		s8,0,8,0s3,0,8,0S45,49,45,49L45,49z"/>
</g>
<g>
	<path fill="#3D3C3E" d="M40.912,55c-0.228,1.462-1.035,4-3.912,4h-5h-5c-2.858,0-3.674-2.538-3.907-4H40.912 M42,54H22c0,0,0,6,5,6
		s5,0,5,0s0,0,5,0S42,54,42,54L42,54z"/>
</g>
<g>
	<path fill="#3D3C3E" d="M40,11c2.858,0,3.674,2.538,3.907,4H20.088c0.227-1.462,1.035-4,3.912-4h8H40 M40,10c-5,0-8,0-8,0s-3,0-8,0
		s-5,6-5,6h26C45,16,45,10,40,10L40,10z"/>
</g>
<g>
	<path fill="#3D3C3E" d="M37,6c2.858,0,3.674,2.538,3.907,4H23.088C23.315,8.538,24.123,6,27,6h5H37 M37,5c-5,0-5,0-5,0s0,0-5,0
		s-5,6-5,6h20C42,11,42,5,37,5L37,5z"/>
</g>
<circle fill="#3D3C3E" cx="24" cy="13" r="1"/>
<circle fill="#3D3C3E" cx="40" cy="13" r="1"/>
<circle fill="#3D3C3E" cx="24" cy="52" r="1"/>
<circle fill="#3D3C3E" cx="40" cy="52" r="1"/>
<circle fill="#3D3C3E" cx="36" cy="8" r="1"/>
<circle fill="#3D3C3E" cx="27" cy="8" r="1"/>
<circle fill="#3D3C3E" cx="36.688" cy="57" r="1"/>
<circle fill="#3D3C3E" cx="27" cy="57" r="1"/>
<g>
	<path fill="#3D3C3E" d="M51.013,28.013v8h-1v-8H51.013 M52.013,27.013h-3v10h3V27.013L52.013,27.013z"/>
</g>
<g>
	<path fill="#DF5754" d="M15,18c0,0,0-2,2-2h32c0,0,2,0,2,2v31c0,0,0,2-2,2s-32,0-32,0s-2,0-2-2V18z"/>
</g>
<rect x="14" y="38" fill="#3D3C3E" width="36" height="1"/>
<rect x="19" y="16" fill="#3D3C3E" width="1" height="23"/>
<rect x="44" y="16" fill="#3D3C3E" width="1" height="23"/>
<g>
	<polygon fill="#707070" points="23,32 43,32 43,22 41,20 25,20 23,22 	"/>
</g>
<rect x="14" y="27" fill="#3D3C3E" width="6" height="1"/>
<rect x="44" y="27" fill="#3D3C3E" width="6" height="1"/>
<g opacity="0.4">
	<polygon fill="#3D3C3E" points="23,33 43,33 43,36 41,38 25,38 23,36 	"/>
</g>
<g>
	<path fill="#3D3C3E" d="M41,33v1.586L39.586,36H24.414L23,34.586V33H41 M42,32H22v3l2,2h16l2-2V32L42,32z"/>
</g>
<rect x="30" y="38" fill="#3D3C3E" width="1" height="12"/>
<rect x="33" y="38" fill="#3D3C3E" width="1" height="11"/>
<g>
	<path fill="#3D3C3E" d="M28,41v6h-4v-6H28 M29,40h-6v8h6V40L29,40z"/>
</g>
<g>
	<path fill="#3D3C3E" d="M40,41v6h-4v-6H40 M41,40h-6v8h6V40L41,40z"/>
</g>
<path fill="#3D3C3E" d="M14,40.5c0-0.276,0.224-0.5,0.5-0.5h7c0.276,0,0.5,0.224,0.5,0.5l0,0c0,0.276-0.224,0.5-0.5,0.5h-7
	C14.224,41,14,40.776,14,40.5L14,40.5z"/>
<path fill="#3D3C3E" d="M14,43.5c0-0.276,0.224-0.5,0.5-0.5h7c0.276,0,0.5,0.224,0.5,0.5l0,0c0,0.276-0.224,0.5-0.5,0.5h-7
	C14.224,44,14,43.776,14,43.5L14,43.5z"/>
<path fill="#3D3C3E" d="M14,46.5c0-0.276,0.224-0.5,0.5-0.5h7c0.276,0,0.5,0.224,0.5,0.5l0,0c0,0.276-0.224,0.5-0.5,0.5h-7
	C14.224,47,14,46.776,14,46.5L14,46.5z"/>
<path fill="#3D3C3E" d="M42,40.5c0-0.276,0.224-0.5,0.5-0.5h7c0.276,0,0.5,0.224,0.5,0.5l0,0c0,0.276-0.224,0.5-0.5,0.5h-7
	C42.224,41,42,40.776,42,40.5L42,40.5z"/>
<path fill="#3D3C3E" d="M42,43.5c0-0.276,0.224-0.5,0.5-0.5h7c0.276,0,0.5,0.224,0.5,0.5l0,0c0,0.276-0.224,0.5-0.5,0.5h-7
	C42.224,44,42,43.776,42,43.5L42,43.5z"/>
<path fill="#3D3C3E" d="M42,46.5c0-0.276,0.224-0.5,0.5-0.5h7c0.276,0,0.5,0.224,0.5,0.5l0,0c0,0.276-0.224,0.5-0.5,0.5h-7
	C42.224,47,42,46.776,42,46.5L42,46.5z"/>
<g>
	<path fill="#5FDB76" d="M25,29c0,0,0,1,1,1h14c0,0,1,0,1-1v-5c0,0,0-1-1-1H26c0,0-1,0-1,1V29z"/>
</g>
<g>
	<path fill="#3D3C3E" d="M39,23v5v0H25c0,0,0,0,0,0l0,0v-5c0,0,0,0,0,0H39L39,23L39,23 M39,22H25c0,0-1,0-1,1v5c0,0,0,1,1,1h14
		c0,0,1,0,1-1v-5C40,23,40,22,39,22L39,22z"/>
</g>
<g>
	<path fill="#3D3C3E" d="M47.992,16C48.453,16.013,49,16.197,49,17v30.988C48.988,48.45,48.806,49,48,49H16.012
		C15.55,48.988,15,48.806,15,48V17.012C15.012,16.55,15.195,16,16,16H47.992 M48,15H16c-2,0-2,2-2,2v31c0,2,2,2,2,2s30,0,32,0
		s2-2,2-2V17C50,15,48,15,48,15L48,15z"/>
</g>
<g>
	<path fill="#3D3C3E" d="M39.586,20L41,21.414V30H23v-8.586L24.414,20H39.586 M40,19H24l-2,2v10h20V21L40,19L40,19z"/>
</g>
<path fill="#70B8E0" d="M30,34.5c0-0.276-0.224-0.5-0.5-0.5h-3c-0.276,0-0.5,0.224-0.5,0.5l0,0c0,0.276,0.224,0.5,0.5,0.5h3
	C29.776,35,30,34.776,30,34.5L30,34.5z"/>
<path fill="#DF5754" d="M38,34.5c0-0.276-0.224-0.5-0.5-0.5h-3c-0.276,0-0.5,0.224-0.5,0.5l0,0c0,0.276,0.224,0.5,0.5,0.5h3
	C37.776,35,38,34.776,38,34.5L38,34.5z"/>
</svg>
