<?xml version="1.0" encoding="utf-8"?>
<!-- Generator: Adobe Illustrator 16.0.0, SVG Export Plug-In . SVG Version: 6.00 Build 0)  -->
<!DOCTYPE svg PUBLIC "-//W3C//DTD SVG 1.1//EN" "http://www.w3.org/Graphics/SVG/1.1/DTD/svg11.dtd">
<svg version="1.1" id="Capa_1" xmlns="http://www.w3.org/2000/svg" xmlns:xlink="http://www.w3.org/1999/xlink" x="0px" y="0px"
	 width="64px" height="64px" viewBox="0 0 64 64" enable-background="new 0 0 64 64" xml:space="preserve">
<line fill="none" stroke="#3D3C3E" stroke-miterlimit="10" x1="58.5" y1="23.5" x2="10.5" y2="9.5"/>
<g>
	<path fill="#AEAEAE" d="M3,26c0,0,0-2,2-2h55c0,0,2,0,2,2v26c0,0,0,4-4,4H7c0,0-4,0-4-4S3,26,3,26z"/>
</g>
<path fill="#707070" d="M36,23v2h24v7h2v-7c0,0,0-2-2-2H36z"/>
<g>
	<path fill="#707070" d="M6,29c0,0,0-2,2-2h24c0,0,2,0,2,2v19c0,0,0,2-2,2H8c0,0-2,0-2-2V29z"/>
</g>
<g>
	<path fill="#3D3C3E" d="M30.992,27C31.453,27.013,32,27.197,32,28v18.988C31.988,47.45,31.805,48,31,48H7.012
		C6.55,47.988,6,47.806,6,47V28.012C6.012,27.55,6.195,27,7,27H30.992 M31,26H7c-2,0-2,2-2,2v19c0,2,2,2,2,2h24c2,0,2-2,2-2V28
		C33,26,31,26,31,26L31,26z"/>
</g>
<g>
	<path fill="#707070" d="M36,28c0,0,0-1,1-1h21c0,0,1,0,1,1v4c0,0,0,1-1,1H37c0,0-1,0-1-1S36,28,36,28z"/>
</g>
<g>
	<path fill="#3D3C3E" d="M56.979,27c0.007,0.001,0.014,0.002,0.021,0.003l0.001,3.968C57,30.98,56.999,30.99,56.996,31l-20.968,0
		C36.02,31,36.01,30.999,36,30.997l-0.001-3.968C36,27.02,36.001,27.01,36.004,27H56.979 M57,26H36c-1,0-1,1-1,1s0,3,0,4s1,1,1,1h21
		c1,0,1-1,1-1v-4C58,26,57,26,57,26L57,26z"/>
</g>
<circle fill="#3D3C3E" cx="56.5" cy="35.5" r="0.5"/>
<circle fill="#3D3C3E" cx="54.5" cy="35.5" r="0.5"/>
<circle fill="#3D3C3E" cx="52.5" cy="35.5" r="0.5"/>
<circle fill="#3D3C3E" cx="50.5" cy="35.5" r="0.5"/>
<circle fill="#3D3C3E" cx="48.5" cy="35.5" r="0.5"/>
<circle fill="#3D3C3E" cx="46.5" cy="35.5" r="0.5"/>
<circle fill="#3D3C3E" cx="44.5" cy="35.5" r="0.5"/>
<circle fill="#3D3C3E" cx="42.5" cy="35.5" r="0.5"/>
<circle fill="#3D3C3E" cx="56.5" cy="37.5" r="0.5"/>
<circle fill="#3D3C3E" cx="54.5" cy="37.5" r="0.5"/>
<circle fill="#3D3C3E" cx="52.5" cy="37.5" r="0.5"/>
<circle fill="#3D3C3E" cx="50.5" cy="37.5" r="0.5"/>
<circle fill="#3D3C3E" cx="48.5" cy="37.5" r="0.5"/>
<circle fill="#3D3C3E" cx="46.5" cy="37.5" r="0.5"/>
<circle fill="#3D3C3E" cx="44.5" cy="37.5" r="0.5"/>
<circle fill="#3D3C3E" cx="42.5" cy="37.5" r="0.5"/>
<circle fill="#3D3C3E" cx="56.5" cy="39.5" r="0.5"/>
<circle fill="#3D3C3E" cx="54.5" cy="39.5" r="0.5"/>
<circle fill="#3D3C3E" cx="52.5" cy="39.5" r="0.5"/>
<circle fill="#3D3C3E" cx="50.5" cy="39.5" r="0.5"/>
<circle fill="#3D3C3E" cx="48.5" cy="39.5" r="0.5"/>
<circle fill="#3D3C3E" cx="46.5" cy="39.5" r="0.5"/>
<circle fill="#3D3C3E" cx="44.5" cy="39.5" r="0.5"/>
<circle fill="#3D3C3E" cx="42.5" cy="39.5" r="0.5"/>
<circle fill="#3D3C3E" cx="56.5" cy="41.5" r="0.5"/>
<circle fill="#3D3C3E" cx="54.5" cy="41.5" r="0.5"/>
<circle fill="#3D3C3E" cx="52.5" cy="41.5" r="0.5"/>
<circle fill="#3D3C3E" cx="50.5" cy="41.5" r="0.5"/>
<circle fill="#3D3C3E" cx="48.5" cy="41.5" r="0.5"/>
<circle fill="#3D3C3E" cx="46.5" cy="41.5" r="0.5"/>
<circle fill="#3D3C3E" cx="44.5" cy="41.5" r="0.5"/>
<circle fill="#3D3C3E" cx="42.5" cy="41.5" r="0.5"/>
<circle fill="#3D3C3E" cx="56.5" cy="43.5" r="0.5"/>
<circle fill="#3D3C3E" cx="54.5" cy="43.5" r="0.5"/>
<circle fill="#3D3C3E" cx="52.5" cy="43.5" r="0.5"/>
<circle fill="#3D3C3E" cx="50.5" cy="43.5" r="0.5"/>
<circle fill="#3D3C3E" cx="48.5" cy="43.5" r="0.5"/>
<circle fill="#3D3C3E" cx="46.5" cy="43.5" r="0.5"/>
<circle fill="#3D3C3E" cx="44.5" cy="43.5" r="0.5"/>
<circle fill="#3D3C3E" cx="42.5" cy="43.5" r="0.5"/>
<circle fill="#3D3C3E" cx="56.5" cy="45.5" r="0.5"/>
<circle fill="#3D3C3E" cx="54.5" cy="45.5" r="0.5"/>
<circle fill="#3D3C3E" cx="52.5" cy="45.5" r="0.5"/>
<circle fill="#3D3C3E" cx="50.5" cy="45.5" r="0.5"/>
<circle fill="#3D3C3E" cx="48.5" cy="45.5" r="0.5"/>
<circle fill="#3D3C3E" cx="46.5" cy="45.5" r="0.5"/>
<circle fill="#3D3C3E" cx="44.5" cy="45.5" r="0.5"/>
<circle fill="#3D3C3E" cx="42.5" cy="45.5" r="0.5"/>
<circle fill="#3D3C3E" cx="56.5" cy="47.5" r="0.5"/>
<circle fill="#3D3C3E" cx="54.5" cy="47.5" r="0.5"/>
<circle fill="#3D3C3E" cx="52.5" cy="47.5" r="0.5"/>
<circle fill="#3D3C3E" cx="50.5" cy="47.5" r="0.5"/>
<circle fill="#3D3C3E" cx="48.5" cy="47.5" r="0.5"/>
<circle fill="#3D3C3E" cx="46.5" cy="47.5" r="0.5"/>
<circle fill="#3D3C3E" cx="44.5" cy="47.5" r="0.5"/>
<circle fill="#3D3C3E" cx="42.5" cy="47.5" r="0.5"/>
<polygon fill="#3D3C3E" points="61,51 3,51 3,52 60,52 "/>
<g>
	<rect x="11" y="31" fill="#70B8E0" width="18" height="13"/>
</g>
<g>
	<path fill="#3D3C3E" d="M27,31v11H11V31H27 M28,30H10v13h18V30L28,30z"/>
</g>
<path fill="#3D3C3E" d="M29,45.5c0-0.276-0.224-0.5-0.5-0.5h-19C9.224,45,9,45.224,9,45.5l0,0C9,45.776,9.224,46,9.5,46h19
	C28.776,46,29,45.776,29,45.5L29,45.5z"/>
<rect x="37" y="28" fill="#3D3C3E" width="19" height="1"/>
<rect x="39" y="28" fill="#C99D67" width="2" height="1"/>
<circle fill="#3D3C3E" cx="8" cy="29" r="1"/>
<circle fill="#3D3C3E" cx="30" cy="29" r="1"/>
<g>
	<path fill="#3D3C3E" d="M58.992,24C59.453,24.013,60,24.197,60,25v25.994C59.994,51.496,59.823,54,57,54H6.005
		C5.503,53.994,3,53.823,3,51V25.012C3.012,24.55,3.195,24,4,24H58.992 M59,23H4c-2,0-2,2-2,2s0,22,0,26s4,4,4,4h51c4,0,4-4,4-4V25
		C61,23,59,23,59,23L59,23z"/>
</g>
<g>
	<path fill="#707070" d="M36,23v1h6v-1c0,0,0-2-3-2S36,23,36,23z"/>
</g>
<g>
	<path fill="#707070" d="M50,23v1h6v-1c0,0,0-2-3-2S50,23,50,23z"/>
</g>
<g>
	<rect x="43" y="21" fill="#707070" width="6" height="3"/>
</g>
<g>
	<path fill="#3D3C3E" d="M39,22c1.841,0,1.989,0.857,2,1h-3.998C37.028,22.778,37.246,22,39,22 M39,21c-3,0-3,2-3,2v1h6v-1
		C42,23,42,21,39,21L39,21z"/>
</g>
<g>
	<path fill="#3D3C3E" d="M53,22c1.841,0,1.989,0.857,2,1h-3.998C51.028,22.778,51.246,22,53,22 M53,21c-3,0-3,2-3,2v1h6v-1
		C56,23,56,21,53,21L53,21z"/>
</g>
<g>
	<path fill="#3D3C3E" d="M48,22v1h-4v-1H48 M49,21h-6v3h6V21L49,21z"/>
</g>
<g>
	<rect x="9" y="21" fill="#707070" width="6" height="3"/>
</g>
<g>
	<path fill="#3D3C3E" d="M14,22v1h-4v-1H14 M15,21H9v3h6V21L15,21z"/>
</g>
<g>
	<circle fill="#707070" cx="9.5" cy="10.5" r="2.5"/>
</g>
<g>
	<path fill="#3D3C3E" d="M8.5,8C9.327,8,10,8.673,10,9.5S9.327,11,8.5,11S7,10.327,7,9.5S7.673,8,8.5,8 M8.5,7
		C7.119,7,6,8.119,6,9.5S7.119,12,8.5,12S11,10.881,11,9.5S9.881,7,8.5,7L8.5,7z"/>
</g>
<rect x="15" y="45" fill="#FF6A8C" width="2" height="1"/>
<rect x="18" y="45" fill="#5FDB76" width="2" height="1"/>
<rect x="21" y="45" fill="#70B8E0" width="2" height="1"/>
</svg>
