<?xml version="1.0" encoding="utf-8"?>
<!-- Generator: Adobe Illustrator 16.0.0, SVG Export Plug-In . SVG Version: 6.00 Build 0)  -->
<!DOCTYPE svg PUBLIC "-//W3C//DTD SVG 1.1//EN" "http://www.w3.org/Graphics/SVG/1.1/DTD/svg11.dtd">
<svg version="1.1" id="Capa_1" xmlns="http://www.w3.org/2000/svg" xmlns:xlink="http://www.w3.org/1999/xlink" x="0px" y="0px"
	 width="64px" height="64px" viewBox="0 0 64 64" enable-background="new 0 0 64 64" xml:space="preserve">
<g>
	<path fill="#AEAEAE" d="M3,24c0,0,0-2,2-2h56c0,0,2,0,2,2v17.938H3V24z"/>
</g>
<g>
	<path fill="#707070" d="M16,29c0,0,0-2,2-2h28c0,0,2,0,2,2v4c0,0,0,2-2,2H18c0,0-2,0-2-2V29z"/>
</g>
<g>
	<path fill="#3D3C3E" d="M59.992,22C60.453,22.013,61,22.197,61,23v16.938H3V23.012C3.012,22.55,3.195,22,4,22H59.992 M60,21H4
		c-2,0-2,2-2,2v17.938h60V23C62,21,60,21,60,21L60,21z"/>
</g>
<g>
	<path fill="#707070" d="M63,43c0,0,0,2-2,2H5c0,0-2,0.063-2-2v-2h60V43z"/>
</g>
<g>
	<polygon fill="#707070" points="5,44 6,48 60,48 61,44 	"/>
</g>
<g>
	<rect x="9" y="47" fill="#AEAEAE" width="10" height="4"/>
</g>
<g>
	<rect x="47" y="47" fill="#AEAEAE" width="10" height="4"/>
</g>
<g>
	<path fill="#3D3C3E" d="M17,47v2H9v-2H17 M18,46H8v4h10V46L18,46z"/>
</g>
<g>
	<path fill="#3D3C3E" d="M55,47v2h-8v-2H55 M56,46H46v4h10V46L56,46z"/>
</g>
<g>
	<path fill="#3D3C3E" d="M40,32c0.806,0,0.988,0.55,1,1v7H23v-6.988C23.012,32.55,23.195,32,24,32H40 M40,31H24c-2,0-2,2-2,2v8h20
		v-8C42,33,42,31,40,31L40,31z"/>
</g>
<rect x="3" y="24" fill="#3D3C3E" width="58" height="1"/>
<g>
	<path fill="#707070" d="M6,29c0,0,0-1,1-1h5c0,0,1,0,1,1v2c0,0,0,1-1,1H7c0,0-1,0-1-1V29z"/>
</g>
<g>
	<path fill="#3D3C3E" d="M45.992,28C46.453,28.013,47,28.197,47,29v3.988C46.988,33.45,46.806,34,46,34H18.012
		C17.55,33.988,17,33.806,17,33v-3.988C17.012,28.55,17.195,28,18,28H45.992 M46,27H18c-2,0-2,2-2,2v4c0,2,2,2,2,2h28c2,0,2-2,2-2
		v-4C48,27,46,27,46,27L46,27z"/>
</g>
<g>
	<circle fill="#707070" cx="55.5" cy="33.5" r="5.5"/>
</g>
<g>
	<path fill="#3D3C3E" d="M61,41v0.988C60.988,42.45,60.806,43,60,43H3.981C3.33,43,3,42.664,3,42v-1H61 M62,40H2v2
		c0,1.944,1.778,2,1.981,2C3.994,44,4,44,4,44h56c2,0,2-2,2-2V40L62,40z"/>
</g>
<g>
	<path fill="#3D3C3E" d="M58.719,44l-0.5,2H5.781l-0.5-2H58.719 M60,43H4l1,4h54L60,43L60,43z"/>
</g>
<g>
	<path fill="#3D3C3E" d="M54.5,28c2.481,0,4.5,2.019,4.5,4.5S56.981,37,54.5,37S50,34.981,50,32.5S52.019,28,54.5,28 M54.5,27
		c-3.037,0-5.5,2.462-5.5,5.5c0,3.037,2.463,5.5,5.5,5.5s5.5-2.463,5.5-5.5C60,29.462,57.537,27,54.5,27L54.5,27z"/>
</g>
<rect x="25" y="36" fill="#FF6A8C" width="14" height="3"/>
<g>
	<path fill="#3D3C3E" d="M10.978,28c0.007,0.001,0.014,0.002,0.022,0.003l0,1.968c0,0.008-0.002,0.018-0.004,0.028l-4.968,0
		C6.02,30,6.01,29.999,6,29.997l0-1.968C6,28.02,6.001,28.01,6.003,28H10.978 M11,27H6c-1,0-1,1-1,1v2c0,1,1,1,1,1h5c1,0,1-1,1-1v-2
		C12,27,11,27,11,27L11,27z"/>
</g>
<rect x="8" y="22" fill="#3D3C3E" width="1" height="2"/>
<rect x="55" y="22" fill="#3D3C3E" width="1" height="2"/>
<circle fill="#FF6A8C" cx="43.5" cy="37.5" r="0.5"/>
<circle fill="#3D3C3E" cx="45.5" cy="37.5" r="0.5"/>
<path fill="#3D3C3E" d="M18,37.5c0-0.276,0.224-0.5,0.5-0.5h2c0.276,0,0.5,0.224,0.5,0.5l0,0c0,0.276-0.224,0.5-0.5,0.5h-2
	C18.224,38,18,37.776,18,37.5L18,37.5z"/>
<path fill="#3D3C3E" d="M14,37.5c0-0.276,0.224-0.5,0.5-0.5h2c0.276,0,0.5,0.224,0.5,0.5l0,0c0,0.276-0.224,0.5-0.5,0.5h-2
	C14.224,38,14,37.776,14,37.5L14,37.5z"/>
<path fill="#3D3C3E" d="M5,37.5C5,37.224,5.224,37,5.5,37h2C7.776,37,8,37.224,8,37.5l0,0C8,37.776,7.776,38,7.5,38h-2
	C5.224,38,5,37.776,5,37.5L5,37.5z"/>
<path fill="#FFFFFF" d="M42,29.5c0-0.276-0.224-0.5-0.5-0.5h-19c-0.276,0-0.5,0.224-0.5,0.5l0,0c0,0.276,0.224,0.5,0.5,0.5h19
	C41.776,30,42,29.776,42,29.5L42,29.5z"/>
</svg>
