<?xml version="1.0" encoding="utf-8"?>
<!-- Generator: Adobe Illustrator 16.0.0, SVG Export Plug-In . SVG Version: 6.00 Build 0)  -->
<!DOCTYPE svg PUBLIC "-//W3C//DTD SVG 1.1//EN" "http://www.w3.org/Graphics/SVG/1.1/DTD/svg11.dtd">
<svg version="1.1" id="Capa_1" xmlns="http://www.w3.org/2000/svg" xmlns:xlink="http://www.w3.org/1999/xlink" x="0px" y="0px"
	 width="64px" height="64px" viewBox="0 0 64 64" enable-background="new 0 0 64 64" xml:space="preserve">
<g>
	<path fill="#AEAEAE" d="M17,6c0,0,0-2,2-2s24,0,24,0s2,0,2,2s0,55,0,55s0,2-2,2s-24,0-24,0s-2,0-2-2S17,6,17,6z"/>
</g>
<g>
	<path fill="#3D3C3E" d="M41.992,4C42.453,4.013,43,4.197,43,5v54.988C42.988,60.45,42.806,61,42,61H18.012
		C17.55,60.988,17,60.806,17,60V5.012C17.012,4.55,17.195,4,18,4H41.992 M42,3c0,0-22,0-24,0s-2,2-2,2s0,53,0,55s2,2,2,2s22,0,24,0
		s2-2,2-2s0-53,0-55S42,3,42,3L42,3z"/>
</g>
<g>
	<path fill="#707070" d="M19,8c0,0,0-2,2-2s20,0,20,0s2,0,2,2s0,19,0,19s0,2-2,2s-20,0-20,0s-2,0-2-2V8z"/>
</g>
<g>
	<rect x="21" y="8" fill="#70B8E0" width="20" height="14"/>
</g>
<rect x="20" y="24" fill="#3D3C3E" width="20" height="1"/>
<rect x="22" y="24" fill="#F5AD60" width="4" height="1"/>
<path fill="#3D3C3E" d="M26,42.5c0-0.276,0.224-0.5,0.5-0.5h15c0.276,0,0.5,0.224,0.5,0.5l0,0c0,0.276-0.224,0.5-0.5,0.5h-15
	C26.224,43,26,42.776,26,42.5L26,42.5z"/>
<path fill="#3D3C3E" d="M26,45.5c0-0.276,0.224-0.5,0.5-0.5h15c0.276,0,0.5,0.224,0.5,0.5l0,0c0,0.276-0.224,0.5-0.5,0.5h-15
	C26.224,46,26,45.776,26,45.5L26,45.5z"/>
<path fill="#3D3C3E" d="M26,48.5c0-0.276,0.224-0.5,0.5-0.5h15c0.276,0,0.5,0.224,0.5,0.5l0,0c0,0.276-0.224,0.5-0.5,0.5h-15
	C26.224,49,26,48.776,26,48.5L26,48.5z"/>
<path fill="#3D3C3E" d="M26,51.5c0-0.276,0.224-0.5,0.5-0.5h15c0.276,0,0.5,0.224,0.5,0.5l0,0c0,0.276-0.224,0.5-0.5,0.5h-15
	C26.224,52,26,51.776,26,51.5L26,51.5z"/>
<path fill="#3D3C3E" d="M26,54.5c0-0.276,0.224-0.5,0.5-0.5h15c0.276,0,0.5,0.224,0.5,0.5l0,0c0,0.276-0.224,0.5-0.5,0.5h-15
	C26.224,55,26,54.776,26,54.5L26,54.5z"/>
<path fill="#3D3C3E" d="M26,57.5c0-0.276,0.224-0.5,0.5-0.5h15c0.276,0,0.5,0.224,0.5,0.5l0,0c0,0.276-0.224,0.5-0.5,0.5h-15
	C26.224,58,26,57.776,26,57.5L26,57.5z"/>
<path fill="#3D3C3E" d="M15,61.5c0,0.276-0.224,0.5-0.5,0.5l0,0c-0.276,0-0.5-0.224-0.5-0.5v-58C14,3.224,14.224,3,14.5,3l0,0
	C14.776,3,15,3.224,15,3.5V61.5z"/>
<g>
	<path fill="#3D3C3E" d="M39.992,6C40.453,6.013,41,6.197,41,7v18.988C40.988,26.45,40.806,27,40,27H20.012
		C19.55,26.988,19,26.805,19,26V7.012C19.012,6.55,19.195,6,20,6H39.992 M40,5c0,0-18,0-20,0s-2,2-2,2v19c0,2,2,2,2,2s18,0,20,0
		s2-2,2-2s0-17,0-19S40,5,40,5L40,5z"/>
</g>
<g>
	<path fill="#3D3C3E" d="M39,8v12H21V8H39 M40,7H20v14h20V7L40,7z"/>
</g>
<path fill="#FFFFFF" d="M23,22.5c0-0.276-0.224-0.5-0.5-0.5h-1c-0.276,0-0.5,0.224-0.5,0.5l0,0c0,0.276,0.224,0.5,0.5,0.5h1
	C22.776,23,23,22.776,23,22.5L23,22.5z"/>
<path fill="#FFFFFF" d="M27,22.5c0-0.276-0.224-0.5-0.5-0.5h-1c-0.276,0-0.5,0.224-0.5,0.5l0,0c0,0.276,0.224,0.5,0.5,0.5h1
	C26.776,23,27,22.776,27,22.5L27,22.5z"/>
<path fill="#FFFFFF" d="M31,22.5c0-0.276-0.224-0.5-0.5-0.5h-1c-0.276,0-0.5,0.224-0.5,0.5l0,0c0,0.276,0.224,0.5,0.5,0.5h1
	C30.776,23,31,22.776,31,22.5L31,22.5z"/>
<path fill="#FFFFFF" d="M35,22.5c0-0.276-0.224-0.5-0.5-0.5h-1c-0.276,0-0.5,0.224-0.5,0.5l0,0c0,0.276,0.224,0.5,0.5,0.5h1
	C34.776,23,35,22.776,35,22.5L35,22.5z"/>
<path fill="#FFFFFF" d="M39,22.5c0-0.276-0.224-0.5-0.5-0.5h-1c-0.276,0-0.5,0.224-0.5,0.5l0,0c0,0.276,0.224,0.5,0.5,0.5h1
	C38.776,23,39,22.776,39,22.5L39,22.5z"/>
<path fill="#FFFFFF" d="M20,44.5c0-0.276-0.224-0.5-0.5-0.5l0,0c-0.276,0-0.5,0.224-0.5,0.5v13c0,0.276,0.224,0.5,0.5,0.5l0,0
	c0.276,0,0.5-0.224,0.5-0.5V44.5z"/>
<path fill="#FFFFFF" d="M22,38.5c0-0.276-0.224-0.5-0.5-0.5l0,0c-0.276,0-0.5,0.224-0.5,0.5v19c0,0.276,0.224,0.5,0.5,0.5l0,0
	c0.276,0,0.5-0.224,0.5-0.5V38.5z"/>
</svg>
