<?xml version="1.0" encoding="utf-8"?>
<!-- Generator: Adobe Illustrator 16.0.0, SVG Export Plug-In . SVG Version: 6.00 Build 0)  -->
<!DOCTYPE svg PUBLIC "-//W3C//DTD SVG 1.1//EN" "http://www.w3.org/Graphics/SVG/1.1/DTD/svg11.dtd">
<svg version="1.1" id="Capa_1" xmlns="http://www.w3.org/2000/svg" xmlns:xlink="http://www.w3.org/1999/xlink" x="0px" y="0px"
	 width="64px" height="64px" viewBox="0 0 64 64" enable-background="new 0 0 64 64" xml:space="preserve">
<g>
	<g>
		<path fill="#AEAEAE" d="M50,21c0,0,0,17,0,23s-6,6-6,6H20c0,0-6,0-6-6s0-23,0-23s0-6,6-6h24C50,15,50,21,50,21z"/>
	</g>
	<g>
		<path fill="#707070" d="M19,21c0,0,0-2,2-2h24c0,0,2,0,2,2v9c0,0,0,2-2,2s-24,0-24,0s-2,0-2-2S19,21,19,21z"/>
	</g>
	<g>
		<rect x="20" y="20" fill="#5FDB76" width="24" height="9"/>
	</g>
	<g>
		<path fill="#3D3C3E" d="M43,21v7H21v-7H43 M44,20H20v9h24V20L44,20z"/>
	</g>
	<g>
		<rect x="49" y="27" fill="#707070" width="3" height="4"/>
	</g>
	<g>
		<rect x="49" y="22" fill="#707070" width="3" height="4"/>
	</g>
	<g>
		<rect x="49" y="34" fill="#707070" width="3" height="4"/>
	</g>
	<g>
		<rect x="49" y="41" fill="#707070" width="3" height="4"/>
	</g>
	<g>
		<rect x="12" y="35" fill="#707070" width="3" height="4"/>
	</g>
	<g>
		<rect x="12" y="21" fill="#707070" width="3" height="4"/>
	</g>
	<g>
		<rect x="12" y="41" fill="#707070" width="3" height="4"/>
	</g>
	<g>
		<path fill="#3D3C3E" d="M51,27v2h-1v-2H51 M52,26h-3v4h3V26L52,26z"/>
	</g>
	<g>
		<path fill="#3D3C3E" d="M51,22v2h-1v-2H51 M52,21h-3v4h3V21L52,21z"/>
	</g>
	<g>
		<path fill="#3D3C3E" d="M51,34v2h-1v-2H51 M52,33h-3v4h3V33L52,33z"/>
	</g>
	<g>
		<path fill="#3D3C3E" d="M51,41v2h-1v-2H51 M52,40h-3v4h3V40L52,40z"/>
	</g>
	<g>
		<path fill="#3D3C3E" d="M14,35v2h-1v-2H14 M15,34h-3v4h3V34L15,34z"/>
	</g>
	<g>
		<path fill="#3D3C3E" d="M14,21v2h-1v-2H14 M15,20h-3v4h3V20L15,20z"/>
	</g>
	<g>
		<path fill="#3D3C3E" d="M14,41v2h-1v-2H14 M15,40h-3v4h3V40L15,40z"/>
	</g>
	<g>
		<path fill="#707070" d="M18,36c0,0,0-2,2-2h26c0,0,2,0,2,2v10c0,0,0,2-2,2s-26,0-26,0s-2,0-2-2V36z"/>
	</g>
	<rect x="22" y="34" fill="#3D3C3E" width="1" height="12"/>
	<rect x="28" y="34" fill="#3D3C3E" width="1" height="12"/>
	<rect x="41" y="34" fill="#3D3C3E" width="1" height="12"/>
	<rect x="35" y="34" fill="#3D3C3E" width="1" height="12"/>
	<g>
		<path fill="#707070" d="M47,50c0,0,0,6-5,6s-8,0-8,0s-3,0-8,0s-5-6-5-6H47z"/>
	</g>
	<g>
		<path fill="#AEAEAE" d="M44,55c0,0,0,6-5,6s-5,0-5,0s0,0-5,0s-5-6-5-6H44z"/>
	</g>
	<g>
		<path fill="#707070" d="M47,16c0,0,0-6-5-6s-8,0-8,0s-3,0-8,0s-5,6-5,6H47z"/>
	</g>
	<g>
		<path fill="#AEAEAE" d="M44,11c0,0,0-6-5-6s-5,0-5,0s0,0-5,0s-5,6-5,6H44z"/>
	</g>
	<g>
		<path fill="#3D3C3E" d="M43.912,50c-0.228,1.462-1.035,4-3.912,4h-8h-8c-2.858,0-3.674-2.538-3.907-4H43.912 M45,49H19
			c0,0,0,6,5,6s8,0,8,0s3,0,8,0S45,49,45,49L45,49z"/>
	</g>
	<g>
		<path fill="#3D3C3E" d="M40.912,55c-0.228,1.462-1.035,4-3.912,4h-5h-5c-2.858,0-3.674-2.538-3.907-4H40.912 M42,54H22
			c0,0,0,6,5,6s5,0,5,0s0,0,5,0S42,54,42,54L42,54z"/>
	</g>
	<g>
		<path fill="#3D3C3E" d="M40,11c2.858,0,3.674,2.538,3.907,4H20.088c0.227-1.462,1.035-4,3.912-4h8H40 M40,10c-5,0-8,0-8,0
			s-3,0-8,0s-5,6-5,6h26C45,16,45,10,40,10L40,10z"/>
	</g>
	<g>
		<path fill="#3D3C3E" d="M37,6c2.858,0,3.674,2.538,3.907,4H23.088C23.315,8.538,24.123,6,27,6h5H37 M37,5c-5,0-5,0-5,0s0,0-5,0
			s-5,6-5,6h20C42,11,42,5,37,5L37,5z"/>
	</g>
	<rect x="17" y="37" fill="#3D3C3E" width="30" height="1"/>
	<rect x="17" y="42" fill="#3D3C3E" width="30" height="1"/>
	<g>
		<path fill="#3D3C3E" d="M43.992,19C44.453,19.013,45,19.197,45,20v8.988C44.988,29.45,44.806,30,44,30H20.012
			C19.55,29.988,19,29.805,19,29v-8.988C19.012,19.55,19.195,19,20,19H43.992 M44,18H20c-2,0-2,2-2,2s0,7,0,9s2,2,2,2s22,0,24,0
			s2-2,2-2v-9C46,18,44,18,44,18L44,18z"/>
	</g>
	<g>
		<path fill="#3D3C3E" d="M44.992,34C45.453,34.013,46,34.197,46,35v9.988C45.988,45.45,45.806,46,45,46H19.012
			C18.55,45.988,18,45.806,18,45v-9.988C18.012,34.55,18.195,34,19,34H44.992 M45,33H19c-2,0-2,2-2,2v10c0,2,2,2,2,2s24,0,26,0
			s2-2,2-2V35C47,33,45,33,45,33L45,33z"/>
	</g>
	<g>
		<path fill="#3D3C3E" d="M44,16c4.824,0,4.996,4.492,5,5v23c0,4.824-4.491,4.996-5,5H20c-0.204,0-5-0.057-5-5V21
			c0-0.204,0.057-5,5-5H44 M44,15H20c-6,0-6,6-6,6s0,17,0,23s6,6,6,6h24c0,0,6,0,6-6s0-23,0-23S50,15,44,15L44,15z"/>
	</g>
</g>
<path fill="#3D3C3E" d="M13,55.5c0-0.276-0.224-0.5-0.5-0.5h-8C4.224,55,4,55.224,4,55.5l0,0C4,55.776,4.224,56,4.5,56h8
	C12.776,56,13,55.776,13,55.5L13,55.5z"/>
<path fill="#3D3C3E" d="M8.5,51C8.224,51,8,51.224,8,51.5v8C8,59.776,8.224,60,8.5,60l0,0C8.776,60,9,59.776,9,59.5v-8
	C9,51.224,8.776,51,8.5,51L8.5,51z"/>
<path fill="#3D3C3E" d="M61,51.5c0-0.276-0.224-0.5-0.5-0.5h-8c-0.276,0-0.5,0.224-0.5,0.5l0,0c0,0.276,0.224,0.5,0.5,0.5h8
	C60.776,52,61,51.776,61,51.5L61,51.5z"/>
<path fill="#3D3C3E" d="M15,8.5C15,8.224,14.776,8,14.5,8h-8C6.224,8,6,8.224,6,8.5l0,0C6,8.776,6.224,9,6.5,9h8
	C14.776,9,15,8.776,15,8.5L15,8.5z"/>
<path fill="#3D3C3E" d="M58.682,5.318c-0.195-0.195-0.512-0.196-0.707,0l-5.656,5.657c-0.195,0.195-0.195,0.512,0,0.707l0,0
	c0.195,0.195,0.512,0.195,0.707,0l5.656-5.657C58.877,5.83,58.877,5.514,58.682,5.318L58.682,5.318z"/>
<path fill="#3D3C3E" d="M52.318,5.318c-0.195,0.195-0.195,0.512,0,0.707l5.656,5.657c0.195,0.196,0.512,0.195,0.707,0l0,0
	c0.195-0.195,0.195-0.511,0-0.707l-5.656-5.657C52.83,5.123,52.514,5.123,52.318,5.318L52.318,5.318z"/>
<g>
	<path fill="#3D3C3E" d="M56.5,48c0.275,0,0.5,0.225,0.5,0.5S56.775,49,56.5,49S56,48.775,56,48.5S56.225,48,56.5,48 M56.5,47
		c-0.828,0-1.5,0.672-1.5,1.5s0.672,1.5,1.5,1.5s1.5-0.672,1.5-1.5S57.328,47,56.5,47L56.5,47z"/>
</g>
<g>
	<path fill="#3D3C3E" d="M56.5,54c0.275,0,0.5,0.225,0.5,0.5S56.775,55,56.5,55S56,54.775,56,54.5S56.225,54,56.5,54 M56.5,53
		c-0.828,0-1.5,0.672-1.5,1.5s0.672,1.5,1.5,1.5s1.5-0.672,1.5-1.5S57.328,53,56.5,53L56.5,53z"/>
</g>
</svg>
