<?xml version="1.0" encoding="utf-8"?>
<!-- Generator: Adobe Illustrator 16.0.0, SVG Export Plug-In . SVG Version: 6.00 Build 0)  -->
<!DOCTYPE svg PUBLIC "-//W3C//DTD SVG 1.1//EN" "http://www.w3.org/Graphics/SVG/1.1/DTD/svg11.dtd">
<svg version="1.1" id="Capa_1" xmlns="http://www.w3.org/2000/svg" xmlns:xlink="http://www.w3.org/1999/xlink" x="0px" y="0px"
	 width="64px" height="64px" viewBox="0 0 64 64" enable-background="new 0 0 64 64" xml:space="preserve">
<g>
	<polygon fill="#707070" points="26.09,37 20.5,37 20.5,36 22,31 24.007,30.582 24.993,30.418 	"/>
</g>
<polyline fill="#DF5754" points="9.5,19.5 9.5,19.5 12.5,16.5 14.5,16.5 14.5,19.5 "/>
<g>
	<path fill="#DF5754" d="M18.112,45.663L23,30h11l1-1h21l2-4h3l3-6h-4v-3l-6,3H5v10c0,0,5,1,6,3S5,47,5,51c0,0,0,2,2,2s7-2,7-2
		s1.974-0.733,3-2C18.407,47.263,18.112,45.663,18.112,45.663z"/>
</g>
<g>
	<path fill="#3D3C3E" d="M58,16.618V18v1h1h2.382l-2,4H57h-0.618l-0.276,0.553L54.382,27H28h-0.414l-0.293,0.292L26.585,28H22
		h-0.735l-0.219,0.702l-4.888,15.663l-0.038,0.122l-0.006,0.127c-0.03,0.63-0.274,2.115-0.831,2.689
		c-0.978,1.008-2.656,1.768-2.654,1.768h0C11.287,49.607,7.481,51,6,51c-0.805,0-0.988-0.55-1-1c0-1.75,1.683-5.892,3.168-9.546
		c2.446-6.019,3.377-8.599,2.726-9.901C9.941,28.647,6.651,27.611,5,27.201V19h48h0.236l0.211-0.105L58,16.618 M59,15l-6,3H4v10
		c0,0,5,1,6,3S4,46,4,50c0,0,0,2,2,2s7-2,7-2s1.865-0.83,3-2c1-1.031,1.112-3.337,1.112-3.337L22,29h5l1-1h27l2-4h3l3-6h-4V15L59,15
		z"/>
</g>
<g>
	<polygon fill="#AEAEAE" points="41,23 37,31 21,31 18,29 4,29 1,24 1,21 20,21 23,23 	"/>
</g>
<polygon fill="#AEAEAE" points="31.792,22.5 27.5,16.5 17.5,16.5 20.792,21.5 22,22.5 "/>
<polyline fill="none" stroke="#3D3C3E" stroke-linejoin="round" stroke-miterlimit="10" points="8.5,18.5 8.5,18.5 11.5,15.5 
	13.5,15.5 13.5,18.5 "/>
<g>
	<path fill="#3D3C3E" d="M18.697,21l2.748,1.832L21.697,23H22h16.382l-3,6H20.303l-2.748-1.832L17.303,27H17H3.566L1,22.723V21
		H18.697 M19,20H0v3l3,5h14l3,2h16l4-8H22L19,20L19,20z"/>
</g>
<polyline fill="none" stroke="#3D3C3E" stroke-miterlimit="10" points="20.6,21.693 17.5,16.5 27.5,16.5 31.5,22.5 "/>
<polygon fill="#3D3C3E" points="39,23 57,23 57,24 38,24 "/>
<line fill="none" stroke="#3D3C3E" stroke-linecap="square" stroke-miterlimit="10" x1="21.5" y1="17" x2="24.5" y2="22"/>
<line fill="none" stroke="#3D3C3E" stroke-linecap="square" stroke-miterlimit="10" x1="24.5" y1="17" x2="27.5" y2="22"/>
<circle fill="#3D3C3E" cx="3.5" cy="22.5" r="0.5"/>
<circle fill="#3D3C3E" cx="33.5" cy="27.5" r="0.5"/>
<polyline fill="none" stroke="#3D3C3E" stroke-miterlimit="10" points="19.5,35.5 24.5,35.5 23.5,29.5 "/>
<line fill="none" stroke="#3D3C3E" stroke-linecap="round" stroke-linejoin="round" stroke-miterlimit="10" x1="12" y1="42.5" x2="17" y2="42.5"/>
<line fill="none" stroke="#3D3C3E" stroke-linecap="round" stroke-linejoin="round" stroke-miterlimit="10" x1="13" y1="40.5" x2="17.641" y2="40.5"/>
<line fill="none" stroke="#3D3C3E" stroke-linecap="round" stroke-linejoin="round" stroke-miterlimit="10" x1="14" y1="38.5" x2="18.333" y2="38.5"/>
<line fill="none" stroke="#3D3C3E" stroke-linecap="round" stroke-linejoin="round" stroke-miterlimit="10" x1="15" y1="36.5" x2="19" y2="36.5"/>
</svg>
